<svg xmlns="http://www.w3.org/2000/svg" xmlns:xlink="http://www.w3.org/1999/xlink" width="100" height="100" viewBox="0 0 100 100" fill="none">
<path d="M100 50.0053C100 58.5952 97.8338 66.6809 94.0054 73.7372C93.1153 75.4102 92.1072 77.0295 91.0241 78.5844C87.9035 83.0777 84.0429 87.0348 79.6354 90.2627C79.6139 90.2949 79.5818 90.3056 79.5603 90.327C79.2708 90.5415 78.9812 90.756 78.681 90.949C73.2547 94.7667 67.0348 97.5228 60.3217 98.9276C56.9973 99.6354 53.5442 100 50.0054 100C41.8874 100 34.2306 98.0697 27.4531 94.6273C23.5389 92.6541 19.9249 90.1769 16.6863 87.2815C14.9491 85.7158 13.3083 84.0429 11.7962 82.252C11.1099 81.4477 10.4558 80.622 9.83378 79.7748C8.17158 77.5442 6.69169 75.1742 5.41555 72.6756C1.95174 65.8659 0 58.1662 0 50.0053C0 22.3914 22.3914 0 50.0054 0C77.6193 0 100 22.3914 100 50.0053Z"   fill="#F2E5DF" >
</path>
<path d="M65.1366 38.1448C64.3538 34.6488 61.7157 32.2681 59.2385 32.8151L57.9517 33.0081C57.7908 33.0188 57.6407 33.0403 57.4798 33.0831C55.0026 33.6408 53.6407 36.9223 54.4235 40.4183C55.2063 43.9142 57.8444 46.2949 60.3216 45.748L61.6085 45.555C61.7693 45.5443 61.9195 45.5228 62.0803 45.4799C64.5575 44.9223 65.9195 41.6408 65.1366 38.1448Z"   fill="#46467F" >
</path>
<path d="M94.0052 73.7372C93.1152 75.4102 92.1071 77.0295 91.024 78.5844C87.9034 83.0777 84.0428 87.0348 79.6353 90.2627C79.6138 90.2949 79.5816 90.3056 79.5602 90.327C79.2707 90.5415 78.9811 90.756 78.6808 90.949C73.2546 94.7667 67.0347 97.5228 60.3216 98.9276C56.9972 99.6354 53.5441 100 50.0052 100C41.8873 100 34.2305 98.0697 27.453 94.6273C23.5388 92.6541 19.9248 90.1769 16.6862 87.2815C14.949 85.7158 13.3082 84.0429 11.7961 82.252C11.1098 81.4477 10.4557 80.622 9.83368 79.7748C17.7801 70.2091 24.772 68.2788 24.772 68.2788C24.5468 68.0322 22.091 65.1367 24.772 59.9249C28.3002 53.0402 39.2599 48.7828 39.2599 48.7828L58.6058 47.6354C58.6058 47.6354 66.7452 48.2252 72.772 55.1528C77.7586 60.8579 76.8685 64.4826 76.3967 65.5871C76.3109 65.823 76.2251 65.941 76.2251 65.941C76.2251 65.941 84.579 68.6863 94.0052 73.7372Z"   fill="#7772D3" >
</path>
<path d="M76.3967 65.5871C72.3859 68.1287 65.9516 71.3029 56.8792 73.2976C39.9141 77.0402 24.7613 68.2788 24.7613 68.2788C24.5361 68.0322 22.0803 65.1367 24.7613 59.9249C28.2894 53.0402 39.2492 48.7936 39.2492 48.7936L58.595 47.6461C58.595 47.6461 66.7237 48.2359 72.7613 55.1635C77.7479 60.8686 76.8578 64.4933 76.3859 65.5979L76.3967 65.5871Z" fill-rule="evenodd"  fill="#9393E5" >
</path>
<path d="M42.0589 61.4906C42.0589 61.4906 34.3913 57.4906 34.8525 55.1528C35.3136 52.815 42.7452 51.2386 47.5173 52.1394C52.2787 53.0402 63.5495 53.1796 63.5495 57.2762C63.5495 60.9008 58.3806 64.3861 58.3806 64.3861L47.5173 61.2547L42.0589 61.4906Z"   fill="#7772D3" >
</path>
<path d="M41.8015 49.5013L42.0696 61.5013C42.0696 61.5013 44.3109 64.9008 51.3351 65.319C56.5683 65.63 58.3806 64.4075 58.3806 64.4075L57.512 58.3485L56.6648 52.4397L43.9356 49.9303L41.8015 49.5121L41.8015 49.5013Z" fill-rule="evenodd"  fill="#FCA397" >
</path>
<path d="M43.9356 49.9197C43.9785 50.2414 44.1071 50.6274 44.3109 51.0671C47.1313 56.9974 54.4986 58.1341 57.5227 58.3272L56.6755 52.4183L43.9356 49.9197Z"   fill="#000000" >
</path>
<path d="M58.7345 25.0188C58.7345 25.0188 65.3618 39.9249 63.0669 48.3324C60.772 56.7399 53.1152 55.4745 48.5254 53.8767C43.9355 52.2895 41.7908 49.4906 41.7908 49.4906C41.7908 49.4906 37.5227 50.9705 34.638 47.0134C31.7532 43.0563 33.4798 38.4772 35.9141 37.4155C38.3484 36.3539 41.2653 38.0911 41.2653 38.0911L38.9597 33.7587C38.9597 33.7587 48.3859 11.6247 58.7237 25.008L58.7345 25.0188Z"   fill="#FCA397" >
</path>
<path d="M58.1767 44.0751C58.1767 44.0751 58.0695 44.0751 58.0158 44.0536C57.737 43.9678 57.5762 43.6676 57.6619 43.3888C58.4984 40.6756 56.4609 37.7158 56.4394 37.6837C56.2678 37.437 56.3322 37.1046 56.5681 36.933C56.8148 36.7614 57.1472 36.8258 57.3188 37.0617C57.4153 37.2011 59.6888 40.4719 58.6914 43.6998C58.6164 43.925 58.4126 44.0751 58.1767 44.0751Z"   fill="#000000" >
</path>
<path d="M40.6327 45.1582C40.4933 45.1582 40.3539 45.1046 40.2574 44.9974L36.193 40.6971C36 40.4934 36.0107 40.1609 36.2145 39.9679C36.4182 39.7749 36.7507 39.7856 36.9437 39.9894L41.008 44.2896C41.2011 44.4934 41.1903 44.8258 40.9866 45.0188C40.8901 45.1154 40.7614 45.1582 40.6327 45.1582Z"   fill="#000000" >
</path>
<path d="M36.343 44.0001C36.0964 44.0001 35.8712 43.8177 35.8283 43.5604C35.7854 43.2816 35.9784 43.0135 36.2572 42.9706L39.0669 42.5416C39.3564 42.4987 39.6138 42.6917 39.6567 42.9706C39.6996 43.2494 39.5065 43.5175 39.2277 43.5604L36.4181 43.9893C36.4181 43.9893 36.3644 43.9893 36.343 43.9893L36.343 44.0001Z"   fill="#000000" >
</path>
<path d="M41.2761 38.1019C41.2761 38.1019 42.8203 39.1099 43.9356 37.362C45.0616 35.6032 42.6058 30.4236 42.6058 30.4236C42.6058 30.4236 47.2278 31.4746 50.0911 29.941C52.9543 28.4075 54.3592 24.2038 54.3592 24.2038C54.3592 24.2038 56.461 28.5898 62.7774 26.6595C69.0937 24.7293 70.2948 16.1287 63.5495 14.3807C56.8042 12.622 53.1259 15.614 53.1259 15.614C53.1259 15.614 52.268 9.37269 43.9356 12.4612C36.3431 15.2708 35.0562 24.7829 35.0562 24.7829C35.0562 24.7829 30.4986 24.9973 29.6192 29.9518C28.7399 34.9169 34.5415 38.4987 34.5415 38.4987C34.5415 38.4987 37.8337 36.5684 41.2761 38.1019Z"   fill="#000000" >
</path>
<path d="M51.3994 38.4987C51.1313 38.4987 50.9061 38.3057 50.8632 38.0268L50.5093 35.2386C50.4771 34.9491 50.6809 34.681 50.9704 34.6381C51.2707 34.5952 51.5281 34.8097 51.571 35.0992L51.9249 37.8874C51.957 38.177 51.7533 38.4451 51.4637 38.488C51.4423 38.488 51.4208 38.488 51.3994 38.4987Z"   fill="#000000" >
</path>
<path d="M59.6674 37.8446C59.41 37.8446 59.1741 37.6515 59.1419 37.3834L58.7344 34.606C58.6915 34.3164 58.8953 34.0376 59.1848 33.9947C59.4744 33.9625 59.7532 34.1556 59.7961 34.4451L60.2036 37.2226C60.2465 37.5121 60.0427 37.791 59.7532 37.8338C59.7318 37.8338 59.6996 37.8338 59.6781 37.8338L59.6674 37.8446Z"   fill="#000000" >
</path>
<path d="M48.8041 33.1689C48.7183 33.1689 48.6325 33.1475 48.5575 33.1046C48.2894 32.9652 48.1929 32.6435 48.3215 32.3861C49.351 30.37 51.8926 30.8955 51.9998 30.9276C52.2894 30.992 52.4717 31.2708 52.4073 31.5603C52.343 31.8499 52.0642 32.0322 51.7746 31.9786C51.6996 31.9571 49.9301 31.6032 49.276 32.8794C49.1795 33.0617 48.9972 33.1689 48.7934 33.1689L48.8041 33.1689Z" fill-rule="evenodd"  fill="#000000" >
</path>
<path d="M56.8793 31.4424C56.772 31.4424 56.6648 31.4102 56.579 31.3459C56.3324 31.1743 56.268 30.8419 56.4396 30.6059C56.8686 29.984 57.4155 29.6301 58.0696 29.5443C59.3887 29.3727 60.6219 30.4558 60.6755 30.5094C60.9007 30.7025 60.9222 31.0456 60.7184 31.2601C60.5254 31.4853 60.1822 31.5068 59.957 31.303C59.6996 31.0778 58.8846 30.5202 58.1876 30.6059C57.8444 30.6488 57.5656 30.8419 57.319 31.2065C57.2117 31.3566 57.0509 31.4424 56.8793 31.4424Z"   fill="#000000" >
</path>
<path d="M50.3485 75.1636C34.445 74.2735 28.268 70.6274 28.0107 70.4773C27.7533 70.3271 27.6782 69.9947 27.8284 69.7373C27.9785 69.4799 28.3109 69.4049 28.5683 69.555C28.6327 69.5872 34.8203 73.2226 50.3699 74.0912C50.6702 74.1126 50.8954 74.3593 50.8739 74.6596C50.8632 74.9491 50.6166 75.1636 50.3377 75.1636L50.3485 75.1636Z" fill-rule="evenodd"  fill="#46467F" >
</path>
<path d="M50.788 93.2547C50.477 93.2547 50.2411 92.9973 50.2518 92.6971L50.6915 79.8177C50.6915 79.5175 50.9488 79.303 51.2491 79.303C51.5494 79.303 51.7746 79.5603 51.7639 79.8606L51.3242 92.74C51.3242 93.0295 51.0775 93.2547 50.788 93.2547Z"   fill="#46467F" >
</path>
<path d="M71.7747 89.362C71.5924 89.362 71.4101 89.2654 71.3136 89.0939L64.89 78.2413C64.7399 77.9839 64.8257 77.6515 65.0831 77.5014C65.3404 77.3512 65.6622 77.437 65.8123 77.6944L72.2359 88.5469C72.386 88.8043 72.3002 89.126 72.0428 89.2869C71.9571 89.3405 71.8605 89.362 71.7747 89.362Z"   fill="#46467F" >
</path>
<path d="M71.7746 68.8151C71.5816 68.8151 71.3993 68.7079 71.3028 68.5256C71.1634 68.2575 71.2706 67.9358 71.528 67.7964L75.9677 65.4586C76.225 65.3192 76.5575 65.4157 76.6969 65.6838C76.8363 65.9519 76.7291 66.2736 76.4717 66.413L72.032 68.7508C71.9569 68.7937 71.8711 68.8151 71.7854 68.8151L71.7746 68.8151Z"   fill="#46467F" >
</path>
<path d="M44.5682 42.5202C45.0186 46.0698 43.3564 49.2118 40.8471 49.5336C38.3377 49.8553 35.9248 47.2387 35.4744 43.6783C35.024 40.118 36.6862 36.9867 39.1956 36.6649C41.705 36.3432 44.1178 38.9598 44.5682 42.5202Z"   fill="#46467F" >
</path>
<path d="M39.1955 36.6649L37.4475 37.0188L39.099 49.8874L40.8363 49.5335L42.7344 47.4853L43.292 40.3539L39.1955 36.6649L39.1955 36.6649Z"   fill="#46467F" >
</path>
<path d="M42.831 42.8633C43.2814 46.4129 41.6192 49.555 39.1098 49.8767C36.6004 50.1984 34.1875 47.5818 33.7371 44.0215C33.2867 40.4612 34.9489 37.3298 37.4583 37.0081C39.9677 36.6864 42.3806 39.303 42.831 42.8633Z"   fill="#FFFFFF" >
</path>
<path d="M36.1929 20.7292C36.1929 20.7292 34.2733 23.0242 33.7371 25.051C33.2009 27.0778 36.343 39.8606 36.343 39.8606L40.3108 38.9598L36.1929 20.7292Z"   fill="#FFFFFF" >
</path>
<path d="M54.6165 48.2896C52.772 48.2896 51.4315 46.9277 50.9382 46.0912C50.7881 45.8338 50.8738 45.5121 51.1205 45.362C51.3779 45.2119 51.6996 45.2977 51.8604 45.5443C51.9141 45.6301 53.1795 47.6891 55.3457 47.1207C55.6245 47.0456 55.9248 47.2172 55.9998 47.5068C56.0749 47.7963 55.9033 48.0859 55.6138 48.1609C55.2706 48.2467 54.9275 48.2896 54.6165 48.2896Z"   fill="#000000" >
</path>
</svg>
