<svg xmlns="http://www.w3.org/2000/svg" xmlns:xlink="http://www.w3.org/1999/xlink" width="100" height="100.00152587890625" viewBox="0 0 100 100.00152587890625" fill="none">
<path d="M100 50C100 54.4402 99.4209 58.7516 98.3269 62.8486C95.7744 72.4689 90.4333 80.9524 83.2046 87.3659C82.7327 87.7949 82.2394 88.2132 81.746 88.6208C79.9442 90.1223 78.0245 91.4843 76.0082 92.707C75.1287 93.2432 74.2385 93.758 73.3269 94.2407C73.0695 94.3801 72.8121 94.5088 72.544 94.6375C65.7765 98.0695 58.1081 100 50 100C47.233 100 44.5195 99.7748 41.8704 99.3351C39.9721 99.0348 38.1167 98.6165 36.2934 98.1017C30.2553 96.3857 24.689 93.565 19.8198 89.8756C18.6508 88.9854 17.5247 88.0416 16.4307 87.0549C14.5967 85.4033 12.8807 83.6015 11.3149 81.6924C10.7786 81.0382 10.2531 80.3625 9.75976 79.6761C3.62505 71.3749 0 61.1111 0 50C0 22.3831 22.3831 0 50 0C77.6169 0 100 22.3831 100 50Z"   fill="#F2E5DF" >
</path>
<path d="M81.746 88.6208C79.9442 90.1223 78.0244 91.4843 76.0081 92.707C75.1287 93.2432 74.2385 93.758 73.3269 94.2407C73.0695 94.3801 72.8121 94.5088 72.544 94.6375C65.7765 98.0695 58.1081 100 50 100C47.2329 100 44.5195 99.7748 41.8704 99.335C39.9721 99.0347 38.1167 98.6165 36.2934 98.1017C30.2552 96.3857 24.6889 93.565 19.8198 89.8756C18.6508 88.9854 17.5246 88.0416 16.4307 87.0549C14.5967 85.4032 12.8807 83.6014 11.3148 81.6924C10.7786 81.0382 10.2531 80.3625 9.75972 79.6761C13.0845 74.5817 18.6937 68.0824 27.0806 64.7147C29.4079 63.7924 31.9069 63.1059 34.631 62.752C34.7919 62.7306 34.9421 62.7091 35.1029 62.6984C35.3496 62.6662 35.5963 62.6448 35.8322 62.6233C35.8537 62.6233 35.8644 62.6233 35.8859 62.6233C36.1004 62.6019 36.3041 62.5911 36.5079 62.5804C36.8297 62.559 37.1407 62.5375 37.4195 62.5268C38.0952 62.4732 38.7816 62.4195 39.4358 62.3981C58.0545 61.6795 67.9644 69.0691 68.5435 69.5088C68.5971 69.541 68.6293 69.5839 68.6615 69.6268C68.8438 69.8305 69.2943 70.3132 69.9485 71.0746C72.3831 73.8846 77.5633 80.3303 81.746 88.6315L81.746 88.6208Z" fill-rule="evenodd"  fill="#46467F" >
</path>
<path d="M42.8679 37.205C42.8679 37.205 47.0828 36.1647 49.067 33.7301C51.0511 31.2955 51.3728 25.3003 51.3728 25.3003C51.3728 25.3003 59.0091 29.2685 61.0146 28.8288C63.0202 28.3891 66.9563 19.3908 64.3072 15.5083C61.6581 11.6259 56.2956 16.4307 56.2956 16.4307C56.2956 16.4307 55.1909 10.8859 49.3351 12.1729C42.4496 13.6958 40.6693 20.6778 40.6693 20.6778C40.6693 20.6778 40.2081 13.0952 35.414 16.42C30.6307 19.7447 32.3467 28.4427 32.3467 28.4427C32.3467 28.4427 28.5178 30.1051 29.2793 33.7087C30.0408 37.3123 35.221 40.7872 35.221 40.7872L42.8679 37.1729L42.8679 37.205Z"   fill="#E56445" >
</path>
<path d="M42.1815 48.0909L41.1734 59.5238C41.1734 59.5238 43.0181 62.988 49.9035 64.0927C55.0301 64.9185 56.9391 63.9425 56.9391 63.9425L56.7246 58.0974L56.5101 52.3917L44.2407 48.713L42.1815 48.0909Z"   fill="#FCA397" >
</path>
<path d="M44.2408 48.713C44.2408 49.024 44.3373 49.4101 44.4874 49.8391C46.6324 55.77 53.7753 57.5933 56.7247 58.0973L56.5102 52.3916L44.2408 48.713Z"   fill="#000000" >
</path>
<path d="M61.4436 26.5444C61.4436 26.5444 66.3985 41.3878 63.2561 49.1527C60.1029 56.9176 52.7027 54.9335 48.3483 52.9494C43.9939 50.9652 42.1814 48.0909 42.1814 48.0909C42.1814 48.0909 37.8271 49.0669 35.4032 45.0021C32.9794 40.9481 35.1673 36.7653 37.6769 36.0039C40.1866 35.2424 42.8678 37.1943 42.8678 37.1943L41.0553 32.84C41.0553 32.84 52.6705 12.752 61.4436 26.5337L61.4436 26.5444Z"   fill="#FCA397" >
</path>
<path d="M41.9241 43.4256C41.8061 43.4256 41.6774 43.3827 41.5809 43.3076L36.5723 39.1678C36.347 38.9747 36.3149 38.6422 36.4972 38.417C36.6795 38.1918 37.0227 38.1596 37.248 38.3419L42.2565 42.4818C42.4818 42.6748 42.5139 43.0073 42.3316 43.2325C42.2244 43.3612 42.0742 43.4256 41.9241 43.4256Z"   fill="#000000" >
</path>
<path d="M51.0404 31.8425C50.9117 31.8425 50.7722 31.7889 50.6757 31.6924C50.4612 31.4886 50.4505 31.1454 50.6543 30.9309C52.4561 29.0326 54.6011 29.5796 55.4805 30.1373C55.7272 30.2981 55.8023 30.6306 55.6414 30.8773C55.4805 31.124 55.148 31.199 54.9014 31.0489C54.8263 31.006 53.0674 29.9442 51.4265 31.6709C51.3192 31.7782 51.1798 31.8425 51.0404 31.8425Z"   fill="#000000" >
</path>
<path d="M62.5698 32.2501C62.4411 32.2501 62.3017 32.1964 62.2052 32.0999C61.079 31.0274 59.7277 31.6173 59.674 31.6387C59.4059 31.7567 59.0842 31.6387 58.9662 31.3706C58.8482 31.1025 58.9662 30.7915 59.2236 30.6628C59.3094 30.6199 61.2721 29.7404 62.9452 31.317C63.1597 31.5208 63.1704 31.864 62.9666 32.0785C62.8594 32.1857 62.72 32.2501 62.5698 32.2501Z"   fill="#000000" >
</path>
<path d="M59.6204 42.9644C59.556 42.9644 59.4809 42.9537 59.4166 42.9215C59.1377 42.8142 59.009 42.4925 59.127 42.2244C60.6607 38.4384 58.0223 37.0656 57.9151 37.0013C57.647 36.8726 57.5397 36.5508 57.6791 36.2827C57.8078 36.0146 58.1296 35.9073 58.3977 36.036C58.4299 36.0575 62.0549 37.8915 60.1352 42.6212C60.0494 42.825 59.8456 42.9537 59.6418 42.9537L59.6204 42.9644Z"   fill="#000000" >
</path>
<path d="M62.0335 37.7413C61.7761 37.7413 61.5616 37.559 61.508 37.3016L60.9932 34.6203C60.9395 34.3307 61.1326 34.0519 61.4222 33.9983C61.7225 33.9446 61.9906 34.1377 62.0442 34.4273L62.559 37.1085C62.6126 37.3981 62.4196 37.6769 62.13 37.7306C62.0978 37.7306 62.0657 37.7306 62.0335 37.7413Z"   fill="#000000" >
</path>
<path d="M53.4535 37.2694C53.1961 37.2694 52.9816 37.0871 52.928 36.8297L52.4132 34.1484C52.3596 33.8589 52.5526 33.58 52.8422 33.5157C53.1425 33.462 53.4106 33.6551 53.475 33.9447L53.9898 36.6259C54.0434 36.9155 53.8504 37.1943 53.5608 37.2587C53.5286 37.2587 53.4964 37.2587 53.4643 37.2587L53.4535 37.2694Z"   fill="#000000" >
</path>
<path d="M56.285 47.2758C56.0383 47.2758 53.1211 47.2115 52.0808 44.4873C51.9735 44.2085 52.1129 43.8974 52.3918 43.7902C52.6706 43.6829 52.9817 43.8224 53.0889 44.1012C53.8826 46.1819 56.1992 46.1819 56.2957 46.2033C56.596 46.2033 56.8319 46.4393 56.8319 46.7396C56.8319 47.0399 56.596 47.2758 56.3064 47.2758L56.2957 47.2758L56.285 47.2758Z"   fill="#000000" >
</path>
<path d="M42.8679 37.205C42.8679 37.205 47.3938 36.4221 49.0669 32.722C50.74 29.0218 50.4933 25.6971 50.4933 25.6971C50.4933 25.6971 52.7778 28.196 56.7353 27.7777C60.6928 27.3595 61.7868 23.2947 61.7868 23.2947L58.1617 19.0369C58.1617 19.0369 43.254 22.1793 42.8786 21.7181C42.5032 21.2569 37.0871 30.9309 37.0871 30.9309L42.8786 37.2158L42.8679 37.205Z" fill-rule="evenodd"  fill="#E56445" >
</path>
<path d="M72.544 94.6375C65.7765 98.0695 58.1081 100 50 100C47.233 100 44.5195 99.7748 41.8704 99.335C39.9721 99.0347 38.1167 98.6165 36.2934 98.1017C30.2553 96.3857 24.689 93.565 19.8198 89.8756C21.9112 77.145 24.1206 66.6023 25.8366 65.4333C26.2227 65.1759 26.6409 64.9292 27.0807 64.7147C29.3758 63.5886 32.2394 63.0309 34.6311 62.752C34.7919 62.7306 34.9421 62.7091 35.103 62.6984C35.3496 62.6662 35.5963 62.6448 35.8323 62.6233C36.0575 62.6019 36.2934 62.5911 36.5079 62.5697C36.8297 62.5482 37.1407 62.5268 37.4196 62.5161C38.6422 62.4517 39.4251 62.4625 39.4251 62.4625C39.4251 62.4625 39.4251 62.441 39.4359 62.3874C39.4895 61.6795 39.9721 56.1454 41.4736 56.2634C43.0716 56.4028 46.9434 59.0626 51.0403 59.3951C55.1373 59.7276 57.3359 59.3629 58.151 59.3629C58.9661 59.3629 59.1484 63.7495 59.1484 63.7495C59.1484 63.7495 64.6396 65.6156 68.5435 69.4981C68.5972 69.5302 68.6293 69.5731 68.6615 69.616C68.8438 69.8198 69.2943 70.3024 69.9485 71.0639C70.4419 71.686 70.8709 72.3402 71.2355 73.048C72.3831 75.2788 72.662 84.1377 72.544 94.6375Z"   fill="#46467F" >
</path>
<path d="M48.1017 64.8219C44.3051 64.8219 39.4681 63.0523 39.2321 62.9665C38.9533 62.8593 38.8138 62.559 38.9104 62.2801C39.0176 62.0013 39.3179 61.8618 39.5968 61.9584C39.6611 61.9798 46.2785 64.3929 49.7748 63.5778C50.0644 63.5135 50.354 63.6851 50.4183 63.9747C50.4827 64.2642 50.3111 64.5538 50.0215 64.6182C49.4423 64.7576 48.7881 64.8112 48.1017 64.8219Z"   fill="#FFBF69" >
</path>
<path d="M37.0764 43.329C36.8833 43.329 36.701 43.2218 36.6045 43.0502C36.4651 42.7928 36.5616 42.4603 36.8297 42.3209L39.704 40.7872C39.9614 40.6478 40.2939 40.7443 40.4333 41.0124C40.5727 41.2698 40.4762 41.6023 40.2081 41.7417L37.3338 43.2754C37.248 43.3183 37.1622 43.3397 37.0764 43.329Z"   fill="#000000" >
</path>
<path d="M49.8713 34.0841L55.7271 34.0841C56.2634 34.0841 56.6924 34.5131 56.6924 35.0494L56.6924 37.6984C56.6924 39.1463 55.5234 40.3153 54.0755 40.3153L51.5229 40.3153C50.0751 40.3153 48.906 39.1463 48.906 37.6984L48.906 35.0494C48.906 34.5131 49.335 34.0841 49.8713 34.0841Z"   fill="#000000" >
</path>
<path d="M60.8108 34.2235L66.6667 34.2235C67.2029 34.2235 67.6319 34.6525 67.6319 35.1888L67.6319 37.8378C67.6319 39.2857 66.4629 40.4547 65.015 40.4547L62.4625 40.4547C61.0146 40.4547 59.8456 39.2857 59.8456 37.8378L59.8456 35.1888C59.8456 34.6525 60.2746 34.2235 60.8108 34.2235Z"   fill="#000000" >
</path>
<path d="M56.6924 38.2347C56.553 38.2347 56.4136 38.181 56.3063 38.0738C56.1026 37.8593 56.1026 37.5268 56.3063 37.323C56.3814 37.248 58.1296 35.5534 61.1111 36.2076C61.4007 36.272 61.583 36.5616 61.5187 36.8511C61.4543 37.1407 61.1648 37.323 60.8752 37.2587C58.4835 36.7332 57.1107 38.0309 57.0571 38.0845C56.9498 38.181 56.8211 38.2347 56.6924 38.2347Z"   fill="#000000" >
</path>
<path d="M39.4252 35.9717C39.1785 35.9717 38.9533 35.8001 38.8997 35.5534C38.8353 35.2638 39.0176 34.9743 39.3072 34.9099C45.9031 33.4299 49.925 34.8241 50.0858 34.8885C50.3647 34.985 50.5041 35.296 50.4076 35.5749C50.3111 35.8537 50 36.0039 49.7212 35.8966C49.6783 35.8859 45.7958 34.5453 39.5324 35.961C39.4895 35.961 39.4574 35.9717 39.4145 35.9717L39.4252 35.9717Z" fill-rule="evenodd"  fill="#000000" >
</path>
</svg>
