<svg xmlns="http://www.w3.org/2000/svg" xmlns:xlink="http://www.w3.org/1999/xlink" width="100.00001525878906" height="100.00384521484375" viewBox="0 0 100.00001525878906 100.00384521484375" fill="none">
<path d="M100 50.0054C100 57.5978 98.3057 64.7828 95.2815 71.2279C94.1341 73.6836 92.7829 76.0322 91.2494 78.252C89.7588 80.4397 88.0965 82.4879 86.2735 84.4075C81.2762 89.6836 75.1314 93.8659 68.2467 96.5576C68.0107 96.6541 67.7856 96.7399 67.5603 96.8257C62.0912 98.8847 56.1823 100 50.0054 100C49.2225 100 48.4397 99.9785 47.6676 99.9464C38.3914 99.5174 29.7694 96.5684 22.4879 91.7533C21.3405 91.0027 20.2359 90.2091 19.1635 89.3619C15.0992 86.1769 11.5389 82.37 8.62199 78.0804C8.56837 78.0054 8.51475 77.9303 8.46113 77.8445C3.12064 69.8981 0 60.3217 0 50.0054C0 22.3914 22.3914 0 50.0054 0C77.6193 0 100 22.3914 100 50.0054Z"   fill="#F2E5DF" >
</path>
<path d="M41.33 24.4076C41.33 24.4076 48.2576 10.4022 59.9573 17.1475C71.6571 23.8928 61.8554 37.555 79.5498 41.169C88.7616 43.0457 94.5203 50.6596 92.1504 59.5926C89.8447 68.2789 79.582 68.6971 79.582 68.6971C79.582 68.6971 68.3756 84.7829 55.5713 80.043C42.767 75.2923 36.8152 67.7534 37.8769 55.6569C38.9386 43.5604 41.33 24.4076 41.33 24.4076Z"   fill="#E56445" >
</path>
<path d="M28.858 36.7508C28.858 36.7508 21.4156 26.1878 36.0751 17.5872C50.7346 8.98668 61.6623 20.354 61.866 26.5416C62.0698 32.7293 58.5952 35.6462 58.5952 35.6462C58.5952 35.6462 60.1609 49.0403 47.2601 48.3004C34.3593 47.5604 28.8687 36.7508 28.8687 36.7508L28.858 36.7508Z"   fill="#E56445" >
</path>
<path d="M48.4505 46.134L48.8688 56.9651C48.8688 56.9651 47.035 60.1501 40.7186 60.9222C36.0108 61.4906 34.3165 60.4826 34.3165 60.4826L34.7561 54.9705L35.1958 49.5978L46.5417 46.6381L48.4398 46.134L48.4505 46.134Z"   fill="#FCA397" >
</path>
<path d="M48.4077 45.6194C48.397 45.9197 48.2898 46.2735 48.1289 46.681C45.9198 52.1824 37.4694 54.6274 34.7563 54.9813L35.1959 49.6087L48.4077 45.6301L48.4077 45.6194Z" fill-rule="evenodd"  fill="#000000" >
</path>
<path d="M31.8288 24.9974C31.8288 24.9974 26.6706 38.799 29.2122 46.2628C31.7537 53.7266 38.5848 52.1502 42.6277 50.4665C46.6813 48.7722 48.4508 46.1448 48.4508 46.1448C48.4508 46.1448 52.3757 47.2387 54.7671 43.5175C57.1585 39.7963 55.3355 35.7534 53.0835 34.9384C50.8315 34.1234 48.3006 35.8499 48.3006 35.8499L50.1344 31.8178C50.1344 31.8178 40.4186 12.3754 31.8288 25.0188L31.8288 24.9974Z"   fill="#FCA397" >
</path>
<path d="M33.1263 41.48C32.869 41.48 32.6438 41.2977 32.6009 41.0403C31.7751 36.4398 33.5553 33.9625 33.6304 33.8553C33.8019 33.6194 34.1451 33.5658 34.381 33.7373C34.617 33.9089 34.6706 34.2414 34.499 34.488C34.4883 34.5095 32.9226 36.7293 33.6625 40.8473C33.7161 41.1368 33.5231 41.4156 33.2336 41.4692C33.2014 41.4692 33.1692 41.4692 33.1371 41.4692L33.1263 41.48Z"   fill="#000000" >
</path>
<path d="M48.6652 41.4156C48.4722 41.4156 48.2899 41.3191 48.1934 41.1368C48.0539 40.8794 48.1505 40.547 48.4078 40.4076L53.6518 37.5229C53.9092 37.3834 54.2309 37.48 54.381 37.7373C54.5204 37.9947 54.4239 38.3271 54.1665 38.4666L48.9226 41.3513C48.8368 41.3942 48.751 41.4156 48.6652 41.4156Z"   fill="#000000" >
</path>
<path d="M53.5981 42.295C53.4801 42.295 53.3514 42.2521 53.2549 42.1663L50.6812 39.9893C50.456 39.7963 50.4238 39.4639 50.6168 39.2279C50.8099 39.0027 51.153 38.9813 51.3782 39.1636L53.952 41.3405C54.1772 41.5336 54.2093 41.866 54.0163 42.1019C53.9091 42.2306 53.7589 42.295 53.5981 42.295Z"   fill="#000000" >
</path>
<path d="M28.8581 36.7507C28.8581 36.7507 29.6409 32.5684 33.5766 27.7641L37.5122 22.9598C37.5122 22.9598 37.6838 31.4746 41.7482 34.8419C45.8232 38.2092 48.3112 35.8285 48.3112 35.8285L55.0887 28.9116L41.2656 17.9947C41.2656 17.9947 26.7777 18.5416 28.8581 36.7507Z"   fill="#E56445" >
</path>
<path d="M67.5606 96.8257C62.0915 98.8847 56.1826 100 50.0057 100C49.2228 100 48.44 99.9786 47.6679 99.9464C38.3917 99.5174 29.7697 96.5684 22.4882 91.7534C21.3408 91.0027 20.2362 90.2091 19.1638 89.3619C18.6812 87.0778 18.2416 84.1501 18.0485 80.5469C17.7697 75.5389 19.4105 70.6381 21.2228 66.8633C22.7563 63.6461 25.3408 61.1046 28.5043 59.6032C29.5874 59.0778 30.7349 58.681 31.9359 58.4236L35.0995 57.7373C35.0995 57.7373 58.2952 55.7105 62.5097 57.63C62.5097 57.63 62.5311 57.6408 62.5633 57.6515C62.9386 57.8338 63.1424 58.0483 63.1638 58.2949C63.3783 60.9973 65.7376 81.3512 67.5606 96.8257Z"   fill="#FCB35B" >
</path>
<path d="M91.2495 78.252C89.7588 80.4397 88.0966 82.4879 86.2736 84.4075C81.2763 89.6836 75.1315 93.8659 68.2468 96.5576C68.0108 96.6541 67.7856 96.7399 67.5604 96.8257C62.0913 98.8847 56.1824 100 50.0055 100C49.2226 100 48.4398 99.9785 47.6677 99.9464L47.3996 98.4986L62.5095 57.63C62.5095 57.63 62.5309 57.6407 62.5631 57.6515C63.5497 58.0268 83.539 61.6407 91.2495 78.252Z"   fill="#FCB35B" >
</path>
<path d="M34.5847 57.1261L30.5096 58.7347C30.5096 58.7347 29.7268 66.8419 39.3353 66.606C49.4265 66.3593 56.7295 56.858 56.7295 56.858L47.8394 56.118L34.5847 57.1261Z"   fill="#FCA397" >
</path>
<path d="M38.8848 67.1421C35.9894 67.1421 33.7374 66.3593 32.1824 64.8043C29.7159 62.3271 29.9626 58.8419 29.9733 58.6917C29.9948 58.3915 30.2521 58.177 30.5524 58.1984C30.8527 58.2199 31.0672 58.4773 31.0457 58.7775C31.0457 58.8097 30.8312 61.9304 32.9546 64.0537C34.5202 65.6086 36.9438 66.2735 40.1932 66.0161C50.2307 65.2333 56.2253 56.6328 56.2897 56.547C56.4613 56.3003 56.7937 56.2467 57.0404 56.4076C57.287 56.5791 57.3513 56.9116 57.1798 57.1582C56.9224 57.5336 50.842 66.2735 40.2897 67.0993C39.8071 67.1421 39.346 67.1529 38.8956 67.1529L38.8848 67.1421Z"   fill="#FFFFFF" >
</path>
<path d="M65.7914 97.7373C65.5233 97.7373 65.2981 97.5443 65.2659 97.2762L64.5367 91.8285C64.4938 91.539 64.7082 91.2601 64.9978 91.228C65.2766 91.1743 65.5662 91.3888 65.5983 91.6891L66.3275 97.1368C66.3704 97.4264 66.156 97.7052 65.8664 97.7373C65.845 97.7373 65.8235 97.7373 65.7914 97.7373Z"   fill="#FFFFFF" >
</path>
<path d="M36.5471 45.3298C36.3219 45.3298 36.1181 45.1904 36.043 44.9759C35.9465 44.6971 36.0859 44.3968 36.3648 44.2896C36.3755 44.2896 37.7052 43.7855 38.5417 42.3271C38.6918 42.0697 39.0135 41.9839 39.2709 42.1341C39.5283 42.2842 39.6141 42.6059 39.464 42.8633C38.4237 44.6756 36.7937 45.2761 36.7294 45.2976C36.665 45.319 36.6114 45.3298 36.5471 45.3298Z"   fill="#000000" >
</path>
<path d="M61.6732 29.9196C61.3622 29.9196 61.137 29.673 61.137 29.3727C61.3407 18.8419 52.6651 15.6569 52.3005 15.5282C52.0217 15.4317 51.8716 15.1207 51.9681 14.8419C52.0646 14.5631 52.3756 14.4129 52.6544 14.5094C52.7509 14.5416 62.4239 18.059 62.2094 29.3942C62.2094 29.6837 61.9627 29.9196 61.6732 29.9196Z"   fill="#FCB35B" >
</path>
<path d="M28.5043 59.5925L25.9413 91.0671L22.4882 91.7534C21.3407 91.0027 20.2362 90.2091 19.1638 89.362C15.0994 86.177 11.5391 82.37 8.62222 78.0805C8.5686 78.0054 8.51498 77.9303 8.46136 77.8445C10.9493 74.6059 14.7563 69.9839 18.6169 66.6059C25.5874 60.5041 28.5043 59.5925 28.5043 59.5925Z"   fill="#FCB35B" >
</path>
<path d="M18.9171 88.7936C18.6704 88.7936 18.4559 88.622 18.3916 88.3754C14.8206 72.622 22.531 64.6649 22.8635 64.3325C23.0672 64.118 23.4104 64.118 23.6249 64.3325C23.8393 64.5362 23.8393 64.8794 23.6249 65.0939C23.5498 65.169 16.0002 73.0081 19.4318 88.1502C19.4962 88.4397 19.3139 88.7293 19.0243 88.7936C18.9814 88.7936 18.9492 88.8043 18.9064 88.8043L18.9171 88.7936Z"   fill="#FFFFFF" >
</path>
<path d="M30.2201 30.7132C29.9734 30.7132 29.7589 30.5416 29.6946 30.2949C29.6302 30.0054 29.8125 29.7158 30.1021 29.6515L32.708 29.0617C32.9975 28.9866 33.2871 29.1796 33.3514 29.4692C33.4158 29.7587 33.2335 30.0483 32.9439 30.1126L30.338 30.7024C30.338 30.7024 30.263 30.7132 30.2201 30.7132Z"   fill="#000000" >
</path>
<path d="M40.1288 31.0456C40.0752 31.0456 40.0108 31.0456 39.9572 31.0134L36.8044 29.9625C36.5256 29.866 36.3754 29.5657 36.4612 29.2869C36.5577 29.0081 36.858 28.8472 37.1368 28.9437L40.2896 29.9947C40.5685 30.0912 40.7186 30.3915 40.6328 30.6703C40.5577 30.8955 40.354 31.0349 40.1288 31.0456Z"   fill="#000000" >
</path>
<path d="M31.1208 35.8178C31.1208 35.8178 31.0565 35.8178 31.0243 35.8178C30.7347 35.7642 30.5417 35.4853 30.5953 35.1958L30.9492 33.2441L30.2736 32.4505C30.0806 32.2253 30.102 31.8928 30.3272 31.6891C30.5524 31.4961 30.8849 31.5282 31.0779 31.7427L31.9251 32.7293C32.0323 32.8473 32.0752 33.0189 32.0431 33.1797L31.6356 35.3888C31.5927 35.6462 31.3675 35.8285 31.1101 35.8285L31.1208 35.8178Z"   fill="#000000" >
</path>
<path d="M38.3489 36.043C38.3489 36.043 38.2846 36.043 38.2524 36.043C37.9628 35.9893 37.7698 35.7105 37.8234 35.421L38.1773 33.5014L37.3945 32.7615C37.18 32.5577 37.1693 32.2145 37.373 32.0001C37.5768 31.7856 37.9199 31.7749 38.1344 31.9786L39.121 32.9116C39.2497 33.0403 39.314 33.2226 39.2819 33.3942L38.8744 35.6033C38.8315 35.8607 38.6063 36.043 38.3489 36.043Z"   fill="#000000" >
</path>
</svg>
