<svg xmlns="http://www.w3.org/2000/svg" xmlns:xlink="http://www.w3.org/1999/xlink" width="100" height="100.00006103515625" viewBox="0 0 100 100.00006103515625" fill="none">
<path d="M100 49.9946C100 59.9056 97.1153 69.1516 92.1394 76.9173C91.0778 78.5798 89.9196 80.178 88.6649 81.7012C88.5255 81.8835 88.3861 82.0551 88.2359 82.2267C87.3137 83.3208 86.3378 84.3827 85.3298 85.391C83.6998 87.0213 81.9518 88.5445 80.0965 89.9281C80.0429 89.971 79.9893 90.0032 79.9357 90.0461C79.5496 90.3465 79.1528 90.6253 78.7561 90.9042C78.2842 91.2474 77.8016 91.5692 77.3083 91.891C77.2011 91.9661 77.0938 92.0305 76.9759 92.0948C75.6247 92.9744 74.2199 93.7895 72.7721 94.5189C72.4397 94.6905 72.1073 94.8622 71.7641 95.0231C70.2091 95.7739 68.6113 96.4496 66.9812 97.0396C64.815 97.8226 62.5845 98.4662 60.2896 98.9381C56.9652 99.6353 53.5335 100 50.0054 100C49.3083 100 48.6005 99.9893 47.9035 99.9571C47.0992 99.9249 46.3056 99.8713 45.5121 99.7962C45.4585 99.7962 45.4156 99.7962 45.3619 99.7962C43.8713 99.6568 42.3914 99.453 40.9437 99.1741C40.1072 99.0239 39.2815 98.8523 38.4665 98.6592C36.0858 98.1015 33.7802 97.3721 31.5496 96.4711C29.6086 95.7095 27.7319 94.8193 25.9089 93.811C25.866 93.7895 25.8338 93.7681 25.7909 93.7466C25.5764 93.6287 25.3619 93.5107 25.1582 93.382C24.504 93.0173 23.8499 92.6311 23.2172 92.2235C22.6274 91.8588 22.059 91.4727 21.4906 91.0758C20.4719 90.3786 19.4745 89.6278 18.5094 88.8341C18.3914 88.7483 18.2842 88.6624 18.1662 88.5659C16.8043 87.4289 15.496 86.2276 14.252 84.9619C13.8981 84.608 13.555 84.2433 13.2225 83.8786C12.429 83.0312 11.6676 82.1409 10.9598 81.2399C10.7989 81.0469 10.6488 80.8645 10.4987 80.6715C10.4772 80.65 10.4665 80.6285 10.4558 80.6071C9.6193 79.5345 8.83646 78.4297 8.09652 77.2927C2.98123 69.4412 0 60.0772 0 50.0054C0 22.3855 22.3914 0 50.0054 0C77.6193 0 100 22.3855 100 49.9946Z"   fill="#F2E5DF" >
</path>
<path d="M72.4074 60.4955C72.4074 60.4955 71.4959 11.0586 54.0052 9.26738C36.5146 7.47611 34.4449 19.779 34.4449 19.779C34.4449 19.779 30.091 21.3343 29.2009 27.9845C28.3216 34.6348 27.9034 61.1498 27.9034 61.1498L67.3886 63.413L72.3967 60.5062L72.4074 60.4955Z"   fill="#000000" >
</path>
<path d="M90.6379 78.6442C90.0159 79.6847 89.3618 80.7036 88.6647 81.7012C88.5253 81.8835 88.3859 82.0551 88.2358 82.2268C87.3135 83.3208 86.3377 84.3827 85.3296 85.391C83.6996 87.0213 81.9516 88.5445 80.0964 89.9281C79.1956 90.6146 78.2626 91.2689 77.3082 91.891C77.2009 91.9661 77.0937 92.0305 76.9757 92.0948C75.6245 92.9744 74.2197 93.7896 72.772 94.5189C72.4395 94.6906 72.1071 94.8622 71.7639 95.0231C70.209 95.7739 68.6111 96.4496 66.9811 97.0396C64.8149 97.8226 62.5843 98.4662 60.2894 98.9381C56.965 99.6353 53.5334 100 50.0052 100C49.3082 100 48.6004 99.9893 47.9033 99.9571C47.099 99.9249 46.3055 99.8713 45.5119 99.7962C45.4583 99.7962 45.4154 99.7962 45.3618 99.7962C43.8712 99.6568 42.3913 99.453 40.9435 99.1741C40.1071 99.0239 39.2813 98.8523 38.4663 98.6592C36.0856 98.1015 33.78 97.3721 31.5494 96.4711C29.6084 95.7095 27.7317 94.8193 25.9087 93.811C25.8658 93.7896 25.8336 93.7681 25.7907 93.7467C25.5762 93.6287 25.3618 93.5107 25.158 93.382C24.5038 93.0173 23.8497 92.6311 23.217 92.2235C19.8711 79.0089 18.5307 67.0278 22.6701 62.1688C22.8738 61.9007 23.1205 61.654 23.3778 61.4287C24.3537 60.5921 25.3939 59.8305 26.477 59.1119C26.5199 59.0904 26.5521 59.069 26.5843 59.0475C28.3859 57.8784 30.3269 56.8701 32.3644 56.012C32.3859 55.9906 32.4181 55.9798 32.4288 55.9798C45.5548 50.5095 62.4771 51.4212 71.6996 55.2719C77.6299 57.7497 84.9328 68.6367 90.6379 78.6442Z"   fill="#7772D3" >
</path>
<path d="M41.9088 42.7866L41.9088 54.9286C41.9088 54.9286 44.0965 58.4146 51.1957 58.9939C56.4825 59.4229 58.1662 56.7092 58.1662 56.7092L56.8901 46.0796L44.0643 43.2586L41.9088 42.7866Z"   fill="#FCA397" >
</path>
<path d="M41.9301 42.0466C41.9623 42.3791 42.091 42.7652 42.284 43.2157C44.9971 49.2867 54.5628 51.8074 57.6191 52.0755L56.8899 46.0796L41.9301 42.0466Z"   fill="#000000" >
</path>
<path d="M80.493 85.0692L79.9354 90.0461C79.5493 90.3465 79.1525 90.6253 78.7557 90.9042L79.4313 84.9512C80.2678 77.4643 76.5466 68.1862 76.5037 68.0897C76.3965 67.8108 76.5252 67.4997 76.804 67.3925C77.0828 67.2745 77.3831 67.4139 77.501 67.6821C77.6512 68.0789 81.3616 77.3142 80.493 85.0692Z"   fill="#FFFFFF" >
</path>
<path d="M59.5923 18.4061C59.5923 18.4061 65.9623 33.6265 63.4529 42.0895C60.9435 50.5524 53.2223 49.0937 48.6218 47.3775C44.0213 45.6613 41.9087 42.7867 41.9087 42.7867C41.9087 42.7867 37.5655 44.1811 34.7344 40.1159C31.9033 36.0506 33.7585 31.4598 36.2465 30.4301C38.7344 29.4111 41.6406 31.2346 41.6406 31.2346L39.41 26.8047C39.41 26.8047 49.4368 4.62299 59.6031 18.3954L59.5923 18.4061Z"   fill="#FCA397" >
</path>
<path d="M58.6056 37.6596C58.552 37.6596 58.4877 37.6596 58.4341 37.6274C58.1552 37.5309 58.0051 37.2305 58.0909 36.9516C59.0024 34.2165 57.0078 31.181 56.9863 31.1488C56.8255 30.9021 56.8898 30.5696 57.1365 30.4087C57.3831 30.2478 57.7156 30.3122 57.8764 30.5589C57.9729 30.6983 60.1928 34.0663 59.1097 37.2949C59.0346 37.5201 58.8201 37.6596 58.6056 37.6596Z"   fill="#000000" >
</path>
<path d="M40.847 38.3782C40.6969 38.3782 40.5575 38.3138 40.4503 38.2065L36.4395 33.7659C36.2358 33.5407 36.2572 33.2082 36.4824 33.0044C36.7076 32.8006 37.0401 32.822 37.2438 33.0473L41.2546 37.4879C41.4583 37.7024 41.4369 38.0457 41.2117 38.2495C41.1044 38.346 40.9757 38.3889 40.847 38.3782Z"   fill="#000000" >
</path>
<path d="M36.5254 37.1125C36.2573 37.1125 36.0321 36.9194 35.9892 36.6406C35.9463 36.351 36.1608 36.0828 36.4503 36.0399L39.3029 35.6752C39.5924 35.643 39.8605 35.8468 39.9034 36.1364C39.9463 36.426 39.7318 36.6942 39.4423 36.7371L36.5897 37.1018C36.5897 37.1018 36.5468 37.1018 36.5254 37.1125Z"   fill="#000000" >
</path>
<path d="M61.8335 25.3566C61.8335 25.3566 61.7585 25.3566 61.7263 25.3566L59.0561 24.8203C58.7665 24.7667 58.5735 24.4771 58.6378 24.1875C58.6914 23.8979 58.981 23.7048 59.2705 23.7692L61.9408 24.3055C62.2303 24.3591 62.4234 24.6487 62.359 24.9383C62.3054 25.1958 62.0802 25.3674 61.8335 25.3566Z"   fill="#000000" >
</path>
<path d="M50.6273 26.8368C50.4236 26.8368 50.2306 26.7188 50.1448 26.5258C50.0161 26.2576 50.1341 25.9358 50.4021 25.8071L53.9839 24.1017C54.252 23.973 54.5737 24.0909 54.7024 24.3591C54.8311 24.6272 54.7131 24.949 54.445 25.0777L50.8633 26.7832C50.7882 26.8154 50.7131 26.8368 50.6381 26.8368L50.6273 26.8368Z"   fill="#000000" >
</path>
<path d="M60.6005 31.5564C60.3646 31.5564 60.1501 31.4062 60.0858 31.1595L59.3137 28.4136C59.2708 28.242 59.3137 28.0596 59.4209 27.9202L60.2788 26.9119C60.4719 26.6867 60.815 26.6652 61.0295 26.8583C61.2547 27.0514 61.2761 27.3946 61.0831 27.6199L60.4075 28.4029L61.0938 30.8806C61.1689 31.1702 61.008 31.4598 60.7185 31.5456C60.6756 31.5564 60.622 31.5671 60.5791 31.5671L60.6005 31.5564Z"   fill="#000000" >
</path>
<path d="M51.8711 32.1034C51.6352 32.1034 51.4207 31.9532 51.3564 31.7065L50.5843 28.9606C50.5307 28.789 50.5843 28.5959 50.7022 28.4565L51.8926 27.1372C52.0856 26.9226 52.4288 26.9012 52.654 27.0943C52.8792 27.2981 52.8899 27.6306 52.6969 27.8558L51.6996 28.9606L52.3859 31.4276C52.461 31.7172 52.3001 32.0068 52.0106 32.0927C51.9677 32.1034 51.914 32.1141 51.8711 32.1141L51.8711 32.1034Z"   fill="#000000" >
</path>
<path d="M63.957 23.8121C63.957 23.8121 59.7639 22.9755 56.8256 23.0827L53.8873 23.19L52.6969 18.4598L52.6969 23.619C52.6969 23.619 50.6379 23.973 48.5789 25.0456C46.52 26.1182 45.158 27.4483 45.158 27.4483L43.2063 23.4689L44.032 28.478L41.6513 31.2346L38.0588 27.8666L40.3645 20.8839C40.3645 20.8839 45.7907 13.3005 46.209 13.2147C46.6272 13.1289 54.4556 12.6891 54.4556 12.6891C54.4556 12.6891 61.1902 15.3277 61.3511 15.5422C61.5119 15.7675 63.9784 23.8014 63.9784 23.8014L63.957 23.8121Z"   fill="#000000" >
</path>
<path d="M52.1499 59.1548C49.0615 59.1548 45.2223 58.3181 41.1043 55.4757C40.8577 55.3041 40.8041 54.9716 40.9649 54.7249C41.1365 54.4782 41.469 54.4245 41.7156 54.5854C51.0025 60.9997 58.4663 56.7629 58.788 56.5805C59.0454 56.4303 59.3671 56.5162 59.5172 56.7736C59.6674 57.031 59.5816 57.3528 59.3242 57.503C59.2813 57.5351 56.4502 59.1548 52.1499 59.1548Z"   fill="#FFFFFF" >
</path>
<path d="M45.3619 99.7855C43.8713 99.646 42.3914 99.4422 40.9437 99.1634C40.1072 99.0132 39.2815 98.8416 38.4665 98.6485C36.0858 98.0908 33.7802 97.3614 31.5496 96.4604C29.6086 95.6988 27.7319 94.8085 25.9088 93.8003C25.8659 93.7788 25.8338 93.7574 25.7909 93.7359C25.5764 93.6179 25.3619 93.5 25.1582 93.3712C24.504 93.0066 23.8499 92.6204 23.2171 92.2128C22.6273 91.8481 22.059 91.462 21.4906 91.0651C20.4718 90.3679 19.4745 89.6171 18.5094 88.8233C18.3914 88.7375 18.2842 88.6517 18.1662 88.5552C16.8043 87.4182 15.496 86.2169 14.252 84.9512C13.8981 84.5972 13.5549 84.2326 13.2225 83.8679C12.4289 83.0205 11.6675 82.1302 10.9598 81.2292C10.7989 81.0362 10.6488 80.8538 10.4986 80.6607C10.4772 80.6393 10.4665 80.6178 10.4557 80.5964C13.9839 71.6937 18.5952 65.8801 22.6702 62.1581C24.0214 60.9139 25.3083 59.9163 26.4772 59.1012C26.5201 59.0797 26.5523 59.0583 26.5844 59.0368C29.63 56.9452 31.8928 56.1407 32.3646 56.0013C32.386 55.9798 32.4182 55.9691 32.4289 55.9691C32.4504 55.9691 45.3619 99.7855 45.3619 99.7855Z"   fill="#7772D3" >
</path>
<path   fill-rule="evenodd"  fill="#000000"  d="M57.0294 42.2933C55.7854 42.2933 54.209 41.0061 53.8551 40.7058C53.6835 40.5556 53.6192 40.3197 53.705 40.1051C53.7908 39.8906 53.9945 39.7619 54.2197 39.7619L59.1741 39.8477C59.3886 39.8477 59.5817 39.9764 59.6567 40.1802C59.7425 40.3733 59.6996 40.6093 59.5495 40.7594C59.5173 40.7916 58.7666 41.5639 57.6943 42.1324C57.4905 42.2396 57.2653 42.2826 57.0294 42.2933ZM55.9677 40.8667C56.5039 41.1563 56.965 41.3065 57.1795 41.1885C57.3511 41.0919 57.5227 40.9954 57.6728 40.8881L55.9677 40.856L55.9677 40.8667Z">
</path>
<path d="M41.9086 42.5506C41.9086 43.9558 40.7719 45.0927 39.3671 45.0927C37.9623 45.0927 36.8255 43.9558 36.8255 42.5506C36.8255 41.1455 37.9623 40.0085 39.3671 40.0085C40.7719 40.0085 41.9086 41.1455 41.9086 42.5506Z"   fill="#FFFFFF" >
</path>
</svg>
