<svg xmlns="http://www.w3.org/2000/svg" xmlns:xlink="http://www.w3.org/1999/xlink" width="100" height="100" viewBox="0 0 100 100" fill="none">
<path d="M100 50C100 59.127 97.5547 67.6855 93.2754 75.0536C93.1146 75.3325 92.943 75.6113 92.7714 75.8902C92.3745 76.5551 91.9563 77.2201 91.5165 77.8636C91.3342 78.1317 91.1519 78.3998 90.9481 78.668C90.7122 79.0112 90.4655 79.3544 90.2081 79.6868C88.535 81.982 86.6474 84.1163 84.5989 86.0789C81.3492 89.2106 77.6598 91.9026 73.6487 94.0583C70.4633 95.7636 67.085 97.1471 63.535 98.1446C63.299 98.2089 63.0524 98.2733 62.8164 98.3376C58.7302 99.4209 54.4294 100 50 100C46.4393 100 42.9751 99.6246 39.6289 98.9168C37.5912 98.4985 35.5963 97.9408 33.6551 97.2651C26.598 94.8305 20.2488 90.8516 15.0257 85.7143C12.6019 83.3548 10.4247 80.7272 8.52639 77.9065C7.67911 76.6731 6.89618 75.3861 6.17761 74.0777C2.24153 66.9348 0 58.7302 0 50C0 22.3831 22.3831 0 50 0C77.6169 0 100 22.3831 100 50Z"   fill="#F2E5DF" >
</path>
<path d="M47.5225 23.6808C47.5225 23.6808 29.3651 8.96613 13.3634 37.5483C-2.63836 66.1411 13.3312 84.1055 33.6765 76.3192C54.0219 68.5328 48.6486 32.0249 48.6486 32.0249L47.5225 23.6808Z"   fill="#000000" >
</path>
<path d="M68.329 33.0223C68.329 33.0223 71.5894 25.4182 70.9674 22.0828C70.3454 18.7473 57.1214 8.9339 46.0532 14.2642C34.9743 19.5946 34.4058 34.2449 36.9906 40.2724C43.6508 55.7915 57.0034 48.4556 57.0034 48.4556C57.0034 48.4556 78.3462 41.6666 68.3398 33.0223L68.329 33.0223Z"   fill="#000000" >
</path>
<path d="M84.5989 86.0789C81.3492 89.2106 77.6598 91.9026 73.6486 94.0583C70.4633 95.7636 67.0849 97.1471 63.5349 98.1445C63.299 98.2089 63.0523 98.2732 62.8164 98.3376C58.7301 99.4208 54.4294 100 50 100C46.4393 100 42.9751 99.6246 39.6289 98.9167C37.5911 98.4985 35.5963 97.9408 33.6551 97.2651C34.3844 80.223 35.5212 63.2453 37.3016 61.3041C37.6019 60.9716 38.0309 60.6392 38.5671 60.3067C38.6851 60.2423 38.7494 60.2102 38.7494 60.2102C43.7044 57.3359 57.1536 55.03 68.3612 58.6336C71.2677 59.5667 73.9811 60.8751 76.3621 62.6555C80.6842 65.8837 83.3977 75.3217 84.5989 86.0789Z"   fill="#FCB35B" >
</path>
<path d="M66.6025 50.6864L66.6025 50.9867L66.6668 56.6924L66.7205 61.1647C66.7205 61.1647 67.1602 62.1836 61.9371 62.13C54.9444 62.0227 51.684 58.9661 51.684 58.9661L51.684 48.7023L53.8183 48.9918L66.6025 50.6864Z"   fill="#F27E64" >
</path>
<path d="M66.613 50.9867L66.6667 56.6924C63.2561 56.4672 57.0249 55.3303 54.2471 50.1394C54.0326 49.7212 53.8825 49.3351 53.8288 49.0133L66.5916 50.9009L66.613 50.9867Z"   fill="#000000" >
</path>
<path d="M67.3638 23.6165C67.3638 23.6165 74.6354 38.0952 72.7478 46.5465C70.8602 54.9978 63.2025 54.0969 58.58 52.7349C53.9576 51.3728 51.6946 48.7023 51.6946 48.7023C51.6946 48.7023 47.5333 50.3646 44.4767 46.5787C41.4308 42.7928 42.9323 38.1596 45.2918 37.0013C47.662 35.8323 50.6328 37.4303 50.6328 37.4303L48.1446 33.2475C48.1446 33.2475 56.4672 10.843 67.3531 23.6379L67.3638 23.6165Z"   fill="#F27E64" >
</path>
<path d="M67.6641 42.5568C67.6641 42.5568 67.5783 42.5568 67.5354 42.5354C67.2565 42.4603 67.0849 42.1707 67.16 41.8919C67.8679 39.157 65.7014 36.3149 65.6799 36.2827C65.4976 36.0468 65.5405 35.7143 65.7765 35.5427C66.0124 35.3604 66.3449 35.4033 66.5165 35.6392C66.6237 35.7679 69.0262 38.9103 68.1789 42.16C68.1145 42.396 67.9 42.5568 67.6641 42.5568Z"   fill="#000000" >
</path>
<path d="M50.3111 44.4659C50.1824 44.4659 50.0429 44.4123 49.9464 44.3158L45.7208 40.2403C45.5063 40.0365 45.5063 39.704 45.71 39.4895C45.9138 39.275 46.2463 39.275 46.4608 39.4788L50.6864 43.5543C50.9009 43.7581 50.9009 44.0905 50.6972 44.305C50.5899 44.4123 50.4505 44.4659 50.3111 44.4659Z"   fill="#000000" >
</path>
<path d="M45.9996 43.5221C45.7529 43.5221 45.5277 43.3505 45.4848 43.0931C45.4311 42.8035 45.6135 42.5247 45.903 42.471L48.6701 41.9133C48.9597 41.8597 49.2385 42.042 49.2922 42.3316C49.3458 42.6212 49.1635 42.9 48.8739 42.9537L46.1068 43.5114C46.1068 43.5114 46.0317 43.5114 45.9996 43.5114L45.9996 43.5221Z"   fill="#000000" >
</path>
<path   fill-rule="evenodd"  fill="#000000"  d="M65.1223 48.5199C64.8649 48.5199 64.6075 48.4663 64.3501 48.3483C62.4196 47.501 60.6822 44.2621 60.6071 44.1334C60.5106 43.9511 60.532 43.7151 60.6607 43.5542C60.7894 43.3934 61.0147 43.3183 61.2184 43.3719L67.1065 45.0236C67.3746 45.0986 67.5355 45.3668 67.4818 45.6349C67.4389 45.8494 67.0421 47.7263 65.8731 48.3376C65.6371 48.4663 65.3797 48.5199 65.1223 48.5199ZM62.2266 44.7554C62.8915 45.7529 63.8675 46.9755 64.7791 47.3831C65.0902 47.5225 65.2725 47.4581 65.3905 47.3938C65.8302 47.1578 66.1519 46.4393 66.3235 45.903L62.2266 44.7554Z">
</path>
<path d="M57.8614 32.1643C57.7863 32.1643 57.7113 32.1536 57.6469 32.1214C57.3788 32.0034 57.2608 31.6817 57.3895 31.4243C58.3226 29.3865 60.8644 29.7833 60.9717 29.8048C61.2612 29.8477 61.4543 30.1265 61.4007 30.4161C61.3578 30.7057 61.0789 30.8988 60.7893 30.8559C60.7143 30.8451 58.9339 30.577 58.344 31.8747C58.2582 32.0678 58.0652 32.1858 57.8614 32.1858L57.8614 32.1643Z"   fill="#000000" >
</path>
<path d="M66.849 30.0729C66.7525 30.0729 66.656 30.0514 66.5702 29.9978C66.3235 29.8477 66.2484 29.5152 66.3986 29.2685C66.7954 28.6357 67.3209 28.2496 67.9644 28.1424C69.2621 27.9172 70.5384 28.9253 70.592 28.9682C70.8173 29.1505 70.8602 29.483 70.6778 29.7082C70.4955 29.9335 70.163 29.9764 69.9378 29.794C69.6697 29.5795 68.8331 29.0647 68.1467 29.1827C67.8143 29.2471 67.5354 29.4508 67.3102 29.8155C67.2137 29.9764 67.0313 30.0622 66.8597 30.0622L66.849 30.0729Z"   fill="#000000" >
</path>
<path d="M68.8547 36.2934C68.608 36.2934 68.3828 36.1218 68.3399 35.8644L67.8036 33.1295C67.7714 32.9794 67.8036 32.8292 67.9001 32.7113L68.8868 31.3599C69.0584 31.124 69.3909 31.0703 69.6269 31.2419C69.8628 31.4135 69.9164 31.746 69.7448 31.982L68.8868 33.151L69.3802 35.6606C69.4338 35.9502 69.2515 36.2291 68.9619 36.2827C68.9297 36.2827 68.8976 36.2827 68.8547 36.2827L68.8547 36.2934Z"   fill="#000000" >
</path>
<path d="M60.6821 37.3338C60.4247 37.3338 60.2102 37.1514 60.1566 36.894L59.674 34.1484C59.6418 33.9876 59.6954 33.816 59.8027 33.698L61.272 32.1107C61.4758 31.8962 61.8083 31.8855 62.0228 32.0785C62.2373 32.2823 62.248 32.6148 62.0549 32.8293L60.7679 34.2235L61.2077 36.7117C61.2613 37.0013 61.0682 37.2694 60.7787 37.323C60.7465 37.323 60.7143 37.323 60.6821 37.323L60.6821 37.3338Z"   fill="#000000" >
</path>
<path d="M50.6435 37.4196C50.6435 37.4196 56.9606 33.7945 59.0841 29.0219C61.2077 24.2493 61.1862 21.9112 61.1862 21.9112C61.1862 21.9112 62.2802 24.9249 64.6718 25.5363C67.0635 26.1476 68.5328 26.1583 68.5328 26.1583L70.2381 30.4376L68.7688 20.1201C68.7688 20.1201 62.2158 16.9992 61.3578 17.0421C60.4998 17.085 49.7962 19.5303 49.1957 20.2059C48.6058 20.8816 45.592 29.4294 45.592 29.4294L45.5384 33.2261L50.6435 37.4196Z"   fill="#000000" >
</path>
<path d="M39.6289 98.9168C37.5912 98.4985 35.5963 97.9408 33.6551 97.2651C26.5981 94.8305 20.2489 90.8516 15.0258 85.7143C22.7156 69.0369 36.7975 61.2291 38.5672 60.3067C38.6851 60.2424 38.7495 60.2102 38.7495 60.2102C38.7495 60.2102 37.4732 87.4946 39.6289 98.9168Z"   fill="#FCB35B" >
</path>
<path d="M90.2081 79.6869C88.535 81.982 86.6474 84.1163 84.5989 86.079C81.3492 89.2107 77.6598 91.9026 73.6487 94.0584L68.3612 58.6337C69.1763 58.7624 81.0168 60.9288 90.2081 79.6869Z"   fill="#FCB35B" >
</path>
<path d="M61.8941 62.6448C61.583 62.6448 61.2613 62.6448 60.9288 62.6341C54.3544 62.441 50.2253 58.7194 50.0536 58.5693C49.8391 58.3655 49.8177 58.033 50.0215 57.8078C50.2253 57.5933 50.5577 57.5718 50.783 57.7756C50.8259 57.8078 54.8048 61.39 60.961 61.5616C66.9134 61.7439 68.2218 60.2638 68.2325 60.2531C68.4149 60.0279 68.7473 59.9957 68.9833 60.178C69.2085 60.3604 69.2621 60.6821 69.0905 60.9073C68.9511 61.0897 67.6212 62.6555 61.9048 62.6555L61.8941 62.6448Z"   fill="#7772D3" >
</path>
</svg>
