<svg xmlns="http://www.w3.org/2000/svg" xmlns:xlink="http://www.w3.org/1999/xlink" width="100" height="100.0033950805664" viewBox="0 0 100 100.0033950805664" fill="none">
<path d="M100 49.999C100 62.2789 95.571 73.5292 88.2359 82.227C87.3137 83.3209 86.3378 84.3827 85.3298 85.3908C83.6997 87.021 81.9517 88.5439 80.0965 89.9274C79.1957 90.6138 78.2627 91.268 77.3083 91.89C77.2011 91.9651 77.0938 92.0294 76.9759 92.0938C75.6247 92.9732 74.2198 93.7883 72.7721 94.5176C72.4397 94.6892 72.1072 94.8608 71.7641 95.0217C70.2091 95.7724 68.6113 96.4481 66.9812 97.0379C64.815 97.8208 62.5844 98.4643 60.2895 98.9362C56.9651 99.6333 53.5335 99.998 50.0054 99.998C48.4933 99.998 46.992 99.9336 45.5121 99.7942C43.9678 99.6548 42.445 99.451 40.9437 99.1614C40.1072 99.0113 39.2815 98.8397 38.4665 98.6466C36.0858 98.0889 33.7802 97.3597 31.5496 96.4588C29.5657 95.6759 27.6461 94.7643 25.7909 93.7347C25.5764 93.6167 25.3619 93.4987 25.1582 93.37C23.8928 92.6622 22.6702 91.9007 21.4906 91.0642C20.4718 90.3671 19.4745 89.6164 18.5094 88.8227C18.3914 88.7369 18.2842 88.6511 18.1662 88.5546C16.8043 87.4178 15.496 86.2166 14.252 84.9511C13.8981 84.5972 13.555 84.2325 13.2225 83.8679C12.2681 82.8383 11.3566 81.7658 10.4987 80.6612C9.65147 79.5672 8.84719 78.4411 8.09651 77.2828C2.98123 69.4323 0 60.0696 0 49.999C0 22.3826 22.3914 0 50.0054 0C77.6193 0 100 22.3826 100 49.999Z"   fill="#F2E5DF" >
</path>
<path d="M88.2364 82.2287C87.3141 83.3226 86.3382 84.3843 85.3302 85.3925C83.7002 87.0226 81.9522 88.5456 80.097 89.9291C79.1962 90.6154 78.2632 91.2697 77.3088 91.8917C77.2015 91.9668 77.0943 92.0311 76.9763 92.0955L77.2766 70.1096C77.2766 70.1096 82.4562 74.9358 88.2364 82.2287Z"   fill="#FFBF69" >
</path>
<path d="M72.7705 94.5196C72.438 94.6912 72.1056 94.8628 71.7625 95.0237C68.1592 96.7718 64.3094 98.1017 60.2879 98.9382C56.9635 99.6354 53.5319 100 50.0037 100C48.4917 100 46.9903 99.9356 45.5104 99.7962C43.9662 99.6568 42.4434 99.453 40.9421 99.1635C40.1056 99.0133 39.2799 98.8417 38.4649 98.6487C36.0842 98.091 33.7785 97.3617 31.548 96.4608L41.9716 61.1119C41.9716 61.1119 50.1003 59.8893 59.312 60.8545C65.3281 61.4873 70.1431 81.0171 72.7705 94.5196Z"   fill="#7772D3" >
</path>
<path d="M59.3148 60.8531L43.465 61.8505C43.465 61.8505 41.8779 78.3238 40.9449 99.1621C40.1084 99.0119 39.2827 98.8403 38.4677 98.6473C33.9744 97.5855 29.7277 95.9232 25.7921 93.7353C25.5776 93.6173 25.3631 93.4994 25.1594 93.3707C23.8939 92.6628 22.6714 91.9014 21.4918 91.0648C20.473 90.3677 19.4757 89.617 18.5106 88.8234C18.3926 88.7376 18.2854 88.6518 18.1674 88.5552C16.8055 87.4184 15.4972 86.2172 14.2532 84.9517C13.8993 84.5978 13.5561 84.2331 13.2237 83.8685C13.524 77.0583 14.4569 71.9854 16.3551 70.2158C24.784 62.376 45.6955 59.7592 45.6955 59.7592L55.4757 59.6198C55.4757 59.6198 57.0199 60.0702 59.3148 60.8531Z"   fill="#FFBF69" >
</path>
<path d="M80.0954 89.9255C79.1946 90.6118 78.2616 91.2661 77.3072 91.8881C75.8487 92.8426 74.3367 93.722 72.771 94.5157C72.4385 94.6873 72.1061 94.8589 71.7629 95.0197C70.208 95.7705 68.6101 96.4461 66.9801 97.036L66.9479 96.6499C64.1383 67.457 59.6235 61.2366 59.3447 60.8613C65.3822 62.9312 76.5994 67.339 78.6584 72.0901C79.4412 73.9026 79.8809 80.8308 80.0954 89.9255Z"   fill="#FFBF69" >
</path>
<path d="M49.3555 23.3768C49.3555 23.3768 39.0499 0.382872 27.2965 12.0622C17.4628 21.8325 32.7121 36.9008 41.5378 32.6001C50.3636 28.2995 49.3555 23.3768 49.3555 23.3768Z"   fill="#000000" >
</path>
<path d="M65.0477 42.1522C65.0477 42.1522 69.2836 37.3368 67.9431 29.9796C67.0316 24.9925 64.7903 23.4053 64.7903 23.4053C64.7903 23.4053 68.0825 16.5414 58.0021 17.0884C47.9217 17.6461 42.0664 22.676 42.0664 22.676C42.0664 22.676 37.423 20.4774 35.4391 25.8827C33.4445 31.288 35.6214 39.1814 35.6214 39.1814L65.0477 42.1522Z"   fill="#000000" >
</path>
<path d="M43.0355 50.7582L43.518 63.0595C43.518 63.0595 45.8773 66.5129 53.0944 66.8132C58.4778 67.0384 60.065 64.2178 60.065 64.2178L58.3491 53.5037L45.2446 51.155L43.0355 50.7582Z"   fill="#F27E64" >
</path>
<path d="M43.0265 50.0115C43.0694 50.3439 43.2088 50.7408 43.434 51.1805C46.426 57.2185 56.2168 59.3957 59.316 59.5565L58.3402 53.5078L43.0265 50.0115Z"   fill="#000000" >
</path>
<path d="M59.9916 25.3652C59.9916 25.3652 67.0479 40.5408 64.8388 49.2064C62.6297 57.8721 54.7477 56.7031 50.0184 55.148C45.2892 53.5929 43.0372 50.7615 43.0372 50.7615C43.0372 50.7615 38.6833 52.3488 35.6592 48.3377C32.6351 44.3266 34.3294 39.6077 36.8066 38.4709C39.2838 37.3341 42.308 39.0715 42.308 39.0715L39.8737 34.6743C39.8737 34.6743 49.1605 11.7984 59.9916 25.3652Z"   fill="#F27E64" >
</path>
<path d="M42.2989 39.0826C42.2989 39.0826 48.9155 40.3159 53.3874 32.9158C57.87 25.5157 57.3981 22.502 57.3981 22.502L62.063 30.0094C62.063 30.0094 63.0067 24.7435 60.8619 21.4188C58.7171 18.1049 56.5402 18.8234 56.5402 18.8234L42.0523 22.6629L38.3847 34.3744L42.2775 39.0718L42.2989 39.0826Z"   fill="#000000" >
</path>
<path d="M59.728 44.9071C59.728 44.9071 59.6314 44.9071 59.5778 44.8856C59.2883 44.7998 59.1274 44.5102 59.2132 44.2207C60.0282 41.4108 57.8834 38.4078 57.862 38.3757C57.6904 38.1397 57.744 37.7965 57.98 37.6249C58.2159 37.4533 58.5483 37.5069 58.7306 37.7429C58.8271 37.8823 61.2078 41.1963 60.2427 44.5102C60.1784 44.7462 59.9639 44.8963 59.728 44.8963L59.728 44.9071Z"   fill="#000000" >
</path>
<path d="M41.7562 46.3347C41.6168 46.3347 41.4774 46.2811 41.3701 46.1738L37.1342 41.8303C36.9304 41.6158 36.9304 41.2833 37.1342 41.0688C37.3487 40.8651 37.6918 40.8651 37.8956 41.0688L42.1315 45.4124C42.3353 45.6269 42.3353 45.9594 42.1315 46.1738C42.0243 46.2704 41.8956 46.324 41.7562 46.324L41.7562 46.3347Z"   fill="#000000" >
</path>
<path d="M37.3265 45.23C37.0691 45.23 36.8439 45.0477 36.801 44.7796C36.7474 44.49 36.9512 44.2111 37.2407 44.1575L40.1147 43.6749C40.4043 43.632 40.6831 43.8251 40.7367 44.1146C40.7903 44.4042 40.5866 44.683 40.297 44.7367L37.423 45.2193C37.423 45.2193 37.3587 45.2193 37.3372 45.2193L37.3265 45.23Z"   fill="#000000" >
</path>
<path d="M62.5126 32.3022C62.5126 32.3022 62.459 32.3022 62.4269 32.3022L59.703 31.8624C59.4134 31.8195 59.2097 31.5407 59.2633 31.2511C59.3062 30.9616 59.585 30.7578 59.8746 30.8007L62.5984 31.2404C62.888 31.2833 63.0917 31.5621 63.0488 31.8517C63.0059 32.1198 62.7807 32.3022 62.5126 32.3022Z"   fill="#000000" >
</path>
<path d="M51.2062 34.2549C51.0132 34.2549 50.8308 34.1476 50.7343 33.9653C50.5949 33.7079 50.7022 33.3754 50.9595 33.2467L55.3885 30.9195C55.6566 30.78 55.9783 30.8873 56.1177 31.1447C56.2571 31.4021 56.1499 31.7345 55.8925 31.8632L51.4636 34.1905C51.3885 34.2334 51.3027 34.2549 51.2062 34.2549Z"   fill="#000000" >
</path>
<path d="M62.5922 38.5977C62.367 38.5977 62.1525 38.4583 62.0774 38.2223L61.1873 35.4661C61.1337 35.2945 61.1659 35.1122 61.2731 34.9727L62.1096 33.9217C62.2919 33.6858 62.6351 33.6536 62.8603 33.8359C63.0962 34.0182 63.1284 34.3614 62.946 34.5866L62.2919 35.4125L63.0962 37.9006C63.182 38.1794 63.0318 38.4797 62.753 38.5763C62.6994 38.5977 62.6458 38.5977 62.5922 38.5977Z"   fill="#000000" >
</path>
<path d="M53.776 39.4599C53.5508 39.4599 53.3363 39.3205 53.2613 39.0846L52.3712 36.3283C52.3176 36.1567 52.3497 35.9637 52.4677 35.8242L53.6259 34.4407C53.8189 34.2155 54.1513 34.1833 54.3765 34.3764C54.6017 34.5694 54.6339 34.9019 54.4409 35.1271L53.4757 36.2854L54.2693 38.7628C54.3551 39.0417 54.205 39.342 53.9261 39.4385C53.8725 39.4599 53.8189 39.4599 53.776 39.4599Z"   fill="#000000" >
</path>
<path d="M57.5663 48.9788C55.6467 48.9788 53.5234 46.9303 53.2446 46.6515C53.0301 46.4477 53.0301 46.1045 53.2446 45.89C53.459 45.6755 53.7915 45.6755 54.006 45.89C54.7137 46.5871 56.9872 48.4318 58.1775 47.7561C58.4349 47.606 58.7566 47.7025 58.9068 47.9599C59.0569 48.2173 58.9604 48.5498 58.703 48.6892C58.3491 48.893 57.9631 48.9788 57.5663 48.9788Z"   fill="#000000" >
</path>
<path d="M21.4902 91.0599C20.4715 90.3628 19.4741 89.6121 18.509 88.8184C18.391 88.7326 18.2838 88.6468 18.1658 88.5503C16.8039 87.4135 15.4956 86.2123 14.2516 84.9468C12.9219 83.5847 11.6672 82.1583 10.4983 80.6569C9.65109 79.5629 8.8468 78.4368 8.09613 77.2785C14.8307 70.8329 20.4071 67.2938 20.4071 67.2938L21.4902 91.0599Z"   fill="#FFBF69" >
</path>
<path d="M54.1788 67.4052C53.8142 67.4052 53.4389 67.3838 53.0421 67.3516C48.2163 66.9119 43.412 63.6408 43.2083 63.5014C42.9616 63.3298 42.8973 62.9973 43.0689 62.7614C43.2405 62.5147 43.5622 62.4504 43.8195 62.622C43.8624 62.6541 48.5917 65.8608 53.1386 66.2791C57.9 66.7188 59.53 64.0591 59.5943 63.9518C59.7445 63.6944 60.0769 63.6086 60.3236 63.7588C60.5809 63.9089 60.6667 64.2307 60.5166 64.4881C60.4415 64.6168 58.7901 67.4052 54.1681 67.4052L54.1788 67.4052Z" fill-rule="evenodd"  fill="#FFFFFF" >
</path>
</svg>
