<svg xmlns="http://www.w3.org/2000/svg" xmlns:xlink="http://www.w3.org/1999/xlink" width="100" height="100" viewBox="0 0 100 100" fill="none">
<path d="M100 49.9977C100 59.1243 97.5547 67.6825 93.2754 75.0502C93.1146 75.329 92.943 75.6079 92.7714 75.8867C92.3745 76.5516 91.9563 77.2166 91.5165 77.86C91.3342 78.1282 91.1519 78.3963 90.9481 78.6644C84.4273 88.0054 74.7748 94.9764 63.535 98.1401C63.299 98.2045 63.0523 98.2688 62.8164 98.3332C58.7302 99.4163 54.4294 99.9955 50 99.9955C32.722 99.9955 17.4818 91.2335 8.52638 77.9029C7.67911 76.6696 6.89618 75.3827 6.17761 74.0743C2.24153 66.9317 0 58.7275 0 49.9977C0 22.3821 22.3831 0 50 0C77.6169 0 100 22.3821 100 49.9977Z"   fill="#F2E5DF" >
</path>
<path d="M28.5601 43.1874C28.5601 43.1874 23.2083 14.7675 44.0041 9.56607C64.7999 4.36467 66.0547 33.8786 66.0547 33.8786C66.0547 33.8786 88.6845 38.1898 88.8347 60.1965C89.017 87.7049 62.4404 83.0719 62.4404 83.0719L37.2581 72.8193C37.2581 72.8193 12.0329 59.0812 28.5708 43.1874L28.5601 43.1874Z"   fill="#000000" >
</path>
<path d="M90.9416 78.6689C84.4208 88.01 74.7682 94.9809 63.5284 98.1447C63.2925 98.209 63.0458 98.2733 62.8099 98.3377C58.7236 99.4209 54.4229 100 49.9935 100C32.7155 100 17.4752 91.2381 8.51985 77.9075C15.2337 68.7273 23.6528 61.7778 29.38 59.3112C37.8528 55.6648 51.2912 53.2196 63.7 56.7694C63.7322 56.7802 63.7751 56.7802 63.818 56.7909C67.5503 57.8633 71.1754 59.472 74.5537 61.7563C81.8575 66.6896 87.1771 72.4165 90.9416 78.6689Z"   fill="#F7734F" >
</path>
<path d="M40.1702 48.1296L40.1702 48.4298L40.4276 54.1567L40.6099 58.6503C40.6099 58.6503 40.2238 59.6906 45.4576 59.3581C52.461 58.8755 54.724 55.8727 54.724 55.8727L55.0243 45.3412L52.9008 45.7487L40.1702 48.1296Z"   fill="#FCA397" >
</path>
<path d="M40.1702 48.4417L40.4276 54.1686C43.8274 53.7503 50.0265 52.281 52.5361 46.9295C52.7292 46.4898 52.8579 46.1037 52.9008 45.782L40.2023 48.3666L40.1809 48.4524L40.1702 48.4417Z"   fill="#000000" >
</path>
<path d="M37.9521 21.0335C37.9521 21.0335 31.4313 35.9406 33.78 44.3272C36.1288 52.703 43.765 51.3839 48.3231 49.7645C52.892 48.1451 55.0048 45.346 55.0048 45.346C55.0048 45.346 59.2734 46.7938 62.1262 42.8258C64.9791 38.8577 63.2202 34.2998 60.7856 33.2595C58.351 32.2192 55.4553 33.978 55.4553 33.978L57.729 29.6453C57.729 29.6453 48.173 7.61715 37.9521 21.0335Z"   fill="#FCA397" >
</path>
<path d="M39.983 18.8222C39.983 18.8222 39.5111 26.7583 47.4905 30.3618C55.4699 33.9652 60.8002 33.2574 60.8002 33.2574L60.2854 22.9082L50.2897 12.055L41.3558 14.897L39.983 18.8222Z"   fill="#000000" >
</path>
<path d="M54.9337 31.6758L54.9551 36.1909L58.977 32.2228L54.9337 31.6758L54.9337 31.6758Z"   fill="#000000" >
</path>
<path d="M92.7697 75.8845C92.3729 76.5494 91.9547 77.2143 91.5149 77.8578C91.3326 78.1259 91.1503 78.394 90.9465 78.6621C84.4257 88.0032 74.7732 94.9741 63.5334 98.1379C63.2974 98.2022 63.0507 98.2666 62.8148 98.3309L63.5012 56.7305C63.5012 56.7305 63.5763 56.7412 63.705 56.7626C63.7371 56.7734 63.78 56.7734 63.8229 56.7841C66.2897 57.2023 82.4523 60.3983 91.1288 73.1175C91.7187 73.9648 92.2549 74.8978 92.7697 75.8845Z"   fill="#F7734F" >
</path>
<path d="M43.947 59.9849C40.7939 59.9849 38.4344 59.4165 38.2413 59.3736C37.9517 59.2985 37.7801 59.009 37.8445 58.7301C37.9196 58.4406 38.2091 58.269 38.488 58.3333C38.5845 58.3548 48.0332 60.6069 54.5219 55.8774C54.7578 55.7058 55.101 55.7594 55.2726 55.9954C55.4442 56.2313 55.3906 56.5745 55.1547 56.7461C51.594 59.3414 47.3039 59.9849 43.9363 59.9849L43.947 59.9849Z" fill-rule="evenodd"  fill="#7772D3" >
</path>
<path d="M36.0937 26.4779C35.8684 26.4779 35.6539 26.3278 35.5789 26.1025C35.4931 25.8237 35.6432 25.5234 35.9328 25.4269L38.9036 24.4939C39.1825 24.4081 39.4828 24.5582 39.5793 24.8478C39.6651 25.1266 39.5149 25.4269 39.2254 25.5234L36.2545 26.4565C36.2545 26.4565 36.1473 26.4779 36.0937 26.4779Z"   fill="#000000" >
</path>
<path d="M55.7688 40.9251C55.6294 40.9251 55.4793 40.8715 55.372 40.7535C55.1682 40.539 55.1897 40.1958 55.4042 39.9921L60.0052 35.7666C60.2197 35.5629 60.5629 35.5843 60.7667 35.7988C60.9705 36.0133 60.949 36.3565 60.7345 36.5602L56.1335 40.7857C56.0262 40.8822 55.8975 40.9251 55.7688 40.9251Z"   fill="#000000" >
</path>
<path d="M60.4297 40.3648C60.3546 40.3648 60.2796 40.3541 60.2152 40.3219L57.4696 39.1207C57.2015 39.0028 57.0728 38.681 57.1908 38.4129C57.3087 38.1448 57.6305 38.0161 57.8986 38.1341L60.6442 39.3352C60.9123 39.4532 61.041 39.7749 60.9231 40.0431C60.8373 40.2468 60.6335 40.3648 60.4297 40.3648Z"   fill="#000000" >
</path>
<path d="M37.0161 33.9996C37.0161 33.9996 36.941 33.9996 36.9089 33.9889C36.6193 33.9245 36.437 33.6457 36.4906 33.3561L37.0376 30.7179L35.9651 29.4739C35.772 29.2486 35.7935 28.9162 36.0187 28.7124C36.2439 28.5194 36.5764 28.5408 36.7802 28.766L38.035 30.2138C38.1422 30.3425 38.1851 30.5141 38.153 30.675L37.5524 33.5706C37.4987 33.828 37.2735 33.9996 37.0268 33.9996L37.0161 33.9996Z"   fill="#000000" >
</path>
<path d="M46.0038 34.4584C46.0038 34.4584 45.9287 34.4584 45.8965 34.4477C45.6069 34.3834 45.4246 34.1045 45.4782 33.815L46.0252 31.1767L44.9527 29.9327C44.7597 29.7075 44.7811 29.375 45.0063 29.1712C45.2316 28.9782 45.564 28.9997 45.7678 29.2249L47.0226 30.6727C47.1299 30.8014 47.1728 30.973 47.1406 31.1338L46.54 34.0295C46.4864 34.2868 46.2612 34.4584 46.0145 34.4584L46.0038 34.4584Z"   fill="#000000" >
</path>
<path d="M38.7952 40.5355C38.5485 40.5355 38.3233 40.3639 38.2697 40.1065C37.2723 35.3341 39.5781 32.9318 39.6747 32.8353C39.8784 32.6208 40.2216 32.6208 40.4361 32.8353C40.6506 33.0391 40.6506 33.3823 40.4361 33.5967C40.3503 33.6933 38.4413 35.7309 39.31 39.892C39.3744 40.1816 39.1813 40.4712 38.8917 40.5248C38.8596 40.5248 38.8167 40.5355 38.7952 40.5355Z"   fill="#000000" >
</path>
<path   fill-rule="evenodd"  fill="#000000"  d="M43.6321 45.1276C43.3103 45.1276 42.5489 44.9775 40.9616 43.2187C40.7792 43.0149 40.7149 42.7361 40.7792 42.4787C40.8543 42.2106 41.0688 41.9961 41.3477 41.9103C45.1765 40.7628 45.6913 41.1596 45.9165 41.3204C46.1096 41.4599 46.3992 41.8138 46.1847 42.5216C45.8951 43.4975 44.6724 45.0526 43.7286 45.1062C43.7072 45.1062 43.675 45.1062 43.6321 45.1062L43.6321 45.1276ZM42.0662 42.8326C42.9242 43.7227 43.5356 44.0445 43.6643 44.0552C43.7608 44.0552 44.1147 43.8407 44.5545 43.283C44.9298 42.8111 45.1229 42.3929 45.1765 42.1784C44.8655 42.2106 43.9217 42.2856 42.0662 42.8219L42.0662 42.8326Z">
</path>
<path d="M25.7651 75.6519C25.7115 75.7162 20.5849 81.2072 21.5609 91.0845C21.2499 90.8914 20.9603 90.677 20.66 90.4625C20.5742 90.4088 20.4991 90.3445 20.4133 90.2801C19.7806 80.4779 24.9286 74.9977 24.9929 74.9226C25.1967 74.7081 25.5292 74.7081 25.7544 74.9012C25.9689 75.1049 25.9689 75.4481 25.7651 75.6519Z"   fill="#7772D3" >
</path>
</svg>
