<svg xmlns="http://www.w3.org/2000/svg" xmlns:xlink="http://www.w3.org/1999/xlink" width="100" height="100.00360107421875" viewBox="0 0 100 100.00360107421875" fill="none">
<path d="M100 50C100 59.5453 97.3188 68.4685 92.6856 76.0618C91.8812 77.381 91.0125 78.6465 90.1008 79.8799C87.6555 83.151 84.8134 86.1111 81.6602 88.7066C80.4912 89.6611 79.2793 90.5727 78.0245 91.42C77.1021 92.042 76.1583 92.6426 75.1931 93.2003C69.7448 96.3857 63.6422 98.5629 57.1214 99.4959C55.1158 99.7855 53.0781 99.9464 50.9974 99.9786C50.665 100 50.3325 100 50 100C45.9674 100 42.0313 99.5174 38.2776 98.6165C32.7971 97.2973 27.6598 95.0772 23.0481 92.1171C21.375 91.0553 19.7769 89.8863 18.254 88.61C16.0982 86.8511 14.0927 84.8992 12.2587 82.7864C11.4221 81.8104 10.607 80.813 9.84556 79.7834C9.67396 79.5581 9.51309 79.3436 9.35221 79.1184C7.51823 76.5551 5.90948 73.8095 4.57958 70.9138C1.6302 64.5431 0 57.4539 0 50C0 22.3831 22.3831 0 50 0C77.6169 0 100 22.3831 100 50Z"   fill="#F2E5DF" >
</path>
<path d="M81.6602 88.7065C80.4911 89.6611 79.2792 90.5727 78.0244 91.42C77.1021 92.042 76.1582 92.6426 75.193 93.2003C69.7447 96.3856 63.6422 98.5628 57.1213 99.4959C55.1158 99.7855 53.078 99.9464 50.9974 99.9785C50.6649 100 50.3324 100 49.9999 100C45.9673 100 42.0313 99.5173 38.2775 98.6164C32.797 97.2973 27.6597 95.0772 23.048 92.1171C21.3749 91.0553 19.7769 89.8863 18.2539 88.61C16.0982 86.8511 14.0926 84.8992 12.2586 82.7863C11.4221 81.8104 10.607 80.8129 9.84549 79.7833C13.256 71.7074 19.4873 60.1351 27.9815 57.3037C41.3556 52.8421 69.8519 59.1269 69.8519 59.1269C69.8519 59.1269 79.6117 63.8674 81.6602 88.7065Z"   fill="#46467F" >
</path>
<path d="M75.1932 93.2003C69.7449 96.3856 63.6423 98.5628 57.1215 99.4959C55.1159 99.7855 53.0782 99.9463 50.9975 99.9785C50.6651 100 50.3326 100 50.0001 100C45.9675 100 42.0314 99.5173 38.2777 98.6164C32.7972 97.2973 27.6599 95.0772 23.0482 92.1171C21.3751 91.0553 19.777 89.8863 18.2541 88.61C18.3399 75.5362 19.3266 63.5886 22.4905 60.7357C24.0778 59.2985 25.9761 58.1724 27.9817 57.3037C32.6256 55.2981 37.8165 54.6224 41.2271 54.3972C43.49 54.2471 44.9594 54.3007 44.9594 54.3007C44.9594 54.3007 47.9945 54.4187 52.07 54.8691C53.1962 55.0085 54.333 55.148 55.5235 55.3196C62.4626 56.317 70.5921 58.2582 72.6942 61.9262C74.5068 65.0793 75.0859 79.2042 75.1932 93.2003Z"   fill="#46467F" >
</path>
<path d="M59.5882 28.1103C59.5882 28.1103 66.0875 17.1493 60.6928 14.8005C55.2982 12.4517 48.8739 18.4685 48.8739 18.4685C48.8739 18.4685 36.819 19.541 32.2501 25.9974C27.6705 32.4539 38.9425 43.758 38.9425 43.758L59.5882 28.1103Z"   fill="#FCB35B" >
</path>
<path d="M41.0769 46.2034L40.3905 57.3037C40.3905 57.3037 42.1923 60.6178 48.6595 61.5401C53.475 62.2265 55.2446 61.2398 55.2446 61.2398L54.9122 55.577L54.5797 50.0536L43.0074 46.7503L41.0662 46.1926L41.0769 46.2034Z"   fill="#F27E64" >
</path>
<path d="M43.0182 46.761C43.0182 47.0613 43.1254 47.426 43.2756 47.855C45.4206 53.55 52.1344 55.1695 54.9229 55.5877L54.5904 50.0644L43.0182 46.761Z"   fill="#000000" >
</path>
<path d="M58.6123 24.9035C58.6123 24.9035 63.5887 39.1784 60.8109 46.7825C58.0439 54.3758 51.0619 52.6062 46.9435 50.7829C42.8251 48.9597 41.0662 46.2141 41.0662 46.2141C41.0662 46.2141 37.0121 47.2544 34.6526 43.3719C32.2931 39.4895 34.2451 35.4032 36.5724 34.6096C38.8997 33.8159 41.463 35.6499 41.463 35.6499L39.6719 31.4779C39.6719 31.4779 50.0859 11.7546 58.6123 24.9142L58.6123 24.9035Z"   fill="#F27E64" >
</path>
<path d="M40.712 41.6988C40.5941 41.6988 40.4761 41.6559 40.3688 41.5808L35.5855 37.6769C35.3603 37.4946 35.3174 37.1514 35.5104 36.9262C35.6927 36.701 36.0359 36.6581 36.2612 36.8511L41.0445 40.755C41.2697 40.9373 41.3126 41.2805 41.1196 41.5058C41.0123 41.6345 40.8622 41.6988 40.712 41.6988Z"   fill="#000000" >
</path>
<path d="M36.154 41.3664C35.9074 41.3664 35.6821 41.1841 35.6285 40.9267C35.5749 40.6371 35.7572 40.3582 36.0575 40.2939L39.4037 39.6504C39.6933 39.586 39.9721 39.7791 40.0365 40.0794C40.0901 40.369 39.9078 40.6478 39.6075 40.7122L36.2613 41.3557C36.2613 41.3557 36.1969 41.3557 36.154 41.3664Z"   fill="#000000" >
</path>
<path d="M48.9919 30.8773C48.8632 30.8773 48.7452 30.8344 48.638 30.7486C48.4128 30.5555 48.3913 30.2123 48.5844 29.9871C50.2467 28.0781 52.2952 28.5821 53.1425 29.1077C53.3892 29.2685 53.475 29.5903 53.3141 29.8477C53.1532 30.0944 52.8315 30.1694 52.5741 30.0193C52.4025 29.912 50.8366 29.0433 49.3887 30.695C49.2815 30.8129 49.1313 30.8773 48.9812 30.8773L48.9919 30.8773Z" fill-rule="evenodd"  fill="#000000" >
</path>
<path d="M59.7814 30.4161C59.6527 30.4161 59.5132 30.3732 59.4167 30.2767C58.3549 29.29 57.143 29.8691 57.0894 29.8906C56.8213 30.0193 56.4995 29.912 56.3708 29.6546C56.2421 29.3865 56.3386 29.0755 56.6068 28.9361C56.6818 28.8932 58.5373 27.9815 60.1567 29.4938C60.3712 29.6975 60.382 30.03 60.1782 30.2552C60.0709 30.3732 59.9315 30.4268 59.7814 30.4268L59.7814 30.4161Z"   fill="#000000" >
</path>
<path d="M57.2609 40.873C57.1966 40.873 57.1322 40.873 57.0786 40.8408C56.7998 40.7336 56.6603 40.4333 56.7569 40.1544C58.1833 36.272 56.2742 33.9983 56.2528 33.9768C56.0597 33.7516 56.0812 33.4191 56.3064 33.2153C56.5316 33.0223 56.8641 33.0437 57.0572 33.269C57.1537 33.3762 59.3952 36.0467 57.7543 40.5191C57.6792 40.7336 57.4647 40.873 57.2609 40.873Z"   fill="#000000" >
</path>
<path d="M59.4058 35.7572C59.1591 35.7572 58.9339 35.5856 58.8803 35.3282L58.344 32.7434C58.2797 32.4539 58.4727 32.175 58.7623 32.1107C59.0519 32.057 59.3307 32.2394 59.3951 32.5289L59.9313 35.1137C59.9957 35.4032 59.8026 35.6821 59.513 35.7464C59.4809 35.7464 59.438 35.7572 59.4058 35.7572Z"   fill="#000000" >
</path>
<path d="M51.2976 35.9395C51.0509 35.9395 50.8257 35.7679 50.7721 35.5105L50.2359 32.9258C50.1715 32.6362 50.3646 32.3466 50.6541 32.293C50.9437 32.2286 51.2225 32.4217 51.2869 32.7113L51.8232 35.296C51.8875 35.5856 51.6945 35.8751 51.4049 35.9288C51.3727 35.9288 51.3298 35.9395 51.2976 35.9395Z"   fill="#000000" >
</path>
<path d="M59.5882 28.1102C59.5882 28.1102 58.5157 25.8044 55.7486 25.6113C52.9816 25.4183 51.2441 27.2737 51.2441 27.2737C51.2441 27.2737 52.1772 32.0142 48.2518 34.2557C44.3372 36.4972 41.4629 35.6285 41.4629 35.6285L38.7924 34.4916L37.0335 30.3732L45.4633 22.3402L56.0275 17.5676L60.9503 22.619L59.5989 28.0995L59.5882 28.1102Z"   fill="#FCB35B" >
</path>
<path d="M54.2042 45.1201C53.7752 45.1201 51.2119 45.0128 50.2145 42.4925C50.1072 42.2136 50.2359 41.9026 50.5148 41.7953C50.7936 41.6881 51.1047 41.8168 51.2119 42.0956C52.0056 44.0905 54.1935 44.0369 54.2256 44.0476C54.5152 44.0261 54.7726 44.2728 54.7833 44.5624C54.7833 44.8627 54.5581 45.1094 54.2685 45.1201C54.2685 45.1201 54.2364 45.1201 54.2149 45.1201L54.2042 45.1201Z"   fill="#000000" >
</path>
<path d="M52.2095 62.4088C44.9379 62.4088 39.4038 57.3788 39.1357 57.1321C38.9212 56.9283 38.9105 56.5959 39.1035 56.3706C39.3073 56.1561 39.6398 56.1454 39.865 56.3385C39.9401 56.4028 47.1902 62.9772 55.6093 60.9288C55.8989 60.8537 56.1885 61.036 56.2528 61.3256C56.3279 61.6152 56.1456 61.9047 55.856 61.9691C54.6012 62.2801 53.3785 62.4088 52.2095 62.4088Z"   fill="#FFFFFF" >
</path>
</svg>
