<svg xmlns="http://www.w3.org/2000/svg" xmlns:xlink="http://www.w3.org/1999/xlink" width="100" height="100" viewBox="0 0 100 100" fill="none">
<path d="M100 50C100 59.8777 97.1368 69.0905 92.1823 76.8554C91.8713 77.3381 91.5604 77.8207 91.2279 78.2926C89.6408 80.6092 87.8606 82.7756 85.9089 84.7919C85.2976 85.4247 84.6756 86.036 84.0322 86.6259C83.7319 86.9048 83.4317 87.1729 83.1314 87.4303C81.673 88.7387 80.1287 89.9507 78.5094 91.0768C76.1609 92.707 73.6622 94.1549 71.0349 95.3668C70.4022 95.6671 69.7695 95.9459 69.126 96.2141C66.9169 97.1257 64.6435 97.8872 62.2949 98.4771C59.3351 99.2278 56.2681 99.7104 53.126 99.9035C52.8687 99.9249 52.6006 99.9357 52.3432 99.9464C51.5711 99.9786 50.7882 100 50.0054 100C49.6193 100 49.2225 100 48.8258 99.9893C42.9598 99.8499 37.3405 98.713 32.1501 96.7181C30.4772 96.0854 28.8472 95.3561 27.2601 94.541C25.2654 93.5221 23.3459 92.3745 21.5228 91.0982C20.9437 90.7014 20.3753 90.2939 19.8284 89.8649C18.9705 89.2214 18.1341 88.5457 17.3298 87.8486C17.126 87.677 16.9223 87.4946 16.7292 87.3123C15.9357 86.6045 15.1635 85.8752 14.4129 85.1244C13.9839 84.6847 13.555 84.2342 13.1367 83.7731C12.7292 83.3226 12.3217 82.8722 11.9357 82.411C10.7239 80.9953 9.58714 79.5045 8.5362 77.9494C3.14209 69.97 0 60.3496 0 50C0 22.3831 22.3914 0 50.0054 0C77.6193 0 100 22.3831 100 50Z"   fill="#F2E5DF" >
</path>
<path d="M37.9729 15.3582C37.9729 15.3582 51.0238 3.71086 63.2919 10.178C75.5708 16.6452 72.0855 32.1965 72.0855 32.1965C72.0855 32.1965 86.9809 35.178 90.3697 53.6036C93.7584 72.0292 76.3536 76.7696 76.3536 76.7696L49.9407 63.5028L37.9729 15.3582Z"   fill="#000000" >
</path>
<path d="M62.7668 92.589L62.295 98.4771C59.3352 99.2278 56.2682 99.7104 53.1261 99.9035C52.8687 99.9249 52.6006 99.9357 52.3432 99.9464C51.5711 99.9786 50.7883 100 50.0054 100C49.6194 100 49.2226 100 48.8258 99.9893C42.9599 99.8499 37.3406 98.713 32.1502 96.7182C30.4773 96.0854 28.8473 95.3561 27.2601 94.541C25.2655 93.5221 23.3459 92.3745 21.5229 91.0983C23.6891 79.2042 28.118 59.009 33.8231 55.7057C34.2628 55.4483 34.6918 55.2874 35.1314 55.2445C44.0001 54.3115 51.8285 55.4912 51.8285 55.4912L62.7668 92.589Z"   fill="#46467F" >
</path>
<path d="M83.1315 87.4303C81.673 88.7388 80.1288 89.9507 78.5095 91.0768C76.161 92.707 73.6623 94.1549 71.035 95.3668C70.4023 95.6671 69.7695 95.946 69.1261 96.2141C66.917 97.1257 64.6435 97.8872 62.295 98.4771C59.3352 99.2278 56.2682 99.7104 53.1261 99.9035C52.3218 76.3299 50.3915 56.1991 50.3915 56.1991L35.1315 55.2446C37.3406 54.4831 38.8205 54.0541 38.8205 54.0541L48.2468 54.1828C48.2468 54.1828 63.2709 56.0704 72.5899 61.4543C72.6328 61.4865 72.6864 61.508 72.7508 61.5509C74.1449 62.3552 75.3889 63.2347 76.4505 64.2107C76.4505 64.2214 76.4827 64.2321 76.4934 64.2536C78.6596 66.2591 80.9974 75.1395 83.1315 87.4303Z"   fill="#F7734F" >
</path>
<path d="M35.11 55.2552C34.8419 55.6092 30.488 61.6045 27.7856 89.7147C27.6462 91.1411 27.4638 92.7499 27.2601 94.541C25.2655 93.5221 23.3459 92.3745 21.5228 91.0982C20.9437 90.7014 20.3754 90.2939 19.8285 89.8649C18.9705 89.2214 18.1341 88.5457 17.3298 87.8486C17.126 87.677 16.9223 87.4946 16.7293 87.3123C15.9357 86.6045 15.1636 85.8752 14.4129 85.1244C15.1528 74.8069 15.8713 67.5354 16.5041 66.0661C17.1904 64.5002 18.9169 62.9558 21.126 61.5401C21.1475 61.5187 21.1689 61.5079 21.1904 61.4972C24.9437 59.0948 30.0697 57.0356 33.8231 55.7057C34.2842 55.5448 34.7132 55.3947 35.11 55.2552Z"   fill="#F7734F" >
</path>
<path d="M28.3111 37.7198C28.3111 37.7198 23.925 33.3762 24.7186 26.2226C25.2655 21.3749 27.3138 19.7018 27.3138 19.7018C27.3138 19.7018 23.6998 13.3204 33.4049 13.181C43.1207 13.0416 49.0832 17.4817 49.0832 17.4817C49.0832 17.4817 53.3942 15.0579 55.6676 20.1201C57.9411 25.1716 56.3754 32.9043 56.3754 32.9043L28.3111 37.7198Z"   fill="#000000" >
</path>
<path d="M50.0373 44.5302L50.3376 57.3788C50.3376 57.3788 48.3537 59.8455 41.4475 60.6177C36.3 61.1969 34.5842 58.5907 34.5842 58.5907L35.5172 48.1874L47.9462 45.0557L50.0266 44.5302L50.0373 44.5302Z"   fill="#FCA397" >
</path>
<path d="M49.9946 43.8009C49.9732 44.1227 49.8659 44.5088 49.6836 44.9592C47.2064 50.9545 37.9624 53.7001 34.9812 54.0647L35.5174 48.1874L49.9946 43.8009Z"   fill="#000000" >
</path>
<path d="M32.0642 21.2569C32.0642 21.2569 26.2948 36.3041 28.9972 44.4766C31.6996 52.649 39.1848 51.0081 43.6245 49.1956C48.0642 47.3831 50.0374 44.5195 50.0374 44.5195C50.0374 44.5195 54.3162 45.7529 56.965 41.7095C59.6138 37.6662 57.6621 33.226 55.2063 32.3037C52.7505 31.3813 49.9623 33.2475 49.9623 33.2475L52.0106 28.861C52.0106 28.861 41.5655 7.50747 32.0642 21.2569Z"   fill="#FCA397" >
</path>
<path d="M49.9626 33.2582C49.9626 33.2582 43.6998 34.8884 38.9063 28.0781C34.1127 21.2677 34.3593 18.3505 34.3593 18.3505L30.3808 25.8794C30.3808 25.8794 29.1154 20.8816 30.9599 17.5568C32.8044 14.2213 34.9384 14.779 34.9384 14.779L49.1047 17.4925L53.4049 28.4963L49.9733 33.269L49.9626 33.2582Z"   fill="#000000" >
</path>
<path d="M33.5762 40.0365C33.3618 40.0365 33.158 39.9078 33.0722 39.6825C31.9248 36.5508 33.9945 33.2046 34.0803 33.0652C34.2411 32.8185 34.5628 32.7434 34.8202 32.8936C35.0669 33.0545 35.1419 33.3869 34.9918 33.6336C34.9704 33.6658 33.1151 36.6795 34.0803 39.3179C34.1768 39.5967 34.0374 39.9078 33.7586 40.0043C33.6942 40.0257 33.6299 40.0365 33.5762 40.0365Z"   fill="#000000" >
</path>
<path d="M50.9276 40.2081C50.8096 40.2081 50.6809 40.1652 50.5844 40.0794C50.3592 39.8863 50.327 39.5539 50.5201 39.3286L54.3056 34.8778C54.4986 34.6525 54.8311 34.6204 55.0563 34.8134C55.2815 35.0065 55.3136 35.3389 55.1206 35.5749L51.3351 40.0258C51.2278 40.1545 51.0777 40.2188 50.9276 40.2081Z"   fill="#000000" >
</path>
<path d="M55.1099 38.846L52.2681 38.5671C51.9786 38.535 51.7534 38.2776 51.7855 37.9773C51.8177 37.6877 52.0858 37.4732 52.3753 37.4946L55.1636 37.7735C55.4531 37.8057 55.6783 38.0631 55.6461 38.3634C55.614 38.6422 55.3888 38.846 55.1099 38.846Z"   fill="#000000" >
</path>
<path d="M30.0695 28.121C29.8229 28.121 29.6084 27.9494 29.5441 27.7027C29.4797 27.4132 29.662 27.1236 29.9409 27.0592L32.536 26.4586C32.8256 26.3943 33.1151 26.5766 33.1795 26.8554C33.2438 27.145 33.0615 27.4346 32.7827 27.499L30.1875 28.0996C30.1875 28.0996 30.1017 28.1103 30.0695 28.1103L30.0695 28.121Z"   fill="#000000" >
</path>
<path d="M41.0402 29.2364C40.9651 29.2364 40.89 29.2256 40.8257 29.1935L36.4182 27.2522C36.1501 27.1343 36.0214 26.8125 36.1394 26.5444C36.2573 26.2763 36.579 26.1476 36.8471 26.2655L41.2547 28.2068C41.5227 28.3247 41.6514 28.6465 41.5335 28.9146C41.4477 29.1184 41.2439 29.2364 41.0402 29.2364Z"   fill="#000000" >
</path>
<path d="M30.4021 34.1699C30.4021 34.1699 30.3163 34.1699 30.2734 34.1592C29.9839 34.0841 29.8123 33.7945 29.8766 33.5049L30.4772 31.0811L29.8015 30.3411C29.5978 30.1266 29.6192 29.7834 29.8337 29.5796C30.0589 29.3758 30.3914 29.3973 30.5951 29.6118L31.4637 30.5663C31.5817 30.695 31.6353 30.888 31.5924 31.0596L30.9276 33.7623C30.8632 34.009 30.6487 34.1699 30.4021 34.1699Z"   fill="#000000" >
</path>
<path d="M38.359 34.32C38.359 34.32 38.2732 34.32 38.2303 34.3093C37.9408 34.2342 37.7692 33.9447 37.8335 33.6551L38.4341 31.2312L37.4367 30.1909C37.233 29.9764 37.2437 29.6332 37.4582 29.4294C37.6727 29.2257 38.0158 29.2364 38.2196 29.4509L39.4207 30.7057C39.5494 30.8344 39.5922 31.0275 39.5494 31.2098L38.8845 33.9125C38.8201 34.1592 38.6057 34.32 38.359 34.32Z"   fill="#000000" >
</path>
<path d="M91.2278 78.2925C89.6407 80.6092 87.8605 82.7756 85.9088 84.7919C85.2975 85.4247 84.6755 86.036 84.0321 86.6259C83.7318 86.9047 83.4316 87.1729 83.1313 87.4303C81.6729 88.7387 80.1286 89.9506 78.5093 91.0768C76.1608 92.707 73.6621 94.1548 71.0348 95.3668L72.5898 61.4543C72.5898 61.4543 72.6863 61.5079 72.7506 61.5508C73.1903 61.8511 74.5415 62.752 76.4503 64.2106C76.4503 64.2213 76.4825 64.2321 76.4932 64.2535C80.1286 67.0313 85.7801 71.8146 91.2278 78.2925Z"   fill="#F7734F" >
</path>
<path d="M40.0751 61.5723C35.614 61.5723 34.0161 58.8803 33.9518 58.7516C33.8017 58.4942 33.8982 58.1617 34.1448 58.0223C34.4022 57.8721 34.7239 57.9579 34.874 58.2153C34.9384 58.3226 36.5148 60.8751 41.0724 60.4461C45.4478 60.0386 49.9947 56.9605 50.0376 56.9283C50.2842 56.7567 50.6167 56.8211 50.7883 57.0677C50.9598 57.3144 50.8955 57.6469 50.6488 57.8078C50.4558 57.9365 45.8338 61.0896 41.1797 61.5186C40.7936 61.5508 40.429 61.5723 40.0858 61.5723L40.0751 61.5723Z"   fill="#FFBF69" >
</path>
<path d="M19.8286 89.8648C18.9707 89.2213 18.1342 88.5457 17.3299 87.8485C17.1262 87.6769 16.9224 87.4946 16.7294 87.3123C15.9358 86.6044 15.1637 85.8751 14.4131 85.1244C13.9841 84.6847 13.5551 84.2342 13.1369 83.773C12.7294 83.3226 12.3219 82.8721 11.9358 82.4109C10.724 80.9953 9.58732 79.5045 8.53638 77.9493C11.0029 71.8468 15.0458 64.6825 21.1262 61.5401C21.1476 61.5186 21.1691 61.5079 21.1905 61.4972C21.2227 61.4865 21.2442 61.465 21.2763 61.4543C26.6383 58.7409 22.7991 77.6276 19.8286 89.8648Z"   fill="#F7734F" >
</path>
<path d="M38.4341 42.589C38.2518 42.589 38.0802 42.5032 37.9837 42.3423C37.8228 42.0956 37.8979 41.7631 38.1553 41.6023C39.0453 41.0338 39.9998 40.1329 39.989 39.6932C39.989 39.3929 40.2142 39.157 40.5145 39.1462C40.8148 39.1462 41.0507 39.3822 41.0614 39.6718C41.0936 40.9588 39.1204 42.2672 38.7236 42.5139C38.6378 42.5675 38.5413 42.5997 38.4341 42.589Z"   fill="#000000" >
</path>
</svg>
