<svg xmlns="http://www.w3.org/2000/svg" xmlns:xlink="http://www.w3.org/1999/xlink" width="100" height="100.0011215209961" viewBox="0 0 100 100.0011215209961" fill="none">
<path d="M100 50C100 59.8777 97.1367 69.0905 92.1823 76.8554C88.6112 82.4539 83.9571 87.2909 78.5094 91.0768C75.5925 93.1038 72.4504 94.8305 69.126 96.2141C63.2386 98.6486 56.7828 100 50.0054 100C49.6193 100 49.2225 100 48.8257 99.9893C36.7936 99.7104 25.8123 95.1845 17.3298 87.8486C15.8499 86.5723 14.4558 85.2102 13.1367 83.7731C4.97587 74.882 0 63.0202 0 50C0 22.3831 22.3914 0 50.0054 0C77.6193 0 100 22.3831 100 50Z"   fill="#F2E5DF" >
</path>
<path d="M78.5064 91.0738C75.5895 93.1009 72.4474 94.8276 69.123 96.2111C63.2356 98.6457 56.7799 99.997 50.0024 99.997C49.6163 99.997 49.2195 99.997 48.8228 99.9863C36.7906 99.7075 25.8094 95.1815 17.3268 87.8456C15.8469 86.5693 14.4528 85.2072 13.1338 83.7701C16.6512 76.1446 24.812 61.7624 37.5734 58.3089C37.7236 58.266 37.8737 58.2338 38.0131 58.1909C52.7799 54.4586 72.812 57.9443 76.8013 60.9366C78.4421 62.2879 78.7316 75.7049 78.5064 91.0738Z"   fill="#7C6053" >
</path>
<path d="M41.0146 31.5401C41.0146 31.5401 32.7036 21.2656 36.1889 17.1793C39.6741 13.0931 45.0682 17.1793 45.0682 17.1793C45.0682 17.1793 45.3685 12.3531 50.7412 12.8572C56.1138 13.3505 59.3524 19.0884 59.3524 19.0884C59.3524 19.0884 64.0816 14.3587 67.3203 19.0884C70.5589 23.8181 68.3176 31.5401 68.3176 31.5401C68.3176 31.5401 72.0495 30.9824 71.0522 35.369C70.0548 39.7555 64.1782 44.2814 64.1782 44.2814L41.0039 31.5401L41.0146 31.5401Z"   fill="#000000" >
</path>
<path d="M59.2045 47.7291L59.3653 59.3228C59.3653 59.3228 57.3171 62.6797 50.5503 63.3232C45.5101 63.8059 43.7192 62.6797 43.7192 62.6797L44.3412 56.8024L44.9632 51.0646L57.167 48.201L59.2045 47.7291Z"   fill="#FCA397" >
</path>
<path d="M57.1565 48.2059C57.1351 48.5277 57.0171 48.903 56.8348 49.332C54.3147 55.1557 47.2477 56.4963 44.3308 56.7966L44.9528 51.0588L57.1565 48.1952L57.1565 48.2059Z"   fill="#000000" >
</path>
<path d="M42.0165 24.6779C42.0165 24.6779 36.1291 39.2961 38.6385 47.3291C41.1479 55.3621 48.4938 53.8821 52.8691 52.1875C57.2444 50.493 59.2176 47.7259 59.2176 47.7259C59.2176 47.7259 63.3892 49.0022 66.038 45.0876C68.6868 41.173 66.8637 36.8079 64.4723 35.8641C62.0809 34.9203 59.3356 36.7006 59.3356 36.7006L61.416 32.4428C61.416 32.4428 51.5608 11.4003 42.0273 24.6672L42.0165 24.6779Z"   fill="#FCA397" >
</path>
<path d="M59.8234 43.0375C59.6625 43.0375 59.5017 42.9625 59.3944 42.823C59.2228 42.5871 59.2657 42.2439 59.5124 42.0723L63.877 38.8441C64.1129 38.6725 64.4454 38.7154 64.6277 38.9513C64.7992 39.1873 64.7563 39.5305 64.5097 39.7021L60.1451 42.9303C60.0486 43.0054 59.9413 43.0375 59.8234 43.0375Z"   fill="#000000" >
</path>
<path d="M64.5872 42.9079C64.5872 42.9079 64.5014 42.9079 64.4586 42.8972L61.0055 42.0606C60.7159 41.9963 60.5443 41.696 60.6087 41.4171C60.6838 41.1276 60.9626 40.956 61.2521 41.0203L64.7052 41.8569C64.9948 41.9212 65.1663 42.2215 65.102 42.5004C65.0376 42.747 64.8232 42.9079 64.5872 42.9079Z"   fill="#000000" >
</path>
<path d="M51.4219 31.4803C51.1967 31.4803 50.993 31.3409 50.9179 31.1264C50.1244 28.9063 48.1512 29.2281 48.0654 29.2388C47.7758 29.2924 47.497 29.0994 47.4434 28.7991C47.3898 28.5095 47.5828 28.2306 47.8723 28.177C48.8804 27.9947 51.0466 28.2843 51.926 30.7617C52.0225 31.0406 51.8831 31.3516 51.6043 31.4481C51.5399 31.4696 51.4863 31.4803 51.4219 31.4803Z"   fill="#000000" >
</path>
<path d="M40.5472 30.3411C40.3971 30.3411 40.2469 30.2767 40.1397 30.148C39.9467 29.9228 39.9788 29.5796 40.204 29.3866C40.7188 28.9468 42.0807 27.7885 42.7027 28.4857C42.8957 28.7109 42.8743 29.0434 42.6598 29.2471C42.5204 29.3758 42.3274 29.408 42.1558 29.3544C42.0378 29.3866 41.6732 29.5474 40.9011 30.2017C40.8046 30.2875 40.6759 30.3304 40.5579 30.3304L40.5472 30.3411Z"   fill="#000000" >
</path>
<path d="M42.6493 41.3441C42.4885 41.3441 42.3276 41.269 42.2204 41.1296C40.333 38.6629 43.9576 34.759 44.1078 34.5981C44.3115 34.3836 44.644 34.3729 44.8692 34.5766C45.0836 34.7804 45.0944 35.1129 44.8906 35.3381C44.0112 36.2819 41.963 39.0382 43.0676 40.4861C43.2499 40.7221 43.1962 41.0545 42.971 41.2369C42.8745 41.3119 42.7566 41.3441 42.6493 41.3441Z"   fill="#000000" >
</path>
<path d="M41.7046 36.1797C41.7046 36.1797 41.651 36.1797 41.6296 36.1797C41.34 36.1368 41.1363 35.8686 41.1792 35.5683L41.5652 32.8442C41.6081 32.5546 41.8869 32.3508 42.1765 32.3937C42.466 32.4366 42.6698 32.7048 42.6269 33.0051L42.2408 35.7292C42.1979 35.9973 41.9727 36.1904 41.7154 36.1904L41.7046 36.1797Z"   fill="#000000" >
</path>
<path d="M49.6902 36.1885C49.3577 36.167 49.1325 35.9096 49.154 35.6201L49.3256 32.8745C49.347 32.5849 49.5722 32.3597 49.8939 32.3704C50.1942 32.3918 50.4194 32.6492 50.398 32.9388L50.2264 35.6844C50.2049 35.9633 49.969 36.1885 49.6902 36.1885Z"   fill="#000000" >
</path>
<path d="M40.8315 27.9713C40.8315 27.9713 42.054 25.6225 44.9494 25.5689C47.8449 25.5152 49.5607 27.5208 49.5607 27.5208C49.5607 27.5208 48.3596 32.4114 52.3274 34.9425C56.2953 37.4736 59.3301 36.7121 59.3301 36.7121L62.1719 35.6611L64.2095 31.4676L55.8449 22.6838L45.0888 17.1926L39.7162 22.2012L40.8529 27.9713L40.8315 27.9713Z" fill-rule="evenodd"  fill="#000000" >
</path>
<path d="M45.7705 45.9271C45.6418 45.9271 45.556 45.9271 45.5452 45.9271C45.2557 45.9057 45.0305 45.6483 45.052 45.348C45.0734 45.0584 45.3308 44.8225 45.631 44.8546C45.7276 44.8546 47.9581 45.0048 48.8911 42.967C49.0091 42.6989 49.3308 42.5809 49.5989 42.6989C49.867 42.8169 49.9849 43.1386 49.867 43.4068C48.816 45.7341 46.5211 45.9271 45.7812 45.9271L45.7705 45.9271Z"   fill="#000000" >
</path>
<path d="M92.1793 76.8594C88.6083 82.4579 83.9541 87.2948 78.5064 91.0808C75.5895 93.1078 72.4474 94.8345 69.123 96.218L76.8013 60.9435C77.3268 61.3081 85.5198 67.0889 92.1793 76.8594Z"   fill="#7C6053" >
</path>
<path d="M48.8366 63.9233C45.1583 63.9233 42.2843 63.1082 42.1449 63.0653C41.866 62.9795 41.6945 62.6899 41.7803 62.4003C41.866 62.1108 42.1556 61.9499 42.4451 62.0357C42.4773 62.0357 46.2307 63.0975 50.5095 62.7864C55.421 62.4218 60.1181 58.9254 60.1609 58.8933C60.3969 58.7109 60.7293 58.7646 60.9116 59.0005C61.0939 59.2365 61.0403 59.5689 60.8044 59.7513C60.6006 59.9014 55.8178 63.4728 50.5845 63.8589C49.984 63.9018 49.4049 63.9233 48.8366 63.9233Z"   fill="#FFBF69" >
</path>
</svg>
