<svg xmlns="http://www.w3.org/2000/svg" xmlns:xlink="http://www.w3.org/1999/xlink" width="100" height="100" viewBox="0 0 100 100" fill="none">
<path d="M100 50C100 56.7139 98.681 63.1167 96.2788 68.9618C94.5201 73.2411 92.1823 77.2308 89.362 80.8237C82.8847 89.0927 73.8552 95.2703 63.4531 98.166C59.1743 99.3672 54.6595 100 50.0054 100C48.2359 100 46.4879 99.9142 44.7614 99.7319C43.6354 99.6139 42.5201 99.453 41.4156 99.26C40.193 99.0455 38.992 98.7881 37.8016 98.4878C37.5764 98.4342 37.3405 98.3805 37.1153 98.3162C35.2064 97.8121 33.3298 97.19 31.5174 96.4607C28.3217 95.1952 25.2761 93.5972 22.445 91.7203C21.5657 91.1411 20.6971 90.5298 19.8606 89.897C18.1877 88.6315 16.6005 87.2694 15.0992 85.8001C11.5282 82.3252 8.4933 78.3248 6.09115 73.9275C2.20912 66.8168 0 58.6658 0 50C0 22.3831 22.3914 0 50.0054 0C77.6193 0 100 22.3831 100 50Z"   fill="#F2E5DF" >
</path>
<path d="M37.6836 28.3248C37.6836 28.3248 32.9007 32.3359 32.4503 36.3685L31.9999 40.3904C31.9999 40.3904 26.2627 42.2244 24.5361 49.1527C22.1876 58.5586 28.6005 61.8297 28.6005 61.8297L78.4021 67.2029C78.4021 67.2029 84.2573 62.0764 83.0777 53.8288C81.8981 45.5813 77.0831 42.9644 77.0831 42.9644C77.0831 42.9644 77.8766 37.6662 75.2064 32.3466C72.1286 26.2012 65.8123 26.1476 65.8123 26.1476L37.6836 28.3248Z"   fill="#000000" >
</path>
<path d="M89.3619 80.8237C82.8847 89.0927 73.8552 95.2703 63.4531 98.166C59.1743 99.3672 54.6595 100 50.0054 100C48.2359 100 46.4879 99.9142 44.7614 99.7319C43.6354 99.6139 42.5201 99.453 41.4156 99.26C40.193 99.0455 38.992 98.7881 37.8016 98.4878C37.5764 98.4341 37.3405 98.3805 37.1153 98.3162C35.2064 97.8121 33.3298 97.19 31.5174 96.4607C28.3217 95.1952 25.2761 93.5972 22.445 91.7203C22.5523 89.0498 22.7346 87.5375 22.7346 87.5375L30.8097 62.0656L31.6032 59.556C32.0751 58.0545 33.0402 56.7997 34.3164 55.9631C34.9705 55.5234 35.7105 55.2016 36.504 55.03C37.9839 54.6868 39.8284 54.3115 41.9196 53.9575C42.5737 53.861 43.2279 53.7538 43.9249 53.6572C46.0912 53.3569 48.4718 53.121 50.9276 53.0137C52.4075 52.9494 53.8874 52.9387 55.378 52.9923C56.0429 53.0137 56.7078 53.0459 57.3727 53.0888C58.1448 53.1532 58.9062 53.2282 59.6783 53.314C60.5362 53.4213 61.3834 53.55 62.2306 53.7216C64.1609 54.0862 66.0483 54.601 67.8391 55.2982C72.5898 57.1536 76.7185 60.9717 80.118 65.251C84.4504 70.71 87.6032 76.9305 89.3619 80.8237Z"   fill="#507849" >
</path>
<path d="M57.5229 50.6971C57.5229 50.6971 61.0188 51.8447 62.0805 53.4749C63.2708 55.2982 61.0403 60.1137 54.7132 63.8567C50.0912 66.5916 46.177 67.5569 46.177 67.5569C46.177 67.5569 42.1448 61.9799 41.3727 58.6015C40.6006 55.2124 43.4317 50.7722 43.4317 50.7722L57.5229 50.6971Z"   fill="#FCB35B" >
</path>
<path d="M38.9813 34.5882C38.9813 34.5882 34.7668 28.1532 34.799 25C34.8311 21.8469 45.3512 10.7251 56.3539 13.8139C67.3566 16.9027 70.2413 30.2338 68.8472 36.1648C65.2547 51.4479 51.8499 46.8791 51.8499 46.8791C51.8499 46.8791 31.2172 44.112 38.9813 34.5882Z"   fill="#000000" >
</path>
<path d="M43.4103 50.4826L43.4425 50.7615L44.3111 55.9953L44.976 60.103C44.976 60.103 44.7401 61.1004 49.5015 60.2102C55.8822 58.9876 57.6302 55.9738 57.6302 55.9738L56.7294 46.2677L54.8205 46.879L43.4103 50.4826Z"   fill="#F27E64" >
</path>
<path d="M43.4423 50.7615L44.311 55.9953C47.3887 55.2338 52.9222 53.1853 54.6273 47.9944C54.756 47.5762 54.8311 47.2008 54.8311 46.8898L43.453 50.6757L43.4423 50.7615Z"   fill="#000000" >
</path>
<path d="M38.3485 25.8259C38.3485 25.8259 34.0268 40.2617 37.1153 47.6942C40.2038 55.1266 47.0777 53.0674 51.0885 51.0725C55.0992 49.0777 56.74 46.2677 56.74 46.2677C56.74 46.2677 60.8257 47.1257 63.0027 43.1575C65.1796 39.1892 63.0563 35.1995 60.7078 34.5131C58.3593 33.8267 55.882 35.7679 55.882 35.7679L57.4799 31.5316C57.4799 31.5316 46.2413 12.3553 38.3378 25.8366L38.3485 25.8259Z"   fill="#F27E64" >
</path>
<path d="M41.0295 43.2539C40.8258 43.2539 40.6328 43.136 40.547 42.9429C39.2494 40.0901 40.9545 36.8082 41.0188 36.6688C41.1582 36.4007 41.4799 36.3041 41.7373 36.4436C41.9947 36.583 42.1019 36.9047 41.9625 37.1621C41.9518 37.1943 40.4397 40.1222 41.5121 42.4925C41.6301 42.7606 41.5121 43.0823 41.244 43.2003C41.169 43.2325 41.0939 43.2432 41.0188 43.2432L41.0295 43.2539Z"   fill="#000000" >
</path>
<path d="M57.2332 42.2029C57.126 42.2029 57.0188 42.1708 56.9223 42.0957C56.6863 41.9241 56.6327 41.5809 56.8043 41.3449L60.0215 36.9262C60.193 36.6903 60.5362 36.6367 60.7721 36.8083C61.008 36.9799 61.0617 37.3231 60.8901 37.559L57.6729 41.9777C57.5657 42.1171 57.4048 42.2029 57.2332 42.2029Z"   fill="#000000" >
</path>
<path d="M61.0294 40.6478L58.3913 40.5835C58.0911 40.5835 57.8659 40.3261 57.8659 40.0365C57.8659 39.7362 58.1125 39.5002 58.4128 39.511L61.0401 39.5753C61.3404 39.5753 61.5656 39.8327 61.5656 40.1223C61.5656 40.4119 61.319 40.6478 61.0294 40.6478Z"   fill="#000000" >
</path>
<path   fill-rule="evenodd"  fill="#000000"  d="M44.1502 48.3269C43.9893 48.3269 43.8392 48.3054 43.6783 48.2518C42.4987 47.8764 41.8231 46.2033 41.748 46.0103C41.6515 45.7529 41.7588 45.4526 42.0161 45.3346L47.1422 42.8679C47.3352 42.7713 47.5711 42.8035 47.732 42.9429C47.8928 43.0824 47.9572 43.3076 47.8928 43.5114C47.8499 43.6508 46.7668 46.9005 45.1261 48.0051C44.8151 48.2089 44.4934 48.3162 44.1609 48.3162L44.1502 48.3269ZM42.9491 46.0746C43.2065 46.568 43.6033 47.1042 44.0001 47.2329C44.118 47.2651 44.2789 47.2866 44.5148 47.1257C45.2548 46.6323 45.9196 45.4311 46.37 44.4337L42.9491 46.0746Z">
</path>
<path d="M48.3325 32.1643C48.1609 32.1643 47.9893 32.0785 47.8928 31.9283C47.1529 30.8558 45.555 31.4028 45.5443 31.4028C45.2655 31.4993 44.9545 31.3599 44.8579 31.0811C44.7614 30.8022 44.9008 30.4912 45.1797 30.3947C45.2762 30.3625 47.5711 29.5688 48.7722 31.317C48.9437 31.5637 48.8794 31.8962 48.6328 32.0678C48.5362 32.1321 48.429 32.1643 48.3325 32.1643Z"   fill="#000000" >
</path>
<path d="M36.6112 32.1C36.4826 32.1 36.3539 32.0571 36.2574 31.9713C36.0322 31.7782 36.0107 31.435 36.2037 31.2205C36.311 31.1026 37.2868 30.0301 38.5094 30.0193C39.1314 30.0193 39.6997 30.2982 40.1608 30.813C40.3539 31.0382 40.3432 31.3707 40.118 31.5745C39.8927 31.7675 39.5603 31.7461 39.3566 31.5316C39.0992 31.242 38.8204 31.0918 38.5201 31.1026C37.8874 31.1026 37.2118 31.7032 37.008 31.9391C36.9008 32.0571 36.7507 32.1214 36.6112 32.1214L36.6112 32.1Z"   fill="#000000" >
</path>
<path d="M55.882 35.7572C55.882 35.7572 49.512 33.4621 46.7988 29.4295C44.0857 25.4076 43.7318 23.2519 43.7318 23.2519C43.7318 23.2519 43.2171 26.1905 41.1259 27.1343C39.0348 28.0781 37.6836 28.3248 37.6836 28.3248L36.8042 32.5183L36.4825 22.8336C36.4825 22.8336 41.9838 18.919 42.7774 18.8224C43.571 18.7259 53.7694 19.23 54.4235 19.7555C55.0777 20.281 59.2171 27.6277 59.2171 27.6277L59.882 31.1026L55.882 35.768L55.882 35.7572Z"   fill="#000000" >
</path>
<path d="M48.2575 35.5105C48.0537 35.5105 47.8607 35.3925 47.7749 35.1995C47.5604 34.7383 47.303 34.4809 46.9813 34.4166C46.3486 34.2879 45.5122 34.8992 45.2548 35.1459C45.0403 35.3496 44.6971 35.3389 44.4934 35.1244C44.2896 34.9099 44.3004 34.5667 44.5148 34.3629C44.6542 34.2342 45.9089 33.1081 47.1851 33.3655C47.6462 33.462 48.2896 33.7731 48.74 34.749C48.8687 35.0172 48.74 35.3389 48.4719 35.4569C48.3969 35.4891 48.3218 35.5105 48.2575 35.5105Z"   fill="#000000" >
</path>
<path d="M37.5548 35.5427C37.4905 35.5427 37.4261 35.532 37.3618 35.5105C37.083 35.4033 36.9436 35.0922 37.0508 34.8134C37.4476 33.7731 37.9838 33.2261 38.6379 33.1832C39.7103 33.0974 40.461 34.4058 40.5468 34.556C40.6969 34.8134 40.6004 35.1351 40.343 35.2853C40.0857 35.4354 39.7639 35.3389 39.6138 35.0815C39.4101 34.7276 38.9918 34.2128 38.7237 34.2557C38.5736 34.2664 38.3162 34.5238 38.0588 35.1995C37.9731 35.414 37.7693 35.5427 37.5548 35.5427Z"   fill="#000000" >
</path>
<path d="M57.2119 51.3835C57.2119 51.3835 50.3915 57.8078 46.4023 57.8507C42.413 57.8936 42.9706 54.5689 42.9706 54.5689L43.6248 62.2265L47.1529 63.3848L55.9679 59.8349L60.9116 54.3007L57.2119 51.3835Z" fill-rule="evenodd"  fill="#FCB35B" >
</path>
<path d="M50.0054 63.7709C50.0054 63.7709 52.9973 67.8571 53.5978 74.2814C54.2091 80.695 50.4772 87.9129 50.4772 87.9129C50.4772 87.9129 44.504 81.1454 43.7104 76.0296C42.9169 70.9138 45.6515 63.6529 45.6515 63.6529C45.6515 63.6529 42.949 69.8091 42.2734 73.5843C41.6086 77.3488 40.6863 82.1965 40.6863 82.1965C40.6863 82.1965 37.0616 77.3917 37.2761 71.686C37.4906 65.9803 43.6139 62.2372 43.6139 62.2372L49.9839 63.7816L50.0054 63.7709Z"   fill="#FCB35B" >
</path>
<path   fill-rule="evenodd"  fill="#F7734F"  d="M49.2333 65.6586C47.5818 65.6586 45.4692 65.0794 45.1582 65.0043C45.1153 64.9936 45.1046 64.9829 45.0832 64.9722C44.9652 64.9185 44.858 64.822 44.8043 64.6933C44.4397 63.846 42.7025 59.5131 43.8285 57.958C44.0429 57.6577 44.4612 57.3038 45.2333 57.3681C45.8446 57.4218 46.3164 57.7006 46.6167 58.194C47.5068 59.6633 46.5094 62.7843 46.0161 64.1142C47.1743 64.393 49.1475 64.7577 50.059 64.5003C51.0242 64.2214 51.5711 60.8967 51.185 59.0305C51.1207 58.7409 51.3137 58.4514 51.6033 58.3977C51.8821 58.3334 52.1824 58.5264 52.236 58.816C52.5791 60.5106 52.3539 64.9614 50.3593 65.5406C50.0376 65.6371 49.6515 65.6693 49.2333 65.6693L49.2333 65.6586ZM45.0617 58.4299C44.8151 58.4299 44.74 58.5264 44.7078 58.5801C44.2574 59.2021 44.7078 61.2077 45.2976 62.9451C45.8017 61.39 46.177 59.5131 45.7051 58.7517C45.5872 58.5586 45.4156 58.4514 45.1475 58.4299C45.1153 58.4299 45.0832 58.4299 45.0617 58.4299Z">
</path>
<path   fill-rule="evenodd"  fill="#F7734F"  d="M49.0402 74.3457C48.579 74.3457 48.1823 74.1527 47.882 73.7773C46.4557 72.0077 47.7855 65.8944 47.9356 65.208C47.9892 64.9721 48.1823 64.8005 48.4289 64.7898C48.6541 64.7683 48.89 64.9185 48.9651 65.1437C49.3833 66.2805 51.378 72.0291 50.1662 73.7666C49.8981 74.142 49.512 74.3457 49.0509 74.3457L49.0402 74.3457ZM48.6005 67.4817C48.2466 69.7447 48.0965 72.3294 48.7185 73.1124C48.815 73.2303 48.9008 73.2732 49.0402 73.2732C49.1796 73.2732 49.2332 73.2303 49.2868 73.1553C49.7908 72.426 49.2868 69.8305 48.6005 67.4817Z">
</path>
<path d="M37.8015 98.4878C37.5763 98.4341 37.3404 98.3805 37.1152 98.3162C35.2064 97.8121 33.3297 97.19 31.5174 96.4607C28.3216 95.1952 25.2761 93.5972 22.445 91.7203C21.5656 91.1411 20.697 90.5298 19.8605 89.897C18.1876 88.6315 16.6005 87.2694 15.0991 85.8001C15.1206 85.6607 15.1527 85.5212 15.1849 85.3818C17.9195 73.0051 23.1098 65.3904 27.3994 60.9717C31.2814 56.982 35.0026 55.5663 35.0026 55.5663C34.9597 55.695 34.3592 55.8237 34.3163 55.9631C33.8981 57.5075 33.705 59.7061 33.6943 62.3767C33.6621 71.5894 35.764 86.3471 37.8015 98.4878Z"   fill="#507849" >
</path>
</svg>
