<svg xmlns="http://www.w3.org/2000/svg" xmlns:xlink="http://www.w3.org/1999/xlink" width="100" height="100" viewBox="0 0 100 100" fill="none">
<path d="M100 50C100 55.2231 99.2064 60.2638 97.7156 64.9935C95.4419 72.2222 91.5809 78.743 86.5294 84.1377C86.4221 84.2664 86.3149 84.3844 86.1969 84.5023L86.0682 84.631C85.961 84.749 85.843 84.867 85.7357 84.9742C82.7327 88.0416 79.3329 90.7336 75.6113 92.9429C68.1253 97.426 59.3629 100 50 100C48.091 100 46.1926 99.8927 44.3372 99.6889C44.0798 99.6675 43.8331 99.6353 43.5864 99.6031C43.565 99.5924 43.5543 99.5924 43.5328 99.5924C41.1626 99.2814 38.846 98.8095 36.5937 98.1767C33.9447 97.4474 31.3814 96.4929 28.9361 95.356C28.5607 95.1844 28.1853 95.0021 27.81 94.8198C25.3968 93.6293 23.1017 92.2458 20.9459 90.6907C18.7795 89.1463 16.7417 87.4303 14.8541 85.5534C12.8271 83.5585 10.9717 81.3706 9.32004 79.054C8.91249 78.4749 8.50494 77.8957 8.11883 77.2951C7.15358 75.8365 6.27413 74.3243 5.48048 72.7692C1.9734 65.9373 0 58.2046 0 50C0 22.3831 22.3831 0 50 0C77.6169 0 100 22.3831 100 50Z"   fill="#F2E5DF" >
</path>
<path d="M39.7897 30.1587C39.7897 30.1587 23.6379 36.3363 22.8228 54.6117C21.6323 81.0274 53.2925 74.9035 53.2925 74.9035C53.2925 74.9035 71.2247 76.7589 76.1797 63.5457C81.1347 50.3325 65.1973 42.3531 65.1973 42.3531C65.1973 42.3531 45.8708 25.3325 39.7897 30.1694L39.7897 30.1587Z"   fill="#000000" >
</path>
<path d="M86.0683 84.6311C85.9611 84.7491 85.8431 84.867 85.7358 84.9743C82.8723 87.8915 79.6548 90.4762 76.1369 92.6212C75.9653 92.7285 75.783 92.8357 75.6114 92.943C75.3862 93.0824 75.1503 93.2218 74.9143 93.3505C67.5891 97.5869 59.0735 100 50.0001 100C48.091 100 46.1927 99.8928 44.3373 99.689C44.0799 99.6675 43.8332 99.6354 43.5865 99.6032C43.5651 99.5925 43.5544 99.5925 43.5329 99.5925C41.1627 99.2814 38.8461 98.8095 36.5938 98.1768C33.9448 97.4475 31.3815 96.4929 28.9362 95.3561C28.5608 95.1845 28.1854 95.0022 27.81 94.8198C25.3969 93.6294 23.1018 92.2458 20.946 90.6907C18.7796 89.1463 16.7418 87.4303 14.8542 85.5534C18.4793 75.5256 27.7564 56.8319 47.2116 53.786C47.2545 53.786 47.2974 53.7752 47.3403 53.7645C48.638 53.5715 49.9894 53.4428 51.3836 53.3891C73.327 52.5848 82.6256 73.2519 86.0683 84.6311Z"   fill="#7C6053" >
</path>
<path d="M75.6114 92.943C68.1254 97.426 59.363 100 50.0001 100C48.091 100 46.1927 99.8928 44.3373 99.689C44.0799 99.6676 43.8332 99.6354 43.5865 99.6032C43.5651 99.5925 43.5543 99.5925 43.5329 99.5925C41.1627 99.2815 38.8461 98.8096 36.5938 98.1768C33.9447 97.4475 31.3815 96.493 28.9362 95.3561C28.5608 95.1845 28.1854 95.0022 27.81 94.8199C25.3969 93.6294 23.1017 92.2459 20.946 90.6907C20.8495 83.3227 20.7959 77.5097 20.7959 77.5097L39.8435 63.3741L49.1957 56.4351C49.3137 56.4351 49.4317 56.4351 49.5496 56.4458C54.6976 56.553 59.0413 57.6041 62.4625 58.8696C63.0095 59.0841 63.535 59.2879 64.0391 59.5024C68.7903 61.5187 71.3643 63.7817 71.3643 63.7817C71.3643 63.7817 73.5951 78.5608 75.6114 92.943Z"   fill="#7C6053" >
</path>
<path d="M47.072 46.4071L47.4688 57.057C47.4688 57.057 49.5066 60.0493 55.7485 60.3174C60.4032 60.5212 61.9905 59.4165 61.9905 59.4165L61.1432 54.054L60.3067 48.8202L48.9703 46.7718L47.072 46.4286L47.072 46.4071Z" fill-rule="evenodd"  fill="#FCA397" >
</path>
<path d="M47.072 45.8923C47.1149 46.1819 47.2329 46.5251 47.4152 46.9112C49.9999 52.145 58.4512 53.8932 61.1432 54.0326L60.3067 48.7988L47.072 45.8923Z"   fill="#000000" >
</path>
<path d="M61.7761 24.453C61.7761 24.453 67.8572 37.5911 65.9374 45.0879C64.0069 52.5847 57.1965 51.5658 53.0996 50.2145C49.0026 48.8631 47.0614 46.4071 47.0614 46.4071C47.0614 46.4071 43.2969 47.7799 40.68 44.305C38.0631 40.8301 39.5431 36.7439 41.6881 35.7679C43.8331 34.7919 46.4501 36.3041 46.4501 36.3041L44.3479 32.4967C44.3479 32.4967 52.4132 12.7198 61.7761 24.453Z"   fill="#FCA397" >
</path>
<path d="M63.7388 29.9442C63.7388 29.9442 63.6852 29.9442 63.6637 29.9442L61.0683 29.5581C60.7787 29.5152 60.5749 29.2471 60.6178 28.9468C60.6607 28.6572 60.9396 28.4535 61.2292 28.4964L63.8246 28.8825C64.1142 28.9254 64.318 29.1935 64.2751 29.4938C64.2322 29.7619 64.007 29.955 63.7495 29.955L63.7388 29.9442Z"   fill="#000000" >
</path>
<path d="M54.0541 31.0167C53.8396 31.0167 53.6466 30.888 53.5608 30.6843C53.4428 30.4161 53.5715 30.0944 53.8504 29.9871L56.8641 28.7216C57.1322 28.6036 57.454 28.7323 57.5612 29.0112C57.6792 29.2793 57.5505 29.601 57.2716 29.7083L54.2579 30.9738C54.1936 31.006 54.1185 31.0167 54.0541 31.0167Z"   fill="#000000" >
</path>
<path d="M61.6903 40.7122C61.6903 40.7122 61.6581 40.7122 61.6367 40.7122C61.3471 40.68 61.1219 40.4226 61.154 40.1223C61.5723 36.0361 59.8778 33.9769 59.8563 33.9554C59.6633 33.7302 59.6954 33.387 59.9207 33.2047C60.1459 33.0116 60.4784 33.0331 60.6714 33.2583C60.7572 33.3548 62.6877 35.65 62.2158 40.2295C62.1836 40.5084 61.9584 40.7122 61.6903 40.7122Z"   fill="#000000" >
</path>
<path   fill-rule="evenodd"  fill="#000000"  d="M57.5505 45.1524C57.3467 45.1524 57.1322 45.1202 56.9177 45.0666C55.2232 44.5839 55.0301 42.6427 55.0194 42.5569C55.0087 42.3853 55.073 42.2137 55.2017 42.0957C55.3304 41.9778 55.5128 41.9456 55.6844 41.9885L59.6204 43.0074C59.792 43.0503 59.9315 43.179 59.9958 43.3506C60.0602 43.5222 60.028 43.7045 59.9207 43.8546C59.8778 43.919 58.9126 45.1524 57.5505 45.1524ZM56.3386 43.2648C56.4995 43.5865 56.7676 43.9083 57.218 44.037C57.6685 44.1657 58.0868 44.0155 58.4085 43.801L56.3386 43.2648Z">
</path>
<path d="M46.4607 41.8061C46.3857 41.8061 46.3106 41.7954 46.2355 41.7632L40.8837 39.3286C40.6156 39.2106 40.4976 38.8889 40.6156 38.6208C40.7336 38.3526 41.0553 38.2347 41.3235 38.3526L46.6752 40.7872C46.9434 40.9052 47.0613 41.2269 46.9434 41.4951C46.8576 41.6881 46.6538 41.8061 46.4607 41.8061Z"   fill="#000000" >
</path>
<path d="M41.6989 43.0502C41.5595 43.0502 41.42 42.9966 41.3128 42.8894C41.109 42.6749 41.109 42.3424 41.3128 42.1279L43.6723 39.8006C43.8868 39.5861 44.2193 39.5968 44.4338 39.8006C44.6375 40.0151 44.6375 40.3475 44.4338 40.562L42.0743 42.8894C41.967 42.9966 41.8383 43.0395 41.6989 43.0395L41.6989 43.0502Z"   fill="#000000" >
</path>
<path d="M54.054 25.2252C54.054 25.2252 57.0999 24.764 60.2745 26.6838C63.4492 28.6036 64.1034 30.4805 64.1034 30.4805C64.1034 30.4805 66.0661 25.5255 61.7653 21.139C57.4539 16.7632 49.1956 15.5513 44.423 20.7314C39.6611 25.9116 39.9506 30.4805 39.9506 30.4805L46.45 36.3042C46.45 36.3042 56.4886 34.3736 54.054 25.2252Z"   fill="#000000" >
</path>
<path d="M43.2647 22.9515C43.2647 22.9515 37.13 11.3041 30.9202 16.2269C24.7104 21.1497 31.628 31.0811 37.7949 31.7996C43.9725 32.5289 43.2647 22.9515 43.2647 22.9515Z"   fill="#000000" >
</path>
<path d="M44.3372 99.6889C44.0798 99.6675 43.8331 99.6353 43.5864 99.6031C43.565 99.5924 43.5542 99.5924 43.5328 99.5924C41.1626 99.2814 38.8459 98.8095 36.5937 98.1767L39.8434 63.3741L39.9506 62.2694L47.2115 53.7859L47.2973 53.6894C47.2973 53.6894 47.308 53.7108 47.3402 53.7645C47.5225 54.054 48.2732 55.2123 49.5495 56.4457C51.9948 58.8159 56.3921 61.4865 62.441 58.8803C63.4384 58.4513 63.9318 58.7087 64.039 59.5023C64.5967 63.8781 53.0351 84.7383 44.3372 99.6889Z"   fill="#7C6053" >
</path>
<path d="M76.1369 92.6212C75.9653 92.7284 75.783 92.8357 75.6114 92.9429C75.3861 93.0823 75.1502 93.2218 74.9142 93.3505C77.2416 81.199 72.4797 74.2385 72.426 74.1634C72.2544 73.9167 72.2973 73.5628 72.5333 73.3805C72.78 73.1982 73.1124 73.2518 73.284 73.4985C73.4985 73.7988 78.1532 80.5555 76.1369 92.6212Z"   fill="#FCB35B" >
</path>
<path d="M57.4432 60.4783C50.4505 60.4783 46.8684 54.0219 46.8255 53.9468C46.686 53.6894 46.7826 53.3569 47.04 53.2175C47.2974 53.0781 47.6298 53.1746 47.7693 53.432C47.9623 53.7967 52.7242 62.3123 62.2373 58.3762C62.5054 58.2583 62.8272 58.3977 62.9344 58.6658C63.0524 58.9339 62.913 59.2557 62.6448 59.3629C60.7465 60.1566 59.0091 60.4783 57.4432 60.4783Z"   fill="#FCB35B" >
</path>
<path d="M47.7907 45.8923C47.7907 46.9434 46.9327 47.8014 45.8817 47.8014C44.8306 47.8014 43.9726 46.9434 43.9726 45.8923C43.9726 44.8413 44.8306 43.9833 45.8817 43.9833C46.9327 43.9833 47.7907 44.8413 47.7907 45.8923Z"   fill="#7772D3" >
</path>
<path d="M55.5557 36.4865C55.2554 36.4865 55.0194 36.2506 55.0194 35.9503L55.0194 33.6122C55.0194 33.4728 55.073 33.3334 55.1696 33.2368L56.1992 32.1858C56.403 31.9713 56.7462 31.9713 56.9607 32.1858C57.1752 32.3896 57.1752 32.7328 56.9607 32.9473L56.0812 33.8374L56.0812 35.9503C56.0812 36.2506 55.8452 36.4865 55.5449 36.4865L55.5557 36.4865Z" fill-rule="evenodd"  fill="#000000" >
</path>
<path d="M63.2239 36.4865C62.9236 36.4865 62.6877 36.2506 62.6877 35.9503L62.6877 33.6122C62.6877 33.4728 62.7413 33.3334 62.8378 33.2368L63.8674 32.1858C64.0712 31.9713 64.4144 31.9713 64.6289 32.1858C64.8434 32.3896 64.8434 32.7328 64.6289 32.9473L63.7495 33.8374L63.7495 35.9503C63.7495 36.2506 63.5135 36.4865 63.2132 36.4865L63.2239 36.4865Z" fill-rule="evenodd"  fill="#000000" >
</path>
</svg>
