<svg xmlns="http://www.w3.org/2000/svg" xmlns:xlink="http://www.w3.org/1999/xlink" width="100" height="100.0037841796875" viewBox="0 0 100 100.0037841796875" fill="none">
<path d="M100 50.0054C100 58.37 97.9518 66.252 94.3057 73.1796C94.2735 73.2547 94.2413 73.319 94.1984 73.3941C93.9947 73.7802 93.7909 74.1555 93.5657 74.5308C87.9571 84.4933 79.0242 92.3324 68.2681 96.5469C67.6032 96.8043 66.9276 97.0509 66.252 97.2869C65.6408 97.5013 65.0295 97.7051 64.4183 97.8874C63.7855 98.0804 63.1528 98.252 62.5201 98.4129C60.3861 98.9705 58.1984 99.378 55.9571 99.6461C55.5603 99.6997 55.1421 99.7426 54.7346 99.7748C53.1796 99.9249 51.5925 100 49.9947 100C48.1287 100 46.2842 99.8928 44.4719 99.689C42.252 99.4531 40.0644 99.0563 37.941 98.5308C36.3754 98.1448 34.8526 97.6836 33.3512 97.1475C33.1046 97.0617 32.8472 96.9759 32.6005 96.8794C32.0215 96.6649 31.4531 96.4397 30.8847 96.2038C29.3941 95.5925 27.9464 94.9169 26.5416 94.1555C25.941 93.8338 25.3512 93.5013 24.7614 93.1582C24.6113 93.0724 24.4611 92.9866 24.311 92.8901C23.1421 92.193 22.0161 91.4531 20.9223 90.6702C20.2574 90.1984 19.6032 89.7051 18.9705 89.2011C15.8713 86.756 13.0724 83.9464 10.6381 80.8365C10.2949 80.3968 9.95175 79.9464 9.61931 79.4853C9.01877 78.6595 8.43968 77.8231 7.88204 76.9544C2.88472 69.1796 0 59.9357 0 50.0054C0 22.3914 22.3914 0 49.9947 0C77.5979 0 100 22.3914 100 50.0054Z"   fill="#F2E5DF" >
</path>
<path d="M67.7211 89.8661L66.6702 90.3165L63.4209 91.6784L44.4718 99.6891C42.2519 99.4532 40.0643 99.0564 37.941 98.5309C36.3753 98.1449 34.8525 97.6837 33.3511 97.1476C33.1045 97.0618 32.8471 96.976 32.6005 96.8795C32.0214 96.665 31.453 96.4398 30.8847 96.2038C29.394 95.5926 27.9463 94.917 26.5415 94.1556C25.941 93.8339 25.3511 93.5014 24.7613 93.1583C24.6112 93.0725 24.4611 92.9867 24.3109 92.8902C23.142 92.1931 22.016 91.4532 20.9222 90.6703C20.2573 90.1985 19.6031 89.7052 18.9704 89.2012C15.8712 86.7561 13.0723 83.9465 10.638 80.8366C10.2948 80.3969 9.95167 79.9465 9.61923 79.4854C15.882 69.7803 27.9678 54.295 42.4021 52.354C44.4611 52.0752 46.3592 52.2039 48.1072 52.665C52.3646 53.7803 55.7318 56.858 58.3806 60.7937C58.7989 61.3942 59.1849 62.0055 59.5495 62.6489C66.0911 73.791 67.7211 89.8661 67.7211 89.8661Z"   fill="#5F8457" >
</path>
<path d="M37.4156 29.8981C37.4156 29.8981 33.5979 18.8097 36.8901 13.9303C39.8392 9.57641 54.3057 11.882 59.4532 15.2279C64.6006 18.563 64.7722 22.9491 64.7722 22.9491C64.7722 22.9491 67.2923 23.6139 67.8821 25.7802C68.4719 27.9464 66.5953 31.5174 66.5953 31.5174C66.5953 31.5174 64.043 28.2788 60.3861 30.3378C56.7293 32.4075 37.4156 29.8874 37.4156 29.8874L37.4156 29.8981Z"   fill="#000000" >
</path>
<path d="M68.2684 96.5468C67.6036 96.8042 66.9279 97.0508 66.2523 97.2867C65.6411 97.5012 65.0298 97.705 64.4186 97.8873C63.7859 98.0803 63.1532 98.2519 62.5204 98.4128C58.5204 99.453 54.3167 99.9999 49.995 99.9999C48.129 99.9999 46.2845 99.8926 44.4722 99.6889C42.2523 99.453 40.0647 99.0562 37.9413 98.5307C36.3757 98.1447 34.8529 97.6835 33.3515 97.1473C33.1049 97.0615 32.8475 96.9758 32.6009 96.8792C32.0218 96.6648 31.4534 96.4396 30.885 96.2036C29.3944 95.5924 27.9467 94.9168 26.5419 94.1554C27.1746 88.3001 27.7429 84.3538 27.7429 84.3538L42.4025 52.3538L48.1076 52.6648L57.1049 53.1473C57.1049 53.1795 57.1263 53.2117 57.1263 53.2438C57.1263 53.276 59.5499 62.6487 59.5499 62.6487L66.6706 90.3162L68.2684 96.5468Z"   fill="#FFFFFF" >
</path>
<path d="M57.2013 45.7802L57.7804 55.4639C57.7804 55.4639 54.1342 58.4558 50.0806 58.6596C44.6115 58.9384 42.5417 54.7776 42.5417 54.7776L42.5846 44.9009L57.2013 45.7802Z"   fill="#FCA397" >
</path>
<path d="M56.847 47.1744C56.847 47.1744 55.1633 53.8124 48.8899 53.0832C43.8282 52.5041 42.2303 45.7695 42.2303 45.7695L56.847 47.1744Z"   fill="#000000" >
</path>
<path d="M38.992 23.6997C38.992 23.6997 36.5898 38.9061 41.7373 45.9732C46.8955 53.0402 53.2011 50.7024 55.9893 48.4075C59.7534 45.3083 60.3968 41.1689 60.3968 41.1689C60.3968 41.1689 65.7373 42.0482 67.3566 37.6622C69.0617 33.0509 65.63 29.5013 62.9705 29.3726C60.311 29.2439 60.0215 29.7372 60.0215 29.7372L60.6327 24.8579C60.6327 24.8579 43.9035 7.47451 38.992 23.6997Z"   fill="#FCA397" >
</path>
<path d="M41.78 30.6917C41.78 30.6917 33.6192 27.5282 33.2117 33.7802C32.7291 41.0188 41.3511 40.7936 41.3511 40.7936L41.78 30.6917Z"   fill="#FCA397" >
</path>
<path d="M61.3404 30.1663C61.3404 30.1663 58.5737 31.4317 52.5147 27.303C46.445 23.1743 47.9999 18.0054 47.9999 18.0054C47.9999 18.0054 40.075 23.3459 38.4771 29.7373C36.8793 36.1395 35.3672 14.9277 44.5683 15.0349C53.7694 15.1421 67.7211 20.6649 61.3404 30.1663Z"   fill="#000000" >
</path>
<path d="M42.4021 52.3538C42.4021 52.3538 37.1366 67.4958 33.3726 96.9543C33.3726 97.0186 33.3511 97.083 33.3511 97.1473C33.1045 97.0615 32.8471 96.9757 32.6004 96.8792C32.0214 96.6647 31.453 96.4396 30.8846 96.2036C29.394 95.5924 27.9463 94.9168 26.5415 94.1554C25.9409 93.8336 25.3511 93.5012 24.7613 93.1581C24.6112 93.0723 24.461 92.9865 24.3109 92.89C23.142 92.1929 22.016 91.453 20.9221 90.6701C21.1902 86.8417 21.3618 84.461 21.3618 84.461L42.4021 52.3538Z"   fill="#5F8457" >
</path>
<path d="M94.3056 73.1798C94.2734 73.2549 94.2413 73.3192 94.1984 73.3943C93.9946 73.7803 93.7909 74.1557 93.5657 74.531C87.9571 84.4935 79.0241 92.3326 68.2681 96.5471C67.6032 96.8045 66.9276 97.0511 66.252 97.287C65.6407 97.5015 65.0295 97.7053 64.4182 97.8876C64.1179 95.9895 63.7855 93.8983 63.4209 91.6785C61.9303 82.4667 60.0643 70.9492 58.3807 60.7937C57.9517 58.1771 57.6086 51.8179 57.5549 51.5069C57.5549 51.5069 77.6407 50.5739 93.5871 72.1718C93.8338 72.5042 94.0697 72.8366 94.3056 73.1798Z"   fill="#5F8457" >
</path>
<path d="M61.1583 37.5013C61.0296 37.5013 60.9116 37.4584 60.8151 37.3726C60.5899 37.1796 60.5577 36.8365 60.7508 36.622L64.2253 32.5469C64.4183 32.3217 64.7615 32.3003 64.9867 32.4826C65.2119 32.6756 65.2441 33.0188 65.051 33.244L61.5765 37.3083C61.4693 37.437 61.3191 37.5013 61.1583 37.5013Z"   fill="#000000" >
</path>
<path d="M64.9867 36.2681C64.9867 36.2681 64.9545 36.2681 64.9331 36.2681L62.3808 36.0108C62.0805 35.9786 61.866 35.7212 61.8982 35.4209C61.9304 35.1207 62.2092 34.9062 62.488 34.9384L65.0403 35.1957C65.3406 35.2279 65.5551 35.4853 65.5229 35.7856C65.4907 36.0644 65.2655 36.2681 64.9867 36.2681Z"   fill="#000000" >
</path>
<path d="M52.976 32.5254C52.6864 32.5254 52.4398 32.2895 52.4398 32L52.4076 29.4584C52.4076 29.1581 52.6435 28.9222 52.9331 28.9115C53.2333 28.9115 53.4693 29.1474 53.48 29.437L53.5121 31.9785C53.5121 32.2788 53.2762 32.5147 52.9867 32.5254L52.976 32.5254Z"   fill="#000000" >
</path>
<path d="M43.5281 32.9973C43.2279 32.9973 42.9919 32.7507 42.9919 32.4504L43.0241 29.9088C43.0241 29.6193 43.2708 29.3834 43.5603 29.3834C43.8606 29.3834 44.0965 29.63 44.0965 29.9303L44.0643 32.4718C44.0643 32.7614 43.8177 32.9973 43.5281 32.9973Z"   fill="#000000" >
</path>
<path d="M38.0375 37.244C37.8659 37.244 37.7051 37.1689 37.5978 37.0188L34.638 32.9115C34.4664 32.6756 34.5201 32.3324 34.756 32.1609C34.9919 31.9893 35.3351 32.0429 35.5067 32.2788L38.4665 36.3861C38.638 36.622 38.5844 36.9651 38.3485 37.1367C38.252 37.2011 38.1447 37.2332 38.0375 37.244Z"   fill="#000000" >
</path>
<path d="M34.649 36.1181C34.3809 36.1181 34.1557 35.925 34.1235 35.6569C34.0806 35.3674 34.2844 35.0886 34.5846 35.0564L36.9331 34.7347C37.2227 34.6811 37.5015 34.8955 37.5337 35.1958C37.5766 35.4853 37.3728 35.7642 37.0726 35.7963L34.724 36.1181C34.724 36.1181 34.6811 36.1181 34.649 36.1181Z"   fill="#000000" >
</path>
<path d="M48.354 40.2467C48.1824 40.2467 48.0215 40.1716 47.9143 40.0215C45.7695 36.9973 47.4532 33.0617 47.5282 32.8901C47.6462 32.622 47.9572 32.4933 48.236 32.6113C48.5041 32.7293 48.6328 33.051 48.5148 33.3191C48.5041 33.3512 47.0028 36.8687 48.7937 39.3995C48.9652 39.6354 48.9116 39.9786 48.665 40.1502C48.5685 40.2145 48.4612 40.2467 48.354 40.2467Z"   fill="#000000" >
</path>
<path   fill-rule="evenodd"  fill="#000000"  d="M51.9141 43.3672C51.0669 43.3672 50.284 42.9061 50.1661 42.8418C50.0159 42.7453 49.9194 42.5844 49.9087 42.4128C49.9087 42.2305 49.9838 42.0697 50.1232 41.9624L53.0615 39.7747C53.2224 39.6568 53.4368 39.6353 53.6084 39.7211C53.7907 39.8069 53.9087 39.9785 53.9194 40.1823C53.9945 41.6836 53.6513 42.6809 52.8899 43.1313C52.5789 43.3136 52.2465 43.3887 51.9141 43.3887L51.9141 43.3672ZM51.528 42.2412C51.8175 42.3056 52.1178 42.327 52.343 42.1876C52.5682 42.0482 52.7291 41.7372 52.8041 41.2868L51.528 42.2412Z">
</path>
<path d="M42.0161 27.9679C41.823 27.9679 41.6407 27.8714 41.5442 27.689C41.4048 27.4317 41.5013 27.0992 41.7587 26.9598L43.9249 25.7909C44.1823 25.6515 44.504 25.748 44.6541 26.0054C44.7935 26.2628 44.697 26.5952 44.4397 26.7346L42.2734 27.9035C42.1876 27.9464 42.1019 27.9679 42.0161 27.9679Z"   fill="#000000" >
</path>
<path d="M53.812 27.7426C53.7477 27.7426 53.6833 27.7319 53.619 27.7105L50.3804 26.4451C50.1016 26.3378 49.9729 26.0268 50.0801 25.748C50.1874 25.4692 50.4983 25.3298 50.7772 25.4477L54.0158 26.7132C54.2946 26.8204 54.4233 27.1314 54.316 27.4102C54.2302 27.6247 54.0265 27.7534 53.812 27.7534L53.812 27.7426Z"   fill="#000000" >
</path>
<path d="M64.4934 33.8874C64.4934 33.8874 65.3621 35.7641 64.3326 36.5577C63.3031 37.3512 62.0806 36.7078 62.0806 36.7078L64.4934 33.8874Z"   fill="#F7734F" >
</path>
<path d="M35.2171 33.673C35.2171 33.673 34.1984 35.4746 35.1635 36.3539C36.1287 37.2226 37.3941 36.6864 37.3941 36.6864L35.2171 33.673Z"   fill="#F7734F" >
</path>
<path d="M49.7265 65.2547C40.7506 65.2547 35.7533 37.4049 35.5388 36.2038C35.4852 35.9143 35.6782 35.6354 35.9785 35.5818C36.2681 35.5282 36.5469 35.7212 36.6005 36.0215C37.9946 43.925 43.0241 64.1823 49.7265 64.1823C49.8016 64.1823 49.8874 64.1823 49.9624 64.1823C59.378 63.5175 63.1421 35.9571 63.1742 35.6783C63.2171 35.3888 63.4852 35.1743 63.7748 35.2172C64.0643 35.2601 64.2788 35.5282 64.2359 35.8177C64.075 36.9866 60.311 64.5255 50.0268 65.2547C49.9195 65.2547 49.823 65.2547 49.7265 65.2547Z"   fill="#F7734F" >
</path>
<path d="M55.9573 99.6461C55.5605 99.6997 55.1423 99.7426 54.7347 99.7748C47.7642 89.5657 49.3835 65.8231 49.4693 64.6649C49.4908 64.3753 49.7481 64.1501 50.0377 64.1716C50.338 64.193 50.5524 64.4504 50.531 64.7399C50.5095 65.0295 48.7937 90.0804 55.9573 99.6461Z"   fill="#F7734F" >
</path>
</svg>
