<svg xmlns="http://www.w3.org/2000/svg" xmlns:xlink="http://www.w3.org/1999/xlink" width="100" height="100.0042724609375" viewBox="0 0 100 100.0042724609375" fill="none">
<path d="M100 50C100 58.9768 97.6301 67.4067 93.4799 74.6997C92.2789 76.8125 90.9276 78.8288 89.4263 80.7379C87.3137 83.462 84.9116 85.9502 82.2735 88.181C80.7936 89.4359 79.2279 90.6156 77.5979 91.6988C76.2252 92.6105 74.8097 93.447 73.3405 94.2299C73.0188 94.4015 72.6971 94.5624 72.3646 94.7233C70.3164 95.7636 68.1823 96.6538 65.9839 97.3938C60.9652 99.0776 55.5925 100 50.0054 100C40.5255 100 31.6568 97.3616 24.1072 92.7713C23.7748 92.5783 23.4424 92.3638 23.1099 92.1493C23.0241 92.1064 22.9491 92.0528 22.8633 91.9991C19.6997 89.9507 16.7828 87.559 14.1662 84.867C13.6837 84.3629 13.2011 83.8481 12.7292 83.3226C12.1823 82.722 11.6568 82.1 11.1421 81.4672C9.6622 79.6439 8.311 77.7134 7.0992 75.6971C2.59518 68.1789 0 59.3951 0 50C0 22.3831 22.3914 0 50.0054 0C77.6193 0 100 22.3831 100 50Z"   fill="#F2E5DF" >
</path>
<path d="M64.8364 24.3458C64.8364 24.3458 76.2252 26.212 80.3646 40.4977C84.504 54.7834 82.0589 73.2733 82.0589 73.2733L61.0402 66.9563L61.9517 41.5809L64.8364 24.3458Z"   fill="#000000" >
</path>
<path d="M89.4264 80.7378C87.3138 83.462 84.9117 85.9502 82.2736 88.181C80.7937 89.4358 79.2281 90.6156 77.598 91.6988C74.0163 94.069 70.1235 95.9995 65.9841 97.3938C60.9653 99.0776 55.5927 99.9999 50.0055 99.9999C40.0002 99.9999 30.6811 97.0613 22.8634 91.9991C19.6999 89.9506 16.783 87.5589 14.1664 84.867C14.4238 83.1188 14.7669 81.0703 15.2173 78.8824C15.4425 77.8099 15.6892 76.6945 15.968 75.5576C16.6972 72.6512 17.6087 69.616 18.7776 66.6988C19.1852 65.6906 19.6248 64.6932 20.086 63.728C23.1315 57.4324 27.5498 52.3058 33.8983 51.4478C34.1449 51.4156 34.4023 51.3835 34.649 51.3513C50.1878 49.3886 66.22 52.0377 70.1342 52.767C70.724 52.8743 71.035 52.9386 71.035 52.9386C71.035 52.9386 77.1583 56.3921 82.7455 65.1544C83.3031 66.0338 83.8608 66.9776 84.4077 67.9643C85.7589 70.4311 87.0457 73.2518 88.1289 76.4371C88.4827 77.4345 88.8045 78.4534 89.094 79.5259C89.212 79.9227 89.3192 80.3303 89.4264 80.7378Z"   fill="#7772D3" >
</path>
<path d="M55.1207 45.0022C55.1207 45.0022 61.6087 45.2918 65.3513 36.2291C69.0939 27.1665 64.4076 20.0773 64.4076 20.0773L56.2574 24.3458L51.8285 40.5299L55.1207 45.0022Z"   fill="#000000" >
</path>
<path d="M77.5979 91.6988C74.0161 94.069 70.1233 95.9996 65.9839 97.3938C60.9652 99.0776 55.5925 100 50.0054 100C40 100 30.681 97.0613 22.8633 91.9991C22.8633 76.9305 23.303 59.7919 25.2869 56.3277C26.5952 54.0326 30.3485 52.4453 34.6488 51.3513C42.4343 49.3672 51.9786 48.9918 51.9786 48.9918C51.9786 48.9918 62.4987 48.6379 70.1341 52.767C71.3888 53.4427 72.5684 54.2471 73.6086 55.1909C77.4156 58.6443 77.9625 75.8687 77.5979 91.6988Z"   fill="#7772D3" >
</path>
<path d="M54.8952 41.0768L55.7961 51.7482C55.7961 51.7482 54.1339 54.9764 47.9355 56.0167C43.3135 56.7889 41.5977 55.8773 41.5977 55.8773L41.7907 50.4183L41.9837 45.0987L53.04 41.6667L54.8952 41.0768Z"   fill="#FCA397" >
</path>
<path d="M53.0403 41.6559C53.0403 41.9455 52.9545 42.2994 52.8151 42.707C50.8741 48.2411 44.4505 49.9464 41.7803 50.4076L41.9733 45.0879L53.0403 41.6559Z"   fill="#000000" >
</path>
<path d="M37.5333 20.9781C37.5333 20.9781 33.0722 34.8348 35.9033 42.0742C38.7451 49.3243 45.4154 47.4689 49.3296 45.6135C53.2438 43.7688 54.8845 41.0875 54.8845 41.0875C54.8845 41.0875 58.8095 41.9884 60.9972 38.2132C63.1848 34.4273 61.2116 30.5341 58.9489 29.8155C56.6862 29.097 54.2626 30.9309 54.2626 30.9309L55.8926 26.8662C55.8926 26.8662 45.4261 8.11885 37.5226 20.9781L37.5333 20.9781Z"   fill="#FCA397" >
</path>
<path d="M55.1207 36.7653C54.9706 36.7653 54.8204 36.701 54.7132 36.583C54.5202 36.3578 54.5416 36.0146 54.7668 35.8215L59.2816 31.9605C59.5068 31.7675 59.8499 31.7889 60.043 32.0142C60.236 32.2394 60.2145 32.5826 59.9893 32.7756L55.4746 36.6366C55.3781 36.7224 55.2494 36.7653 55.1207 36.7653Z"   fill="#000000" >
</path>
<path d="M59.496 36.3363C59.496 36.3363 59.4317 36.3363 59.4103 36.3363L56.1716 35.7894C55.8821 35.7357 55.6784 35.4676 55.732 35.1673C55.7856 34.8777 56.0644 34.6847 56.354 34.7276L59.5926 35.2746C59.8821 35.3282 60.0859 35.5963 60.0322 35.8966C59.9893 36.154 59.7641 36.3471 59.496 36.3363Z"   fill="#000000" >
</path>
<path d="M46.917 25.9545C46.7776 25.9545 46.6274 25.9009 46.5202 25.7829C45.1046 24.2385 43.6355 25.1073 43.4746 25.2038C43.228 25.3647 42.8955 25.2896 42.7347 25.0429C42.5738 24.7962 42.6489 24.4638 42.8848 24.3029C43.6891 23.7774 45.6516 23.2411 47.3138 25.0536C47.5175 25.2681 47.4961 25.6113 47.2816 25.8151C47.1744 25.9116 47.0457 25.9545 46.917 25.9545Z"   fill="#000000" >
</path>
<path d="M36.5257 26.3299C36.3863 26.3299 36.2469 26.2763 36.1396 26.1691C35.9359 25.9546 35.9359 25.6221 36.1396 25.4076C37.6195 23.9597 38.767 24.3244 38.8957 24.378C39.1745 24.4852 39.3139 24.7855 39.2067 25.0644C39.1101 25.3325 38.8099 25.4719 38.5311 25.3861C38.4774 25.3754 37.8447 25.236 36.8796 26.1798C36.7723 26.287 36.6437 26.3299 36.5042 26.3299L36.5257 26.3299Z" fill-rule="evenodd"  fill="#000000" >
</path>
<path d="M38.9596 37.248C38.713 37.248 38.4985 37.0871 38.4342 36.8404C37.3403 32.2179 40.0535 29.9764 40.1607 29.8799C40.3966 29.6976 40.7291 29.7297 40.9114 29.9657C41.0937 30.1909 41.0615 30.5341 40.8363 30.7164C40.7398 30.7915 38.5414 32.6577 39.4744 36.5937C39.5387 36.8833 39.3671 37.1729 39.0776 37.2372C39.0347 37.2372 38.9918 37.248 38.9596 37.248Z"   fill="#000000" >
</path>
<path d="M37.0081 31.4564C37.0081 31.4564 36.9437 31.4564 36.9116 31.4564C36.622 31.4028 36.429 31.1239 36.4826 30.8344L36.9008 28.5714L36.236 27.7456C36.0536 27.5096 36.0858 27.1771 36.3217 26.9948C36.5577 26.8125 36.8901 26.8447 37.0724 27.0806L37.8874 28.0995C37.9839 28.2175 38.0268 28.3783 37.9947 28.5285L37.5335 31.0274C37.4906 31.2848 37.2654 31.4671 37.0081 31.4564Z"   fill="#000000" >
</path>
<path   fill-rule="evenodd"  fill="#000000"  d="M43.7212 40.991C42.7347 40.991 41.8767 40.2617 41.8339 40.2295C41.7052 40.1223 41.6408 39.9614 41.6515 39.7898C41.6515 39.6182 41.7481 39.468 41.8875 39.3715L45.2333 37.0978C45.4049 36.9798 45.6301 36.9691 45.8124 37.0764C45.9947 37.1836 46.0912 37.3874 46.0698 37.5912C45.8875 39.393 45.3298 40.4976 44.4076 40.8623C44.1824 40.9481 43.9572 40.991 43.732 40.991L43.7212 40.991ZM43.1636 39.7898C43.4317 39.9078 43.7427 39.9614 44.0001 39.8649C44.3218 39.7362 44.5899 39.3286 44.7722 38.6958L43.1636 39.7898Z">
</path>
<path d="M44.8366 31.0168C44.8366 31.0168 44.7723 31.0168 44.7401 31.0168C44.4506 30.9632 44.2575 30.6843 44.3111 30.3947L44.7186 28.1532L43.85 27.2094C43.6463 26.9949 43.6677 26.6517 43.8822 26.4479C44.0967 26.2442 44.4398 26.2656 44.6436 26.4801L45.6945 27.617C45.8125 27.7457 45.8554 27.9065 45.8232 28.0781L45.3621 30.5878C45.3192 30.8452 45.094 31.0275 44.8366 31.0168Z"   fill="#000000" >
</path>
<path d="M54.2734 30.9202L53.0294 32.3574L53.6514 30.2874C53.6514 30.2874 50.7345 30.266 46.9061 27.8529C43.0884 25.4397 42.1769 19.5732 42.1769 19.5732C42.1769 19.5732 40.5254 20.3454 38.7131 21.7611C36.9007 23.166 36.5147 24.6783 36.5147 24.6783C36.5147 24.6783 31.7211 11.4007 41.7801 9.67397C51.8284 7.94724 58.9597 16.4736 58.9597 16.4736C58.9597 16.4736 64.7077 17.2673 65.2868 22.9086C65.8659 28.55 61.9195 32.9151 61.9195 32.9151C61.9195 32.9151 59.3458 28.239 54.2627 30.9202L54.2734 30.9202Z"   fill="#000000" >
</path>
<path d="M41.5869 55.8773L40.9863 60.6714C40.9863 60.6714 54.2303 55.1266 55.1204 52.6276C55.9997 50.1394 42.1767 54.0219 42.1767 54.0219L41.5869 55.8773Z"   fill="#FCA397" >
</path>
<path d="M40.9866 61.2077C40.8793 61.2077 40.7721 61.1755 40.6863 61.1112C40.5254 61.0039 40.4396 60.8216 40.4504 60.6393L40.9651 52.0056C40.9866 51.7053 41.2332 51.4801 41.5335 51.5016C41.8337 51.523 42.0589 51.7697 42.0375 52.07L41.5764 59.8027C44.3967 58.4621 53.6622 53.9469 55.3458 51.4479C55.5174 51.2013 55.8498 51.1369 56.0858 51.3085C56.3324 51.4694 56.3967 51.8019 56.2252 52.0485C54.0697 55.2339 41.7265 60.9181 41.201 61.1648C41.126 61.197 41.0509 61.2184 40.9758 61.2184L40.9866 61.2077Z"   fill="#FFFFFF" >
</path>
<path d="M84.4076 67.9644C82.6918 68.6723 80.2575 69.5946 77.2977 70.5384C70.606 72.6941 61.2333 74.9571 51.539 74.9571C50.5524 74.9571 49.5658 74.9249 48.5685 74.882C38.0912 74.3565 29.2869 71.4715 23.3781 68.8975C21.555 68.1146 20.0108 67.3531 18.7776 66.6989C19.1851 65.6907 19.6247 64.6933 20.0859 63.728C21.051 64.2428 22.2414 64.8327 23.6247 65.4548C29.2655 68.0073 38.1663 71.139 48.7293 71.6645C59.2172 72.1793 69.8446 69.5517 77.0189 67.2137C79.3245 66.4629 81.2762 65.7443 82.7454 65.1545C83.303 66.0339 83.8607 66.9777 84.4076 67.9644Z"   fill="#FCB35B" >
</path>
<path d="M89.0939 79.5259C86.681 80.5341 82.6274 82.1428 77.6944 83.7409C69.5979 86.3685 59.1314 88.9961 49.6086 88.9961C48.7936 88.9961 47.9893 88.9747 47.1957 88.9425C37.6193 88.4599 29.1153 85.6285 22.9169 82.8721C19.6354 81.4028 17.008 79.9549 15.2172 78.8824C15.4424 77.8099 15.689 76.6945 15.9678 75.5577C17.4263 76.4479 19.8391 77.8421 22.9812 79.3114C28.9973 82.1321 37.6729 85.2424 47.3566 85.725C57.3083 86.2291 69.0188 83.2153 77.6729 80.3303C82.252 78.8181 85.9732 77.338 88.1287 76.4371C88.4826 77.4346 88.8043 78.4534 89.0939 79.5259Z"   fill="#FCB35B" >
</path>
<path d="M26.4985 73.3376L24.1071 92.7714C23.7746 92.5783 23.4422 92.3638 23.1097 92.1493L25.4368 73.2089C25.469 72.9086 25.7478 72.7049 26.0266 72.737C26.3269 72.7799 26.5307 73.0481 26.4985 73.3376Z"   fill="#46467F" >
</path>
<path d="M73.3402 94.2299C73.0185 94.4016 72.6968 94.5624 72.3644 94.7233L70.2947 88.0631C70.1981 87.7842 70.359 87.4839 70.6485 87.3981C70.9274 87.3016 71.2276 87.4625 71.3134 87.752L73.3402 94.2299Z"   fill="#46467F" >
</path>
</svg>
