<svg xmlns="http://www.w3.org/2000/svg" xmlns:xlink="http://www.w3.org/1999/xlink" width="100" height="100.00193786621094" viewBox="0 0 100 100.00193786621094" fill="none">
<path d="M100 49.9995C100 55.2226 99.2064 60.2633 97.7156 64.993C95.4419 72.2215 91.5809 78.7423 86.5294 84.1369C86.4221 84.2656 86.3149 84.3836 86.1969 84.5016C86.0468 84.6624 85.8859 84.8233 85.7357 84.9735C76.6624 94.2398 64.0069 99.9991 50 99.9991C47.8335 99.9991 45.6778 99.8596 43.5864 99.6022C43.565 99.5915 43.5543 99.5915 43.5328 99.5915C38.3848 98.9159 33.4728 97.468 28.9361 95.3552C28.5607 95.1836 28.1853 95.0013 27.81 94.8189C20.4204 91.1617 14.0712 85.7135 9.32003 79.0533C8.91248 78.4742 8.50493 77.895 8.11883 77.2944C7.15358 75.8358 6.27413 74.3236 5.48048 72.7685C1.9734 65.9368 0 58.2041 0 49.9995C0 22.3829 22.3831 0 50 0C77.6169 0 100 22.3829 100 49.9995Z"   fill="#F2E5DF" >
</path>
<path d="M86.5266 84.1378C86.4194 84.2665 86.3121 84.3845 86.1941 84.5025C86.044 84.6634 85.8831 84.8242 85.733 84.9744C76.6596 94.2407 64.0041 100 49.9972 100C47.8308 100 45.675 99.8606 43.5837 99.6032C43.5622 99.5925 43.5515 99.5925 43.53 99.5925C38.382 98.9168 33.47 97.4689 28.9333 95.3561C29.3623 77.2417 29.18 61.3903 29.18 61.09C29.3516 60.7146 37.7385 58.5589 48.9033 58.1943C66.4708 57.6366 81.3143 67.5464 86.5266 84.1378Z"   fill="#507849" >
</path>
<path d="M43.587 99.6055C43.587 99.6055 43.5548 99.5948 43.5333 99.5948C38.3853 98.9191 33.4733 97.4713 28.9366 95.3584C28.5612 95.1868 28.1859 95.0045 27.8105 94.8222C20.4209 91.165 14.0717 85.7168 9.32056 79.0566C18.9516 65.8542 26.8238 62.004 29.1833 61.0924C29.6659 60.8993 29.9126 60.835 29.9126 60.835L43.587 99.6055Z"   fill="#507849" >
</path>
<path d="M50.1935 28.807C50.1935 28.807 61.7336 29.354 62.3878 18.2859C63.085 6.49923 52.1776 5.37312 47.5444 10.135C42.9112 14.8968 43.7692 19.7445 43.7692 19.7445C43.7692 19.7445 40.541 16.838 37.0232 20.4094C34.4384 23.037 35.7683 27.3163 35.7683 27.3163C35.7683 27.3163 29.816 27.0911 30.3737 32.2819C30.9314 37.4835 34.6422 40.1218 34.6422 40.1218L50.1828 28.7963L50.1935 28.807Z"   fill="#E56445" >
</path>
<path d="M39.6394 49.1844L40.8406 61.4537C40.8406 61.4537 43.3931 64.7677 50.6325 64.6497C56.0164 64.5639 57.7754 63.1696 57.7754 63.1696L56.424 57.035L55.0941 51.0505L41.8594 49.4632L39.6394 49.1844Z"   fill="#FCA397" >
</path>
<path d="M41.8615 49.4543C41.9259 49.7867 42.0868 50.1728 42.3334 50.6018C45.6796 56.4576 53.3158 57.0475 56.4261 57.026L55.0962 51.0415L41.8615 49.4543Z"   fill="#000000" >
</path>
<path d="M55.09 22.8114C55.09 22.8114 63.0372 37.5582 61.3319 46.3526C59.6266 55.147 51.6901 54.4392 46.8639 53.1629C42.0376 51.8867 39.6352 49.1947 39.6352 49.1947C39.6352 49.1947 35.3774 51.0394 32.117 47.2106C28.8566 43.3818 30.2723 38.5556 32.6854 37.2793C35.0985 36.0031 38.2195 37.5582 38.2195 37.5582L35.5275 33.3004C35.5275 33.3004 43.4748 9.89862 55.1007 22.8007L55.09 22.8114Z"   fill="#FCA397" >
</path>
<path d="M38.359 44.2776C38.2732 44.2776 38.1767 44.2562 38.0909 44.2026L33.2218 41.3819C32.9644 41.2318 32.8786 40.91 33.0287 40.6526C33.1789 40.3952 33.5006 40.3094 33.758 40.4596L38.6272 43.2802C38.8846 43.4304 38.9704 43.7521 38.8202 44.0095C38.7237 44.1811 38.5414 44.2776 38.359 44.2776Z"   fill="#000000" >
</path>
<path d="M34.3969 44.7053C34.2038 44.7053 34.0215 44.598 33.925 44.4157C33.7856 44.1583 33.8928 43.8259 34.1502 43.6972L36.6277 42.3994C36.8851 42.26 37.2176 42.3673 37.3463 42.6247C37.4857 42.8821 37.3784 43.2145 37.121 43.3432L34.6436 44.6409C34.5685 44.6838 34.4827 44.7053 34.3969 44.7053Z"   fill="#000000" >
</path>
<path d="M57.2371 28.5935C57.1299 28.5935 57.0334 28.5614 56.9368 28.497C55.564 27.5747 54.3092 28.4541 54.2556 28.497C54.0196 28.6686 53.6764 28.615 53.5048 28.379C53.3332 28.1431 53.3869 27.8106 53.6228 27.6283C53.6979 27.5747 55.5319 26.2662 57.5374 27.6176C57.7841 27.7785 57.8485 28.1109 57.6876 28.3576C57.5803 28.5077 57.4195 28.5935 57.2479 28.5935L57.2371 28.5935Z"   fill="#000000" >
</path>
<path d="M55.5941 42.5585C55.5941 42.5585 55.5298 42.5585 55.4869 42.5585C55.1973 42.5048 55.0042 42.2153 55.0579 41.9257C55.948 37.3462 53.2882 34.3646 53.2668 34.3432C53.063 34.1287 53.0844 33.7855 53.299 33.5817C53.5135 33.3779 53.8567 33.3994 54.0604 33.6139C54.1891 33.7533 57.1063 37.0244 56.1196 42.1295C56.066 42.3869 55.8408 42.5585 55.5941 42.5585Z"   fill="#000000" >
</path>
<path d="M57.2544 35.8307C56.9648 35.8307 56.7289 35.6055 56.7181 35.3159L56.5894 32.388C56.5787 32.0877 56.8039 31.841 57.1042 31.8303C57.4045 31.8196 57.6512 32.0448 57.6619 32.3451L57.7906 35.273C57.8014 35.5733 57.5761 35.82 57.2758 35.8307C57.2758 35.8307 57.2651 35.8307 57.2544 35.8307Z"   fill="#000000" >
</path>
<path d="M49.1934 36.6054C48.9038 36.6054 48.6679 36.3802 48.6571 36.0906L48.5284 33.1627C48.5177 32.8624 48.7429 32.6157 49.0432 32.605C49.3435 32.5835 49.5902 32.8195 49.6009 33.1198L49.7296 36.0477C49.7404 36.348 49.5151 36.5947 49.2148 36.6054C49.2148 36.6054 49.2041 36.6054 49.1934 36.6054Z"   fill="#000000" >
</path>
<path d="M56.7217 26.1475C56.7217 26.1475 55.1451 23.8094 52.0885 24.0883C49.0212 24.3671 47.4553 26.6944 47.4553 26.6944C47.4553 26.6944 49.3 31.7137 45.4068 34.8561C41.5136 37.9985 38.2211 37.548 38.2211 37.548L35.1001 36.7651L32.451 32.5717L40.2588 22.3079L50.9731 15.2402L57.2472 19.9056L56.7217 26.1475Z"   fill="#E56445" >
</path>
<path d="M53.0454 45.7017C51.9943 45.7017 50.1603 45.4014 49.0342 43.5031C48.8841 43.2457 48.9699 42.924 49.2165 42.7631C49.4739 42.6129 49.7957 42.6987 49.9566 42.9454C51.1899 45.0153 53.5602 44.5971 53.6567 44.5756C53.9463 44.522 54.2251 44.715 54.2787 45.0046C54.3324 45.2942 54.15 45.573 53.8605 45.6374C53.8176 45.6374 53.5065 45.7017 53.0454 45.7017Z"   fill="#000000" >
</path>
<path   fill-rule="evenodd"  fill="#FFFFFF"  d="M60.4807 40.2496C57.5956 40.2496 55.2576 37.8365 55.2576 34.8657C55.2576 31.8949 57.6064 29.4818 60.4807 29.4818C63.355 29.4818 65.7037 31.8949 65.7037 34.8657C65.7037 37.8365 63.355 40.2496 60.4807 40.2496ZM60.4807 30.5543C58.1855 30.5543 56.3301 32.4848 56.3301 34.8657C56.3301 37.2466 58.1962 39.1771 60.4807 39.1771C62.7651 39.1771 64.6312 37.2466 64.6312 34.8657C64.6312 32.4848 62.7651 30.5543 60.4807 30.5543Z">
</path>
<path   fill-rule="evenodd"  fill="#FFFFFF"  d="M48.0732 41.4552C45.1024 41.4552 42.6892 39.0421 42.6892 36.0713C42.6892 33.1005 45.1024 30.6874 48.0732 30.6874C51.044 30.6874 53.4571 33.1005 53.4571 36.0713C53.4571 39.0421 51.044 41.4552 48.0732 41.4552ZM48.0732 31.7599C45.6922 31.7599 43.7617 33.6904 43.7617 36.0713C43.7617 38.4522 45.6922 40.3827 48.0732 40.3827C50.4541 40.3827 52.3846 38.4522 52.3846 36.0713C52.3846 33.6904 50.4541 31.7599 48.0732 31.7599Z">
</path>
<path d="M52.3946 36.0489C52.1157 36.0489 51.8798 35.8344 51.8583 35.5555C51.8369 35.266 52.0514 34.9978 52.3517 34.9764L56.1483 34.6654C56.4486 34.6439 56.706 34.8584 56.7275 35.1587C56.7489 35.4483 56.5344 35.7164 56.2341 35.7378L52.4375 36.0489C52.4375 36.0489 52.4053 36.0489 52.3946 36.0489Z"   fill="#FFFFFF" >
</path>
<path d="M35.0887 37.3121C34.96 37.3121 34.8206 37.2585 34.724 37.1619C34.5095 36.9582 34.4988 36.615 34.7026 36.4005C37.5876 33.3332 43.2182 36.1645 43.4649 36.2932C43.733 36.4327 43.8296 36.7544 43.7009 37.0118C43.5722 37.2799 43.2397 37.3764 42.9823 37.2477C42.9287 37.2263 37.8236 34.663 35.4962 37.1405C35.389 37.2477 35.2496 37.3121 35.1101 37.3121L35.0887 37.3121Z"   fill="#FFFFFF" >
</path>
<path d="M50.7728 64.7572C47.3086 64.7572 43.2867 63.8778 39.3721 61.0035C39.1361 60.8319 39.0825 60.4887 39.2541 60.2528C39.4257 60.0168 39.7689 59.9632 40.0049 60.1348C49.475 67.0953 59.696 61.6685 59.7925 61.6148C60.0499 61.4754 60.3824 61.5719 60.5218 61.8293C60.6612 62.0867 60.5647 62.4192 60.3073 62.5586C60.243 62.5908 56.1889 64.7465 50.762 64.7465L50.7728 64.7572Z"   fill="#FFFFFF" >
</path>
<path d="M45.3958 30.3346C45.2993 30.3346 45.2027 30.3132 45.1062 30.2488C44.8595 30.088 44.7845 29.7662 44.9346 29.5088C46.4039 27.1708 48.6884 27.3424 49.6858 27.7714C49.9539 27.8894 50.0826 28.2004 49.9754 28.4685C49.8574 28.7474 49.5464 28.8653 49.2782 28.7581C49.1817 28.7152 47.1869 27.943 45.8462 30.0772C45.739 30.2381 45.5674 30.3239 45.3958 30.3239L45.3958 30.3346Z"   fill="#000000" >
</path>
</svg>
