<svg xmlns="http://www.w3.org/2000/svg" xmlns:xlink="http://www.w3.org/1999/xlink" width="100" height="100.00445556640625" viewBox="0 0 100 100.00445556640625" fill="none">
<path d="M100 50.0054C100 56.4504 98.7775 62.6166 96.5577 68.2788C95.5818 70.7775 94.4022 73.1796 93.0295 75.4638C92 77.2118 90.8526 78.8847 89.6086 80.4933C89.1046 81.1582 88.5791 81.8016 88.0215 82.4343C84.933 86.0804 81.3191 89.2761 77.2976 91.8928C76.2252 92.5898 75.1314 93.2547 74.0054 93.866C70.1234 96 65.9303 97.63 61.5121 98.6595C57.8124 99.5389 53.9625 100 49.9947 100C49.1475 100 48.311 99.9786 47.4853 99.9357C41.4477 99.6354 35.6997 98.2735 30.4343 96.0107C30.2949 95.9571 30.1662 95.9035 30.0268 95.8391C29.0188 95.4102 28.0322 94.9383 27.0563 94.4343C25.4263 93.5979 23.8499 92.6649 22.3378 91.6568C22.1341 91.5174 21.9303 91.378 21.7265 91.2279C19.9035 89.9946 18.1662 88.6327 16.5362 87.1421C16.4719 87.0885 16.4182 87.0456 16.3861 87.0027C16.2574 86.8954 16.1287 86.7775 16 86.6488C14.874 85.6193 13.8016 84.5255 12.7828 83.3887C12.74 83.3351 12.6863 83.2815 12.6434 83.2279C11.8928 82.3807 11.1635 81.5121 10.4665 80.622C3.91421 72.1716 0 61.5442 0 50.0054C0 22.3914 22.3914 0 49.9947 0C77.5979 0 100 22.3914 100 50.0054Z"   fill="#F2E5DF" >
</path>
<path d="M61.5125 98.6595C57.8128 99.5388 53.9629 100 49.9951 100C49.1479 100 48.3115 99.9785 47.4857 99.9356C40.1399 99.571 33.223 97.63 27.0568 94.4343L33.2552 61.4155L45.9093 55.4745L60.5688 57.4691L61.5125 98.6595Z"   fill="#FCB35B" >
</path>
<path d="M38.7668 55.0027L30.0268 95.8391C29.0188 95.4102 28.0322 94.9383 27.0563 94.4343C25.4263 93.5979 23.8499 92.6649 22.3378 91.6568C22.1341 91.5174 21.9303 91.378 21.7265 91.2279C19.9035 89.9946 18.1662 88.6327 16.5362 87.1421C16.4719 87.0885 16.4182 87.0456 16.3861 87.0027C16.2574 86.8954 16.1287 86.7775 16 86.6488C14.874 85.6193 13.8016 84.5255 12.7828 83.3887C12.74 83.3351 12.6863 83.2815 12.6434 83.2279C11.8928 82.3807 11.1635 81.5121 10.4665 80.622C15.0563 71.4745 24.1823 64.0215 27.1635 61.4263C33.3405 56.0536 38.7668 55.0027 38.7668 55.0027Z"   fill="#7772D3" >
</path>
<path d="M36.4935 22.2198C36.4935 22.2198 36.6865 13.0402 50.3487 11.7855C64.0109 10.5308 68.6436 23.1099 67.9144 24.4504C67.1852 25.7908 66.0377 26.2841 66.0377 26.2841C66.0377 26.2841 66.3701 35.453 60.8152 37.1152C55.2602 38.7774 49.0511 35.2171 49.0511 35.2171L36.4935 22.2198Z"   fill="#FCB35B" >
</path>
<path d="M52.9012 44.8687L52.9012 56.1394C52.9012 56.1394 50.8637 59.378 44.2685 59.9142C39.357 60.311 37.6304 59.1957 37.6304 59.1957L38.3168 53.4906L38.9924 47.925L50.9066 45.3083L52.9012 44.8687Z"   fill="#F27E64" >
</path>
<path d="M50.8957 45.3083C50.8636 45.6193 50.7456 45.9839 50.5633 46.3914C48.0325 52.0215 41.137 53.2333 38.3059 53.4799L38.9815 47.9142L50.8957 45.3083Z"   fill="#000000" >
</path>
<path d="M36.4938 22.2198C36.4938 22.2198 30.5635 36.3538 32.9013 44.2037C35.2284 52.0535 42.3919 50.7131 46.6707 49.1259C50.9496 47.5388 52.9013 44.8686 52.9013 44.8686C52.9013 44.8686 56.9335 46.1661 59.5715 42.3913C62.1989 38.6165 60.4831 34.3484 58.1774 33.4048C55.8718 32.4611 53.1694 34.1554 53.1694 34.1554L55.2498 30.0482C55.2498 30.0482 45.9522 9.44765 36.5045 22.2305L36.4938 22.2198Z"   fill="#F27E64" >
</path>
<path d="M37.3946 40.1394C37.1694 40.1394 36.9656 40 36.8906 39.7748C35.8825 36.7507 37.9522 33.6193 38.0487 33.4906C38.2096 33.244 38.542 33.1796 38.7887 33.3405C39.0353 33.5014 39.0997 33.8338 38.9388 34.0804C38.9174 34.1126 37.0729 36.9115 37.9093 39.4316C38.0058 39.7105 37.8557 40.0107 37.5662 40.1072C37.5126 40.1287 37.4482 40.1394 37.3946 40.1394Z"   fill="#000000" >
</path>
<path d="M53.8877 40.815C53.759 40.815 53.6304 40.7721 53.5338 40.6756C53.3086 40.4718 53.2979 40.1394 53.491 39.9142L57.2121 35.7962C57.4159 35.571 57.7483 35.5603 57.9735 35.7533C58.1987 35.9571 58.2095 36.2895 58.0164 36.5147L54.2952 40.6327C54.188 40.7507 54.0486 40.815 53.8877 40.815Z"   fill="#000000" >
</path>
<path d="M57.9093 39.6461C57.9093 39.6461 57.8664 39.6461 57.8342 39.6461L55.1854 39.303C54.8959 39.2601 54.6814 38.992 54.7243 38.7024C54.7672 38.4129 55.0246 38.1984 55.3248 38.2413L57.9736 38.5845C58.2632 38.6274 58.4776 38.8955 58.4347 39.185C58.4026 39.4531 58.1666 39.6569 57.8985 39.6569L57.9093 39.6461Z"   fill="#000000" >
</path>
<path d="M43.6466 34.7667C43.6466 34.7667 43.6037 34.7667 43.593 34.7667C43.3034 34.7346 43.0889 34.4665 43.1211 34.1769L43.3999 31.5496C43.4321 31.2493 43.7002 31.0348 43.9897 31.0777C44.2793 31.1099 44.4938 31.378 44.4616 31.6675L44.1828 34.2949C44.1506 34.5737 43.9254 34.7775 43.6466 34.7667Z"   fill="#000000" >
</path>
<path d="M35.8611 34.3163C35.8611 34.3163 35.8182 34.3163 35.7967 34.3163C35.5072 34.2842 35.2927 34.0161 35.3356 33.7158L35.6681 31.0992C35.7002 30.8096 35.979 30.5951 36.2686 30.638C36.5581 30.6702 36.7726 30.9383 36.7297 31.2386L36.3973 33.8552C36.3651 34.1233 36.1292 34.327 35.8611 34.3163Z"   fill="#000000" >
</path>
<path d="M45.9736 29.705C45.7806 29.705 45.5983 29.6085 45.5018 29.4262C44.8691 28.268 43.2391 28.6219 43.164 28.6434C42.8744 28.7077 42.5849 28.5361 42.5206 28.2466C42.4562 27.957 42.6278 27.6675 42.9173 27.6032C43.0246 27.5817 45.416 27.0348 46.4455 28.9222C46.5849 29.1796 46.4884 29.512 46.231 29.6514C46.1452 29.6943 46.0594 29.7158 45.9736 29.705Z"   fill="#000000" >
</path>
<path d="M34.574 29.1367C34.4453 29.1367 34.3166 29.0938 34.2201 29.0081C33.9949 28.815 33.9734 28.4719 34.1772 28.2574C34.7992 27.5496 36.3327 26.5201 37.7161 27.6032C37.952 27.7855 37.9841 28.1287 37.8018 28.3539C37.6195 28.5898 37.2871 28.622 37.0512 28.4397C36.1182 27.7105 35.0244 28.9115 34.9815 28.9652C34.8742 29.0831 34.7241 29.1475 34.574 29.1367Z"   fill="#000000" >
</path>
<path d="M49.8018 58.3592C49.6946 58.0804 49.3836 57.9302 49.1047 58.0375C43.3031 60.2359 37.834 58.7023 37.7803 58.6809C37.6302 58.638 37.4801 58.6594 37.3514 58.7345C37.2227 58.8203 37.1369 58.9383 37.1047 59.0884L29.4265 95.571C29.6195 95.6675 29.8232 95.7533 30.027 95.8391C30.1664 95.9034 30.2951 95.957 30.4345 96.0107L38.0377 59.8498C39.6356 60.2037 44.3755 60.9651 49.4801 59.0455C49.7589 58.9383 49.8983 58.6273 49.8018 58.3592Z"   fill="#FFFFFF" >
</path>
<path d="M55.4535 35.1635C55.4535 35.1635 50.9924 34.3484 49.5768 31.1956C47.4642 26.4879 50.2846 24.4825 50.2846 24.4825C50.2846 24.4825 47.046 25.2117 44.3865 23.8069C41.0943 22.0696 40.5366 19.4423 40.5366 19.4423L36.5044 22.2198C36.5044 22.2198 35.3141 16.268 39.0353 15.1635C42.7565 14.0696 47.1103 17.4798 47.1103 17.4798L60.7511 27.8498L59.4642 34.3377C59.4642 34.3377 58.7028 34.0375 55.4642 35.142L55.4535 35.1635Z"   fill="#000000" >
</path>
<path   fill-rule="evenodd"  fill="#000000"  d="M41.8557 44.4611C41.7056 44.4611 41.5555 44.4504 41.3946 44.4182C40.0648 44.1501 39.2284 42.7774 39.1962 42.7238C39.1211 42.5951 39.0997 42.445 39.1426 42.3056C39.1855 42.1662 39.282 42.0375 39.4107 41.9732L44.3115 39.4638C44.4616 39.3887 44.6439 39.3887 44.7941 39.4638C44.9442 39.5388 45.0514 39.6782 45.0836 39.8391C45.1051 39.9356 45.5555 42.3378 43.3785 43.9356C42.8852 44.3002 42.3812 44.4718 41.8557 44.4718L41.8557 44.4611ZM40.4723 42.6273C40.7404 42.9276 41.1372 43.2707 41.6091 43.3673C41.9844 43.4423 42.349 43.3458 42.7351 43.0563C43.7002 42.3485 43.9791 41.437 44.0434 40.7935L40.4616 42.6273L40.4723 42.6273Z">
</path>
<path d="M41.8553 15.378C41.8553 15.378 47.8714 16.0643 51.5283 24.0858C54.5202 30.638 55.4425 35.1742 55.4425 35.1742L60.8044 37.126L62.4023 24.2788L50.1234 14.5308C50.1234 14.5308 45.0618 12.8257 41.8553 15.378Z"   fill="#FCB35B" >
</path>
<path d="M93.0297 75.4637C92.0002 77.2117 90.8527 78.8846 89.6087 80.4932C89.1047 81.1581 88.5793 81.8015 88.0216 82.4342C84.9332 86.0803 81.3192 89.276 77.2978 91.8927C76.2254 92.5897 75.1315 93.2546 74.0055 93.8659C66.8742 97.7801 58.7026 99.9999 49.9948 99.9999C49.1476 99.9999 48.3112 99.9785 47.4854 99.9356C46.0806 81.083 46.0591 58.5951 52.901 51.9999C56.783 48.2573 78.3165 56.9543 93.0297 75.4637Z"   fill="#7772D3" >
</path>
<path d="M55.9037 35.5496C55.6356 35.5496 55.4104 35.3566 55.3783 35.0885C55.3354 34.7989 55.5499 34.5201 55.8394 34.4879C55.8716 34.4879 59.2389 34.0054 61.7054 31.4745C64.0646 29.0509 65.1799 26.756 65.1906 26.7346C65.3193 26.4665 65.641 26.3485 65.9091 26.4772C66.1772 26.6059 66.2952 26.9276 66.1665 27.1957C66.1236 27.2922 64.9654 29.6729 62.4882 32.2252C59.7536 35.0348 56.1504 35.5389 55.9895 35.5603C55.9681 35.5603 55.9466 35.5603 55.9037 35.5496Z"   fill="#46467F" >
</path>
<path d="M54.317 30.3699C54.0918 30.3699 53.8773 30.2198 53.8022 29.9946C53.7164 29.7158 53.8666 29.4155 54.1454 29.319C54.199 29.3083 59.2499 27.6782 61.8451 25.9517C64.6226 24.1072 67.2499 23.9678 67.3572 23.9678C67.6253 23.9678 67.9041 24.1823 67.9148 24.4825C67.9256 24.7828 67.7003 25.0294 67.4001 25.0402C67.3786 25.0402 64.955 25.1688 62.4349 26.8525C59.7111 28.6648 54.6816 30.2841 54.4671 30.3485C54.4135 30.3699 54.3599 30.3699 54.317 30.3699Z"   fill="#46467F" >
</path>
<path d="M51.9038 24.3431C51.7537 24.3431 51.5928 24.2788 51.4856 24.1501C51.3033 23.9249 51.3355 23.5817 51.5607 23.3994C51.818 23.1957 57.8663 18.3378 66.306 19.7748C66.5955 19.8284 66.7886 20.1072 66.7457 20.3967C66.692 20.6863 66.4132 20.8793 66.1237 20.8364C58.1558 19.4638 52.2899 24.1823 52.2363 24.2252C52.1398 24.311 52.0111 24.3431 51.8931 24.3431L51.9038 24.3431Z" fill-rule="evenodd"  fill="#46467F" >
</path>
<path d="M47.0995 18.0268C46.9279 18.0268 46.7671 17.941 46.6598 17.7909C46.4882 17.5442 46.5526 17.2118 46.7992 17.0402C47.0673 16.8579 53.3301 12.6005 62.2738 14.7882C62.5633 14.8633 62.7349 15.1528 62.6705 15.4316C62.5955 15.7212 62.3059 15.8927 62.0271 15.8284C53.566 13.7694 47.4748 17.8767 47.4105 17.9196C47.314 17.9839 47.2067 18.0161 47.1102 18.0161L47.0995 18.0268Z"   fill="#46467F" >
</path>
</svg>
