<svg xmlns="http://www.w3.org/2000/svg" xmlns:xlink="http://www.w3.org/1999/xlink" width="100" height="100.004150390625" viewBox="0 0 100 100.004150390625" fill="none">
<path d="M100 50C100 57.7113 98.252 65.0257 95.1314 71.5465C91.1421 79.8799 84.9116 86.9369 77.2225 91.9455C74.8526 93.4899 72.3325 94.8305 69.7051 95.9674C63.6569 98.5629 56.9973 100 50.0054 100C43.6997 100 37.6622 98.831 32.1073 96.6967C28.1501 95.1845 24.4504 93.1789 21.0509 90.7658C16.8686 87.7949 13.1582 84.1806 10.0697 80.0944C3.74263 71.7181 0 61.2934 0 50C0 22.3831 22.3914 0 50.0054 0C77.6193 0 100 22.3831 100 50Z"   fill="#F2E5DF" >
</path>
<path d="M32.1072 96.6967C28.1501 95.1845 24.4503 93.1789 21.0509 90.7658C16.8686 87.795 13.1581 84.1806 10.0696 80.0944C15.0562 69.9378 25.4155 52.7349 38.3592 52.7778C52.6005 52.8743 38.9276 83.1725 32.1072 96.6967Z"   fill="#FCB35B" >
</path>
<path d="M57.63 23.6701C57.63 23.6701 71.8176 19.852 82.3592 32.7756C92.9115 45.6992 86.3485 61.6044 69.6407 61.1433C52.9222 60.6821 49.0402 43.6079 49.0402 43.6079L57.63 23.6701Z"   fill="#000000" >
</path>
<path d="M77.2224 91.9455C74.8525 93.4899 72.3324 94.8305 69.705 95.9674C63.6568 98.5628 56.9972 100 50.0053 100C43.6996 100 37.6621 98.831 32.1071 96.6967C28.15 95.1845 24.4503 93.1789 21.0508 90.7657C22.0053 76.4586 23.5281 62.7306 25.9195 59.7168C29.4155 55.2981 33.5227 53.6679 38.3592 52.7778C40.9329 52.3059 43.6675 52.0485 46.6165 51.6838C50.949 51.1583 56.1715 51.2655 60.8364 51.7374C65.4691 52.1986 69.512 53.0244 71.6568 53.9468C73.8766 54.9013 75.9999 73.595 77.2224 91.9455Z"   fill="#FCB35B" >
</path>
<path d="M39.3886 42.7177C38.7987 45.4311 37.1687 47.3723 35.7532 47.0613C34.3376 46.7503 33.6727 44.305 34.2626 41.5916C34.8524 38.8781 36.4824 36.9369 37.8979 37.2479C39.3135 37.559 39.9784 40.0043 39.3886 42.7177Z"   fill="#507849" >
</path>
<path d="M95.1313 71.5466C91.1421 79.8799 84.9115 86.9369 77.2225 91.9455C74.8525 93.4899 72.3324 94.8306 69.705 95.9674L58.5415 51.7375C58.5415 51.7375 59.378 51.6731 60.8364 51.7375C66.7131 52.0163 82.3163 54.4402 95.1313 71.5466Z"   fill="#FCB35B" >
</path>
<path d="M36.3431 34.3093C36.3431 34.3093 32.311 30.0193 33.319 23.2411C34.0053 18.6401 36.0107 17.1171 36.0107 17.1171C36.0107 17.1171 32.7828 10.9181 42.0375 11.1219C51.2922 11.3256 58.874 10.532 63.0027 18.5007C65.437 23.1875 64.4611 33.387 64.4611 33.387L36.3324 34.3201L36.3431 34.3093Z"   fill="#000000" >
</path>
<path d="M56.7934 41.538L56.7291 52.8314C56.7291 52.8314 54.6701 56.0704 48.0642 56.5637C43.142 56.9391 41.5977 54.3973 41.5977 54.3973L42.8524 44.5195L54.7988 41.967L56.7934 41.538Z"   fill="#F27E64" >
</path>
<path d="M56.783 40.8515C56.7508 41.1626 56.6328 41.5272 56.4505 41.9348C53.8875 47.5654 44.976 49.8606 42.1342 50.0965L42.8419 44.5195L56.783 40.8408L56.783 40.8515Z"   fill="#000000" >
</path>
<path d="M40.4718 18.758C40.4718 18.758 34.4557 32.8936 36.7506 40.7765C39.0455 48.6594 46.2305 47.3509 50.5308 45.7743C54.8203 44.2085 56.8042 41.538 56.8042 41.538C56.8042 41.538 60.8471 42.8679 63.4959 39.0927C66.1554 35.3282 64.4503 31.0382 62.1447 30.0729C59.8391 29.1077 57.1152 30.7915 57.1152 30.7915L59.2171 26.6838C59.2171 26.6838 50.0053 5.98454 40.4718 18.758Z"   fill="#F27E64" >
</path>
<path d="M57.1153 30.813C57.1153 30.813 51.0885 32.1536 46.7561 25.4934C42.4236 18.8439 42.7561 16.0661 42.7561 16.0661L38.7024 23.1017C38.7024 23.1017 37.6729 18.2969 39.5389 15.1866C41.4049 12.0764 43.4209 12.677 43.4209 12.677L56.8258 15.7551L60.547 26.3836L57.1153 30.813Z"   fill="#000000" >
</path>
<path d="M41.2873 36.7224C41.0621 36.7224 40.8476 36.583 40.7726 36.3578C39.7752 33.3226 41.8771 30.1909 41.9629 30.0622C42.1345 29.8155 42.4669 29.7512 42.7029 29.9228C42.9495 30.0836 43.0138 30.4268 42.8423 30.6628C42.8208 30.695 40.9549 33.4942 41.7806 36.0253C41.8771 36.3041 41.7163 36.6045 41.4374 36.701C41.3838 36.7224 41.3302 36.7224 41.2659 36.7224L41.2873 36.7224Z" fill-rule="evenodd"  fill="#000000" >
</path>
<path d="M57.8123 37.4839C57.6836 37.4839 57.5549 37.441 57.4477 37.3445C57.2332 37.1407 57.2118 36.8082 57.4155 36.583L61.1689 32.4753C61.3726 32.2608 61.705 32.2394 61.9302 32.4432C62.1447 32.6469 62.1662 32.9794 61.9624 33.2046L58.2091 37.3123C58.1018 37.4303 57.9624 37.4839 57.8123 37.4839Z"   fill="#000000" >
</path>
<path d="M61.8445 36.3363C61.8445 36.3363 61.8016 36.3363 61.7694 36.3363L59.1206 35.9824C58.831 35.9395 58.6166 35.6714 58.6595 35.3818C58.7024 35.0922 58.9705 34.8777 59.26 34.9206L61.9088 35.2746C62.1983 35.3175 62.4128 35.5856 62.3699 35.8752C62.3377 36.1433 62.1018 36.3363 61.8445 36.3363Z"   fill="#000000" >
</path>
<path d="M38.3593 25.2467C38.1126 25.2467 37.8874 25.0644 37.8338 24.8177C37.7802 24.5281 37.9625 24.2493 38.2627 24.1849L40.7507 23.7023C41.0295 23.6487 41.319 23.831 41.3834 24.1313C41.437 24.4209 41.2547 24.6997 40.9544 24.7641L38.4665 25.2467C38.4665 25.2467 38.4021 25.2467 38.3593 25.2467Z"   fill="#000000" >
</path>
<path d="M48.7721 26.6945C48.6971 26.6945 48.6113 26.6731 48.5362 26.6409L44.3968 24.6461C44.1287 24.5174 44.0215 24.1956 44.1502 23.9275C44.2788 23.6594 44.6006 23.5521 44.8687 23.6808L49.0081 25.6757C49.2762 25.8044 49.3834 26.1261 49.2547 26.3942C49.1582 26.5873 48.9759 26.6945 48.7721 26.6945Z"   fill="#000000" >
</path>
<path d="M38.4667 31.0274C38.4667 31.0274 38.3702 31.0274 38.3166 31.006C38.027 30.9202 37.8662 30.6306 37.952 30.341L38.6061 28.0673L37.9949 27.3488C37.8018 27.1235 37.834 26.7803 38.0592 26.598C38.2844 26.405 38.6276 26.4371 38.8099 26.6624L39.6034 27.6062C39.7214 27.7456 39.7643 27.9279 39.7107 28.0995L38.9814 30.6521C38.9171 30.888 38.7026 31.0382 38.4667 31.0382L38.4667 31.0274Z"   fill="#000000" >
</path>
<path d="M45.5869 31.5744C45.5869 31.5744 45.4904 31.5744 45.4368 31.553C45.1473 31.4672 44.9864 31.1776 45.0722 30.888L45.7264 28.6143L44.8255 27.5955C44.6325 27.3702 44.6432 27.0378 44.8684 26.834C45.0829 26.6409 45.4261 26.6517 45.6298 26.8769L46.7344 28.1103C46.8524 28.2497 46.8953 28.4427 46.8524 28.6143L46.1231 31.1669C46.0588 31.4028 45.8443 31.553 45.6084 31.553L45.5869 31.5744Z"   fill="#000000" >
</path>
<path d="M43.3242 40.3904C42.981 40.3904 42.6486 40.3153 42.3376 40.1545C42.0695 40.015 41.973 39.6933 42.1124 39.4359C42.2518 39.1785 42.5735 39.0712 42.8309 39.2107C43.9247 39.7791 45.9301 38.0416 46.5521 37.3874C46.7558 37.1729 47.099 37.1622 47.3135 37.366C47.5279 37.5697 47.5387 37.9129 47.3349 38.1274C47.0775 38.3956 45.1365 40.4011 43.3242 40.4011L43.3242 40.3904Z"   fill="#000000" >
</path>
<path d="M41.8659 52.2523L36.2358 53.239C36.2358 53.239 36.3538 60.7894 46.949 61.7439C57.5442 62.6984 64.6648 52.1343 64.6648 52.1343L53.5334 50.783L41.8659 52.2523Z"   fill="#F27E64" >
</path>
<path d="M62.3058 43.3505C62.4773 46.1175 61.4478 48.4341 60.0001 48.5307C58.5524 48.6165 57.2441 46.45 57.0725 43.6829C56.9009 40.9159 57.9304 38.5993 59.3781 38.5028C60.8259 38.417 62.1342 40.5834 62.3058 43.3505Z"   fill="#507849" >
</path>
</svg>
