<svg xmlns="http://www.w3.org/2000/svg" xmlns:xlink="http://www.w3.org/1999/xlink" width="100" height="100.00292205810547" viewBox="0 0 100 100.00292205810547" fill="none">
<path d="M100 49.9985C100 54.4386 99.4209 58.7499 98.3269 62.8467C92.6641 84.2425 73.1768 99.9971 50 99.9971C34.4058 99.9971 20.4848 92.8652 11.3149 81.69C4.2471 73.0566 0 62.0209 0 49.9985C0 22.3824 22.3831 0 50 0C77.6169 0 100 22.3824 100 49.9985Z"   fill="#F2E5DF" >
</path>
<path d="M98.3298 62.8497C92.667 84.2454 73.1797 100 50.0029 100C34.4088 100 20.4877 92.8681 11.3178 81.6929C25.9467 63.7934 41.7232 61.8844 41.7232 61.8844C41.7232 61.8844 41.3478 59.1818 41.7232 58.4525C41.9913 57.9377 42.978 57.4659 43.525 57.2406C43.7395 57.1548 43.8789 57.1012 43.8789 57.1012C43.8789 57.1012 44.6726 56.9618 45.9167 56.7688C48.4156 56.3719 52.7271 55.7392 56.0733 55.4925C57.0922 55.4067 58.0252 55.3638 58.7867 55.3745C59.6125 55.3745 60.2453 55.4603 60.5885 55.6212C61.0068 55.8143 61.4894 57.1012 61.4894 57.1012C61.4894 57.1012 67.6777 56.1467 76.2256 57.1012C79.8184 57.5088 88.7524 59.1604 98.3298 62.8497Z"   fill="#7C6053" >
</path>
<path d="M41.5337 34.7922C41.5337 34.7922 32.7928 31.9823 32.7392 38.5565C32.6855 46.1711 41.7053 45.3989 41.7053 45.3989L41.5337 34.7922Z"   fill="#F27E64" >
</path>
<path d="M37.9317 42.0046C37.7601 42.0046 37.5992 41.9295 37.492 41.7794L34.2423 37.2321C34.0707 36.9962 34.1243 36.653 34.371 36.4814C34.6177 36.3098 34.9502 36.3634 35.1218 36.6101L38.3714 41.1573C38.543 41.3933 38.4894 41.7365 38.2427 41.9081C38.1462 41.9724 38.039 42.0046 37.9317 42.0046Z"   fill="#000000" >
</path>
<path d="M34.5379 40.874C34.2698 40.874 34.0338 40.6702 34.0016 40.3914C33.9695 40.1018 34.184 39.8337 34.4735 39.8015L36.8652 39.5334C37.1655 39.5012 37.4229 39.7157 37.4551 40.0053C37.4873 40.2949 37.2728 40.563 36.9832 40.5952L34.5915 40.8633C34.5915 40.8633 34.5486 40.8633 34.5272 40.8633L34.5379 40.874Z"   fill="#000000" >
</path>
<path d="M58.372 51.3056L59.2622 60.132C59.2622 60.132 56.0232 62.2877 51.7654 62.7596C46.0168 63.3923 43.7645 60.1642 43.7645 60.1642L42.8422 49.8041L58.372 51.3056Z"   fill="#F27E64" >
</path>
<path d="M58.3618 51.2919C58.3618 51.2919 56.2705 58.6919 49.6531 58.3273C44.3121 58.027 42.1134 50.7128 42.1134 50.7128L58.3618 51.2919Z"   fill="#000000" >
</path>
<path d="M38.1941 27.8168C38.1941 27.8168 36.0169 44.3221 41.3044 51.0465C46.9886 58.2535 54.7642 55.2184 57.542 52.6444C61.285 49.1696 61.714 44.7832 61.714 44.7832C61.714 44.7832 67.3661 45.3731 68.7925 40.6757C70.2941 35.7423 66.476 32.2353 63.6874 32.2675C60.8882 32.2997 60.6201 32.8359 60.6201 32.8359L60.9633 27.6881C60.9633 27.6881 42.3447 10.5178 38.2048 27.8275L38.1941 27.8168Z"   fill="#F27E64" >
</path>
<path d="M62.1648 40.1003C62.0361 40.1003 61.8967 40.0466 61.7895 39.9501C61.575 39.7464 61.575 39.4032 61.7787 39.1887L65.7148 35.1133C65.9186 34.8988 66.2618 34.8988 66.4763 35.1026C66.6908 35.3063 66.6908 35.6495 66.487 35.864L62.5509 39.9394C62.4437 40.0466 62.3043 40.1003 62.1648 40.1003Z"   fill="#000000" >
</path>
<path d="M66.1759 40.4079C66.0793 40.4079 65.9828 40.3865 65.897 40.3328L63.1943 38.6705C62.9476 38.5204 62.8618 38.1879 63.0227 37.9305C63.1729 37.6838 63.5053 37.598 63.7627 37.7589L66.4654 39.4212C66.7121 39.5714 66.7979 39.9039 66.637 40.1613C66.5405 40.3221 66.3582 40.4186 66.1759 40.4186L66.1759 40.4079Z"   fill="#000000" >
</path>
<path d="M53.3983 36.413C53.1087 36.413 52.8728 36.1878 52.862 35.8982L52.7655 33.1634C52.7655 32.8631 52.9907 32.6164 53.2803 32.6057C53.5699 32.5736 53.8273 32.8309 53.838 33.1205L53.9345 35.8553C53.9345 36.1556 53.7093 36.4023 53.4197 36.413C53.4197 36.413 53.409 36.413 53.3983 36.413Z"   fill="#000000" >
</path>
<path d="M42.9441 36.8154C42.6546 36.8154 42.4186 36.5902 42.4079 36.3006L42.3114 33.5658C42.3114 33.2656 42.5366 33.0189 42.8262 33.0082C43.1265 32.9974 43.3731 33.2334 43.3839 33.5229L43.4804 36.2577C43.4804 36.558 43.2552 36.8047 42.9656 36.8154C42.9656 36.8154 42.9549 36.8154 42.9441 36.8154Z"   fill="#000000" >
</path>
<path d="M48.415 43.5789C48.1791 43.5789 47.9646 43.4288 47.9002 43.1928C46.6454 38.9673 47.6965 35.3531 47.7394 35.2029C47.8252 34.9241 48.1255 34.7525 48.4043 34.8383C48.6832 34.9241 48.8548 35.2244 48.769 35.5032C48.769 35.5354 47.7715 38.978 48.9298 42.8818C49.0156 43.1607 48.8548 43.461 48.5652 43.5468C48.5116 43.5575 48.4579 43.5682 48.415 43.5682L48.415 43.5789Z"   fill="#000000" >
</path>
<path d="M41.0732 31.2259C40.9445 31.2259 40.8051 31.1723 40.6978 31.0758C40.4833 30.872 40.4726 30.5288 40.6764 30.3143C41.7596 29.1775 43.733 29.0059 43.8188 29.0059C44.1191 28.9845 44.3765 29.1989 44.398 29.4992C44.4194 29.7888 44.2049 30.0569 43.9046 30.0784C43.8832 30.0784 42.2637 30.2178 41.4593 31.065C41.3521 31.1723 41.2126 31.2259 41.0732 31.2259Z"   fill="#000000" >
</path>
<path d="M54.513 31.0137C54.4165 31.0137 54.3307 30.9923 54.2449 30.9387C53.2368 30.3488 51.6387 30.6705 51.6173 30.6705C51.3277 30.7242 51.0488 30.5418 50.9845 30.2523C50.9309 29.9627 51.1132 29.6839 51.4028 29.6195C51.4886 29.5981 53.4191 29.212 54.7812 30.0163C55.0386 30.1665 55.1244 30.4989 54.9742 30.7456C54.8777 30.9172 54.6954 31.0137 54.513 31.0137Z"   fill="#000000" >
</path>
<path d="M61.8909 32.7359C61.8909 32.7359 60.6146 37.8837 59.9497 37.7336C59.2847 37.5942 59.6386 29.6257 61.4833 29.1431C63.328 28.6605 61.8909 32.7359 61.8909 32.7359Z"   fill="#000000" >
</path>
<path d="M49.2176 48.2381C48.9281 48.2381 48.6921 48.0129 48.6814 47.7234C48.6707 47.4231 48.8959 47.1764 49.1962 47.1657C49.3034 47.1657 51.9311 47.0262 52.9499 44.7741C53.0679 44.5059 53.3897 44.388 53.6578 44.5059C53.9259 44.6239 54.0439 44.9457 53.9259 45.2138C52.6282 48.0665 49.3785 48.2274 49.2391 48.2274C49.2391 48.2274 49.2284 48.2274 49.2176 48.2274L49.2176 48.2381Z"   fill="#000000" >
</path>
<path d="M61.0369 32.0646C61.0369 32.0646 55.4062 31.8394 51.5131 29.0938C48.2312 26.7773 46.8477 23.324 46.8477 23.324C46.8477 23.324 44.4238 23.1202 41.0776 25.3831C37.7314 27.646 37.7422 34.1988 37.7422 34.1988C37.7422 34.1988 30.8996 23.4098 33.7632 19.3558C36.616 15.3019 41.7104 18.3477 41.7104 18.3477C41.7104 18.3477 40.5199 11.1514 50.6551 13.5109C60.8009 15.8703 63.4607 24.4179 63.4607 24.4179C63.4607 24.4179 66.8713 23.9674 67.429 27.1205C67.9867 30.2736 66.8391 33.5446 66.8391 33.5446C66.8391 33.5446 65.2947 32.1933 63.0425 33.1478L60.7902 34.0916L61.0369 32.0646Z"   fill="#000000" >
</path>
<path d="M43.8783 57.1007C43.8783 57.1007 45.8302 58.9453 50.3347 59.0633C54.8392 59.1812 58.7968 55.5349 58.7968 55.5349L61.7033 60.865L54.5175 65.2514L42.4733 64.2433L42.4733 58.8488L43.8676 57.1114L43.8783 57.1007Z"   fill="#7C6053" >
</path>
<path d="M48.8485 65.7923C43.9793 65.7923 41.3195 62.2317 41.2873 62.1888C41.1157 61.9529 41.1694 61.6204 41.4053 61.4381C41.6413 61.2665 41.9845 61.3201 42.1561 61.5561C42.2955 61.7491 45.6095 66.1462 51.8086 64.2587C52.0982 64.1729 52.3877 64.3338 52.4735 64.6126C52.5593 64.8914 52.3985 65.1917 52.1196 65.2775C50.9399 65.6314 49.8459 65.7816 48.8485 65.7816L48.8485 65.7923Z"   fill="#FFFFFF" >
</path>
</svg>
