<svg xmlns="http://www.w3.org/2000/svg" xmlns:xlink="http://www.w3.org/1999/xlink" width="100" height="100.00018310546875" viewBox="0 0 100 100.00018310546875" fill="none">
<path d="M100 50C100 52.4774 99.8177 54.9227 99.4746 57.3037C99.3566 58.0973 99.2172 58.8695 99.0778 59.6418C98.0376 64.9399 96.1716 69.9378 93.6086 74.4852C92.0429 77.2629 90.2199 79.8798 88.1609 82.293C87.6032 82.9579 87.0242 83.6014 86.4343 84.2342C83.9571 86.8725 81.2011 89.2428 78.1984 91.2912C75.8821 92.8785 73.4263 94.2728 70.8526 95.4525C68.9866 96.3105 67.0563 97.0613 65.0617 97.6833C62.874 98.3805 60.6113 98.9274 58.2949 99.3135C55.6032 99.764 52.8258 99.9999 50.0054 99.9999C40.8472 99.9999 32.2681 97.5439 24.8901 93.2432C23.6354 92.5246 22.4236 91.7417 21.244 90.9051C21.126 90.8193 20.9973 90.7335 20.8794 90.6477C20.0429 90.0471 19.2172 89.4144 18.4236 88.7601C18.3807 88.728 18.3378 88.6958 18.2949 88.6529C16.311 87.0334 14.4558 85.2531 12.74 83.3333C11.6783 82.1428 10.6702 80.8987 9.71582 79.6117C3.60322 71.3213 0 61.0789 0 50C0 22.3831 22.3914 0 50.0054 0C77.6193 0 100 22.3831 100 50Z"   fill="#F2E5DF" >
</path>
<path d="M24.9114 92.4925L24.8899 93.2432C23.6352 92.5246 22.4234 91.7417 21.2438 90.9052C21.1259 90.8194 20.9972 90.7336 20.8792 90.6478L21.2545 90.8194L24.9114 92.4925Z"   fill="#FCA397" >
</path>
<path d="M26.9064 60.4569L21.2549 90.8194L21.2549 90.9052C21.1262 90.8194 20.9975 90.7336 20.8796 90.6478C20.0431 90.0472 19.2174 89.4144 18.4238 88.7602C18.3809 88.728 18.338 88.6958 18.2951 88.653C16.3112 87.0335 14.456 85.2531 12.7402 83.3333C17.0404 71.5358 26.9064 60.4569 26.9064 60.4569Z"   fill="#46467F" >
</path>
<path d="M99.0778 59.6418C98.0376 64.9399 96.1716 69.9378 93.6086 74.4852C92.0429 77.2629 90.2199 79.8799 88.1609 82.293C87.6032 82.9579 87.0242 83.6014 86.4343 84.2342C83.9571 86.8726 81.2011 89.2428 78.1984 91.2913C75.5067 91.1089 72.7507 90.6799 69.9947 90.0579C68.311 89.6825 66.6274 89.2321 64.9544 88.728C63.1207 88.1703 61.3083 87.5482 59.5174 86.8833C56.9115 85.918 54.3807 84.8455 51.9571 83.7409C39.6676 78.0995 30.3485 71.4286 30.3485 71.4286C30.3485 71.4286 29.5228 69.7876 28.6005 67.0313C28.1394 65.6585 27.6569 64.0176 27.2493 62.1729C27.2064 61.9905 27.1636 61.7975 27.1314 61.6152C27.1314 61.583 27.1314 61.5723 27.1099 61.5508C27.0456 61.1969 26.9705 60.8322 26.9062 60.4569C26.2949 57.1428 25.9625 53.314 26.3378 49.26C26.681 45.4311 29.2333 40.4118 31.7963 34.8563C32.5791 33.1188 33.3619 31.3707 34.0804 29.5796C34.563 28.3891 35.0134 27.1879 35.4102 25.976C36.2038 23.6272 36.815 21.2355 37.0938 18.876C37.1796 18.2969 37.2333 17.7499 37.2547 17.1922C37.319 16.0875 37.3083 14.9829 37.2011 13.8889C37.2011 13.8889 45.5443 8.14031 54.799 14.4359C57.2547 16.109 58.6166 17.9751 59.4209 19.8842C60.3217 22.0077 60.5362 24.1742 60.7936 26.1798C61.1689 29.1613 61.63 31.7675 64.6113 33.2904C71.378 36.7653 77.866 40.8623 77.5979 47.8121C77.3191 54.7512 81.1904 62.9022 86.6917 59.0519C89.9732 56.7567 94.9813 57.2179 99.0778 59.6418Z"   fill="#FCB35B" >
</path>
<path d="M65.0615 97.6834C62.8738 98.3805 60.6111 98.9275 58.2947 99.3136C55.603 99.764 52.8256 100 50.0052 100C40.847 100 32.2679 97.544 24.8899 93.2432C23.6352 92.5247 22.4234 91.7417 21.2438 90.9052C21.1258 90.8194 20.9971 90.7336 20.8792 90.6478C20.0427 90.0472 19.217 89.4144 18.4234 88.7602C18.6272 87.13 18.8631 85.5212 19.1205 83.9232C19.1419 83.7838 19.1741 83.6336 19.1955 83.4942C19.4743 81.8318 19.7961 80.2016 20.1499 78.6036C20.1499 78.5285 20.1821 78.4642 20.1928 78.3998C21.2331 73.7452 22.6164 69.4552 24.418 65.8837C25.2223 64.2857 26.1231 62.8271 27.1097 61.5508C27.217 61.4114 27.3349 61.272 27.4422 61.1326C27.9891 60.4676 28.536 59.8777 29.1151 59.3415C29.8658 58.6444 30.6164 58.0116 31.3778 57.4217C31.4207 57.4003 31.4529 57.3895 31.4636 57.3681C33.855 55.5448 36.3001 54.2471 38.7237 53.3677C44.0642 51.4264 49.2974 51.4693 53.6513 52.2094C53.9087 52.2523 54.1553 52.2952 54.3912 52.3488C56.1178 52.6813 57.6942 53.1103 59.0561 53.5714C62.4556 54.6868 64.5575 55.9202 64.5575 55.9202L64.9543 88.728L65.0615 97.6834Z"   fill="#46467F" >
</path>
<path d="M99.4744 57.3037C99.3564 58.0974 99.217 58.8696 99.0776 59.6418C98.0374 64.9399 96.1714 69.9378 93.6084 74.4852C90.091 73.048 85.7264 70.8065 81.6835 68.5757C75.1205 64.9828 69.4046 61.4221 69.4046 61.4221L67.2277 57.0785L58.6915 40.0257L56.5253 35.6928L55.8497 34.3307L53.8336 30.3196L53.4368 29.5259L53.2331 29.1077L51.6781 26.0081L53.0615 24.9142L54.4127 23.8417L59.4207 19.8842C59.4207 19.8842 59.3778 23.166 60.7934 26.1797C61.7156 28.1746 63.2706 30.0407 65.8979 30.7593C71.1097 32.1965 75.721 32.5289 78.713 39.2964C81.6513 45.9245 77.7264 50.6542 83.292 54.3114C88.8577 57.9687 90.8416 53.0244 98.8631 56.982C99.0776 57.0892 99.2813 57.1965 99.4744 57.3037Z"   fill="#FCB35B" >
</path>
<path d="M52.9116 41.9348L53.7266 53.3248C53.7266 53.3248 51.9036 56.746 45.287 57.7649C40.354 58.5264 38.5953 56.0811 38.5953 56.0811L39.0886 46.0318L50.9277 42.5247L52.9116 41.9348Z"   fill="#F27E64" >
</path>
<path d="M50.9278 42.5247C50.9278 42.8357 50.8312 43.2111 50.6704 43.6508C48.5256 49.5174 41.6516 51.2441 38.7991 51.7053L39.0779 46.0317L50.917 42.5247L50.9278 42.5247Z"   fill="#000000" >
</path>
<path d="M34.6917 20.2488C34.6917 20.2488 29.7372 34.9528 32.6541 42.7284C35.5817 50.4933 42.7238 48.6164 46.9276 46.6966C51.1313 44.7769 52.9115 41.9455 52.9115 41.9455C52.9115 41.9455 57.0831 42.9643 59.4638 38.9639C61.8445 34.9635 59.7962 30.77 57.4048 29.9871C55.0027 29.1934 52.3968 31.1025 52.3968 31.1025L54.1984 26.8018C54.1984 26.8018 43.3029 6.66021 34.6917 20.2488Z"   fill="#F27E64" >
</path>
<path d="M52.3966 31.0918C52.3966 31.0918 46.4234 32.9043 41.5441 26.5444C36.6647 20.1737 36.7827 17.3638 36.7827 17.3638L33.2438 24.764C33.2438 24.764 31.8283 20.0021 33.469 16.731C35.1098 13.4492 37.1795 13.8996 37.1795 13.8996L50.9275 15.9588L55.5066 26.3728L52.3966 31.0918Z"   fill="#FCB35B" >
</path>
<path d="M39.5387 41.9884C39.335 41.9884 39.217 41.9669 39.1955 41.9669C38.906 41.924 38.7023 41.6452 38.7451 41.3556C38.788 41.066 39.0669 40.8623 39.3564 40.9052C39.4422 40.9159 41.2009 41.1197 42.6808 39.0176C42.8524 38.7709 43.1848 38.7173 43.4315 38.8889C43.6781 39.0605 43.7317 39.3929 43.5602 39.6396C42.0803 41.7524 40.2894 41.9991 39.5494 41.9991L39.5387 41.9884Z"   fill="#000000" >
</path>
<path d="M36.8685 38.2776C36.654 38.2776 36.461 38.1489 36.3752 37.9451C35.142 34.9636 36.9972 31.6495 37.083 31.5101C37.2331 31.2527 37.5548 31.1669 37.8122 31.3063C38.0696 31.4565 38.1554 31.7782 38.016 32.0356C37.9945 32.0678 36.3323 35.0387 37.3725 37.5269C37.4905 37.795 37.3618 38.1167 37.083 38.224C37.0186 38.2561 36.9436 38.2669 36.8685 38.2776Z"   fill="#000000" >
</path>
<path d="M43.2708 31.3492C43.0885 31.3492 42.9169 31.2634 42.8097 31.0918C42.563 30.6842 42.2628 30.459 41.9089 30.3947C41.2654 30.2767 40.5041 30.7486 40.2681 30.9416C40.0429 31.124 39.6998 31.0918 39.5175 30.8666C39.3352 30.6413 39.3673 30.2981 39.5925 30.1158C39.6461 30.0729 40.8258 29.1291 42.0805 29.3436C42.7453 29.4509 43.303 29.8584 43.7105 30.5341C43.8606 30.7915 43.7856 31.1132 43.5389 31.2741C43.4531 31.3277 43.3566 31.3492 43.2708 31.3492Z"   fill="#000000" >
</path>
<path d="M35.2599 31.4458C35.0561 31.4458 34.8631 31.3278 34.7666 31.1347C34.5735 30.7057 34.1231 30.0944 33.8014 30.0837C33.5977 30.0837 33.3188 30.3411 33.0615 30.813C32.9113 31.0704 32.5789 31.1562 32.3322 31.0168C32.0749 30.8666 31.9891 30.5449 32.1285 30.2875C32.6218 29.4187 33.2116 29.0005 33.855 29.0219C34.981 29.0755 35.6674 30.5449 35.7424 30.7057C35.8604 30.9739 35.7424 31.2956 35.4743 31.4136C35.3993 31.4458 35.3242 31.4565 35.2491 31.4565L35.2599 31.4458Z"   fill="#000000" >
</path>
<path d="M42.563 27.2308C42.445 27.2308 42.3271 27.1879 42.2198 27.1128C40.4504 25.6542 39.5925 26.4371 39.5603 26.4693C39.3458 26.6731 39.0134 26.6731 38.8096 26.4693C38.6059 26.2655 38.5952 25.9331 38.8096 25.7293C38.874 25.6649 40.3539 24.1742 42.9169 26.2977C43.1421 26.4908 43.1742 26.8232 42.9919 27.0485C42.8847 27.1772 42.7346 27.2415 42.563 27.2308Z"   fill="#000000" >
</path>
<path d="M33.3085 27.5848C33.1905 27.5848 33.0725 27.5526 32.976 27.4668C32.7401 27.2845 32.6972 26.952 32.8795 26.716C33.0833 26.4586 34.1342 25.1716 35.1744 25.3111C35.4961 25.354 35.9465 25.547 36.2254 26.2334C36.3433 26.5123 36.2039 26.8233 35.9358 26.9305C35.6677 27.0485 35.346 26.9091 35.2388 26.641C35.2173 26.5766 35.1208 26.3836 35.035 26.3728C34.7347 26.3407 34.1235 26.8662 33.7374 27.3703C33.6302 27.5097 33.4693 27.574 33.3085 27.5848Z"   fill="#000000" >
</path>
<path d="M53.587 37.7628C53.4691 37.7628 53.3511 37.7306 53.2546 37.6448C53.0187 37.4625 52.9758 37.13 53.1581 36.8941L56.6219 32.4539C56.8042 32.2179 57.1474 32.175 57.3726 32.3574C57.6085 32.5397 57.6514 32.8722 57.4691 33.1081L54.0053 37.5483C53.898 37.6877 53.7372 37.7521 53.587 37.7521L53.587 37.7628Z"   fill="#000000" >
</path>
<path d="M57.555 36.2828L54.8311 36.1326C54.5308 36.1112 54.3056 35.8645 54.3271 35.5642C54.3378 35.2746 54.563 35.0494 54.8955 35.0601L57.5979 35.2103C57.8981 35.2317 58.1233 35.4784 58.1019 35.7787C58.0912 36.0683 57.8445 36.2828 57.555 36.2828Z"   fill="#000000" >
</path>
<path d="M70.8524 95.4526C68.9865 96.3106 67.0562 97.0613 65.0615 97.6834C62.8738 98.3805 60.6111 98.9275 58.2948 99.3136C55.6031 99.7641 52.8256 100 50.0052 100C40.847 100 32.2679 97.544 24.8899 93.2432C23.6352 92.5247 22.4234 91.7417 21.2438 90.9052C21.1258 90.8194 20.9972 90.7336 20.8792 90.6478C20.0427 90.0472 19.217 89.4144 18.4234 88.7602C18.3805 88.728 18.3376 88.6958 18.2947 88.6529C18.5628 87.0442 26.3055 60.9503 26.906 60.4569L28.2572 59.556C30.0159 58.0867 30.8524 57.7113 31.3779 57.4217C31.4207 57.4003 31.4529 57.3896 31.4636 57.3681C31.4958 57.3681 26.2733 85.2424 26.2733 85.2424L51.9355 83.7409L53.1688 83.6658C53.1688 83.6658 53.8765 77.3917 55.5173 69.3908C57.5548 59.4488 59.0562 53.5715 59.0562 53.5715C61.6406 53.5071 64.5575 55.9202 64.5575 55.9202L69.9945 90.0579L70.8524 95.4526Z"   fill="#F7734F" >
</path>
<path d="M88.1611 82.293C87.6034 82.958 87.0243 83.6015 86.4345 84.2342C83.9573 86.8726 81.2013 89.2428 78.1986 91.2913C75.8822 92.8786 73.4265 94.2728 70.8528 95.4526C68.9868 96.3106 67.0565 97.0613 65.0619 97.6834C62.8742 98.3805 60.6115 98.9275 58.2951 99.3136L60.7401 77.8743C61.1155 73.2411 64.5578 55.9202 64.5578 55.9202C64.5578 55.9202 65.5873 56.2849 67.2281 57.0785C70.6919 58.7624 76.8688 62.3874 81.6731 68.5757C83.6034 71.0425 85.3085 73.9168 86.531 77.2523C87.1637 78.9575 87.6999 80.6414 88.1611 82.293Z"   fill="#46467F" >
</path>
<path d="M43.5281 58.3977C39.5925 58.3977 38.2198 56.4886 38.1447 56.3921C37.9732 56.1454 38.0375 55.813 38.2842 55.6414C38.5201 55.4698 38.8525 55.5341 39.0241 55.7701C39.0563 55.813 40.8472 58.151 46.4557 56.9927C52.193 55.8022 53.8123 52.2844 53.8874 52.1343C54.0053 51.8662 54.3271 51.7375 54.5951 51.8554C54.8632 51.9734 54.9919 52.2844 54.874 52.5633C54.7989 52.7349 52.9973 56.7353 46.6809 58.0438C45.4799 58.2904 44.4397 58.3977 43.5281 58.3977Z"   fill="#7772D3" >
</path>
</svg>
