<svg xmlns="http://www.w3.org/2000/svg" xmlns:xlink="http://www.w3.org/1999/xlink" width="100" height="100" viewBox="0 0 100 100" fill="none">
<path d="M100 50.0054C100 58.4665 97.8981 66.4236 94.1877 73.4048C92.6327 76.3432 90.7989 79.0992 88.7078 81.6515C87.4209 83.2279 86.0375 84.7185 84.5684 86.1233C83.4638 87.185 82.3056 88.193 81.1046 89.1475C79.6675 90.2949 78.1662 91.3673 76.6005 92.3324C76.0214 92.7078 75.4316 93.0617 74.8311 93.4048C67.5174 97.5979 59.0456 100 50.0054 100C48.1287 100 46.2735 99.8928 44.4611 99.689C43.3673 99.571 42.2842 99.4209 41.2118 99.2279C38.9491 98.8311 36.7399 98.2735 34.5952 97.5657C34.134 97.4156 33.6729 97.2654 33.2225 97.0938C27.1528 94.9491 21.63 91.6568 16.9008 87.4638C14.9276 85.7265 13.0938 83.8284 11.4209 81.8016C4.27882 73.1689 0 62.0804 0 50.0054C0 22.3914 22.3914 0 50.0054 0C77.6193 0 100 22.3914 100 50.0054Z"   fill="#F2E5DF" >
</path>
<path d="M51.1634 16.9437C51.1634 16.9437 41.2975 15.4638 34.2305 19.8928C27.1634 24.3217 30.3592 36.118 30.3592 36.118C30.3592 36.118 19.0348 44.9866 18.4235 54.7131C17.8122 64.4397 26.6702 68.0107 26.6702 68.0107L50.016 64.4397L51.1634 16.9437Z"   fill="#000000" >
</path>
<path d="M94.1875 73.4049C92.6325 76.3432 90.7987 79.0992 88.7076 81.6515C87.4207 83.2279 86.0373 84.7185 84.5682 86.1234C83.4636 87.185 82.3054 88.1931 81.1044 89.1475C79.6674 90.295 78.166 91.3673 76.6003 92.3325L72.4931 57.1689C72.4931 57.1689 76.5682 58.0269 85.9944 66.2092C90.1017 69.7695 92.6325 72 94.1875 73.4049Z"   fill="#507849" >
</path>
<path d="M81.1045 89.1474C79.6675 90.2948 78.1661 91.3672 76.6004 92.3324C76.0214 92.7077 75.4315 93.0616 74.831 93.4048C67.5173 97.5978 59.0455 99.9999 50.0053 99.9999C48.1286 99.9999 46.2734 99.8927 44.461 99.6889C43.3672 99.571 42.2841 99.4208 41.2117 99.2278C38.949 98.831 36.7399 98.2734 34.5951 97.5656C34.134 97.4155 33.6728 97.2653 33.2224 97.0938C32.8257 79.3779 32.7184 61.6621 33.7694 60.1715C35.4637 57.7586 41.2868 55.2922 47.8712 54.2948C49.5871 54.0267 51.3458 53.8552 53.1045 53.823C61.6192 53.6407 72.4932 57.1688 72.4932 57.1688L81.1045 89.1474Z"   fill="#507849" >
</path>
<path d="M50.0267 74.6274L44.461 99.6891C43.3672 99.5711 42.2841 99.421 41.2117 99.2279C38.949 98.8311 36.7399 98.2735 34.5951 97.5657C34.134 97.4156 33.6728 97.2655 33.2224 97.0939C27.1527 94.9491 21.6299 91.6569 16.9007 87.4639C14.9275 85.7266 13.0937 83.8285 11.4208 81.8017C25.8766 54.5416 47.8176 53.8124 47.8176 53.8124L47.8712 54.295L50.0267 74.6274Z"   fill="#507849" >
</path>
<path d="M47.764 55.1743C47.764 55.1743 51.8391 61.1582 56.6005 64.7507C61.3619 68.3539 63.5281 68.7722 63.5281 68.7722L63.2278 57.169L47.764 55.1743Z"   fill="#E56445" >
</path>
<path d="M47.9893 43.2171L47.7962 54.7131C47.7962 54.7131 49.8123 58.059 56.5362 58.7131C61.5442 59.2064 63.3244 58.1019 63.3244 58.1019L62.7238 52.2681L62.134 46.5737L50.0268 43.689L48 43.2064L47.9893 43.2171Z"   fill="#FCA397" >
</path>
<path d="M50.0267 43.6997C50.0482 44.0107 50.1661 44.386 50.3377 44.815C52.8149 50.6059 59.8283 51.9678 62.713 52.2681L62.1232 46.5737L50.016 43.689L50.0267 43.6997Z"   fill="#000000" >
</path>
<path d="M65.1473 20.4075C65.1473 20.4075 70.9382 34.9276 68.4181 42.9062C65.898 50.874 58.6165 49.3727 54.2841 47.6676C49.9516 45.9732 47.9999 43.2172 47.9999 43.2172C47.9999 43.2172 43.8605 44.4719 41.2439 40.5684C38.6272 36.6649 40.461 32.3539 42.831 31.4209C45.201 30.4987 47.9248 32.2788 47.9248 32.2788L45.8766 28.0429C45.8766 28.0429 55.7425 7.19571 65.1473 20.4075Z"   fill="#FCA397" >
</path>
<path d="M47.3992 38.5631C47.292 38.5631 47.174 38.5309 47.0775 38.4558L41.9622 34.6381C41.7263 34.4558 41.6727 34.1234 41.855 33.8875C42.0373 33.6516 42.3697 33.5979 42.6056 33.7802L47.7209 37.5979C47.9568 37.7802 48.0105 38.1127 47.8281 38.3486C47.7209 38.488 47.5601 38.5631 47.3992 38.5631Z"   fill="#000000" >
</path>
<path d="M42.6701 38.4128C42.4235 38.4128 42.209 38.252 42.1447 38.0053C42.0803 37.7158 42.2519 37.4262 42.5415 37.3619L45.9731 36.5469C46.2626 36.4718 46.5522 36.6541 46.6165 36.9437C46.6809 37.2332 46.5093 37.5228 46.2197 37.5871L42.7881 38.4021C42.7881 38.4021 42.7023 38.4128 42.6594 38.4128L42.6701 38.4128Z" fill-rule="evenodd"  fill="#000000" >
</path>
<path d="M55.4101 26.3914C55.2921 26.3914 55.1742 26.3485 55.0777 26.2735C54.8417 26.0911 54.8096 25.748 54.9919 25.5228C56.6219 23.4852 58.7345 23.9035 59.6353 24.4075C59.8927 24.5576 59.9892 24.8793 59.8391 25.1367C59.6889 25.3941 59.3672 25.4799 59.1098 25.3405C59.0348 25.2976 57.2868 24.3753 55.8283 26.1877C55.7211 26.3163 55.571 26.3914 55.4101 26.3914Z"   fill="#000000" >
</path>
<path d="M66.5737 26.0376C66.445 26.0376 66.327 25.9947 66.2198 25.9089C65.0723 24.9223 63.8284 25.5872 63.7748 25.6194C63.5174 25.7588 63.1849 25.673 63.0455 25.4156C62.9061 25.1582 62.9919 24.8365 63.2493 24.6864C63.3244 24.6435 65.1903 23.614 66.9168 25.0939C67.1421 25.2869 67.1635 25.6301 66.9705 25.8553C66.8632 25.984 66.7131 26.0376 66.563 26.0376L66.5737 26.0376Z" fill-rule="evenodd"  fill="#000000" >
</path>
<path d="M64.4503 36.9436C64.4503 36.9436 64.3967 36.9436 64.3645 36.9436C64.0749 36.9007 63.8712 36.6219 63.9141 36.3324C64.4717 32.6863 62.8631 30.0267 62.8524 30.0053C62.6916 29.7586 62.7774 29.4262 63.024 29.2654C63.2814 29.1045 63.6031 29.1903 63.7639 29.4369C63.839 29.5549 65.5977 32.4503 64.9757 36.4932C64.9328 36.7613 64.7076 36.9436 64.4503 36.9436Z"   fill="#000000" >
</path>
<path d="M66.4342 31.5603C66.1982 31.5603 65.973 31.3995 65.9194 31.1528L65.2438 28.504C65.2116 28.3754 65.2331 28.2252 65.2974 28.1073L66.1232 26.6381C66.2626 26.3807 66.595 26.2842 66.8524 26.4343C67.1098 26.5737 67.2063 26.9062 67.0561 27.1636L66.3376 28.4397L66.9596 30.8847C67.0347 31.1743 66.8631 31.4638 66.5736 31.5389C66.5307 31.5496 66.4878 31.5603 66.4449 31.5603L66.4342 31.5603Z"   fill="#000000" >
</path>
<path d="M58.0804 31.5818C57.8445 31.5818 57.6193 31.4209 57.5656 31.1743L56.89 28.5255C56.8471 28.3646 56.89 28.193 56.9866 28.0643L58.1555 26.5844C58.3378 26.3485 58.6809 26.3163 58.9061 26.4986C59.1421 26.681 59.1742 27.0241 58.9919 27.2493L57.9839 28.5255L58.5951 30.9169C58.6702 31.2064 58.4986 31.496 58.2091 31.571C58.1662 31.5818 58.1233 31.5925 58.0804 31.5818Z"   fill="#000000" >
</path>
<path d="M47.9249 32.622L50.0268 35.3994C50.0268 35.3994 54.5201 29.1796 54.5094 25.7051C54.4986 22.2305 54.5094 21.0295 54.5094 21.0295C54.5094 21.0295 59.0134 22.6702 62.7238 22.563C66.4343 22.4557 68.7721 20.4825 68.5255 18.7238C68.2788 16.9651 66.0911 11.5925 54.5094 13.3512C42.9276 15.1099 42.7131 28.6327 47.9249 32.622Z"   fill="#000000" >
</path>
<path d="M69.0509 70.6595C68.5254 70.6273 56.9008 69.7587 47.3458 55.0027C47.1849 54.756 47.26 54.4236 47.5067 54.2627C47.7533 54.1019 48.0858 54.1769 48.2466 54.4236C57.4906 68.6971 68.9651 69.5871 69.0831 69.5979C69.3833 69.6193 69.5978 69.866 69.5871 70.1662C69.5656 70.445 69.3297 70.6702 69.0509 70.6595Z"   fill="#FFFFFF" >
</path>
<path d="M63.5282 69.3083C63.2386 69.3083 63.0027 69.0831 62.992 68.7828L62.6917 57.1796C62.6917 56.8793 62.9169 56.6434 63.2172 56.6327C63.496 56.622 63.7641 56.8579 63.7641 57.1581L64.0644 68.7614C64.0644 69.0616 63.8392 69.2976 63.5389 69.3083L63.5282 69.3083Z"   fill="#FFFFFF" >
</path>
<path d="M62.8095 40.9651C61.7478 40.9651 60.461 40.0321 60.0213 39.6997C59.7854 39.5174 59.7425 39.1849 59.9248 38.949C60.1071 38.7131 60.4395 38.6702 60.6754 38.8525C61.4797 39.4745 62.6165 40.0428 62.9596 39.8712C63.217 39.7318 63.5494 39.8284 63.6889 40.0857C63.8283 40.3431 63.7317 40.6755 63.4744 40.8149C63.2706 40.9222 63.0454 40.9651 62.8095 40.9651Z"   fill="#000000" >
</path>
</svg>
